<svg width="10" height="12" viewBox="0 0 10 12" fill="none" xmlns="http://www.w3.org/2000/svg">
<path id="SF Symbol / bell.fill" d="M0.800212 9.24603H9.19979C9.69793 9.24603 10 8.99165 10 8.6048C10 8.07485 9.45946 7.59791 9.00371 7.12626C8.65395 6.7606 8.55856 6.00808 8.51616 5.39865C8.47907 3.36367 7.93853 1.96463 6.52888 1.45588C6.3275 0.76166 5.78166 0.21582 4.99735 0.21582C4.21834 0.21582 3.6672 0.76166 3.47112 1.45588C2.06147 1.96463 1.52093 3.36367 1.48384 5.39865C1.44144 6.00808 1.34605 6.7606 0.99629 7.12626C0.535241 7.59791 0 8.07485 0 8.6048C0 8.99165 0.296767 9.24603 0.800212 9.24603ZM4.99735 11.3711C5.89825 11.3711 6.55538 10.714 6.62427 9.97205H3.37573C3.44462 10.714 4.10175 11.3711 4.99735 11.3711Z" fill="white"/>
</svg>
