<svg width="32" height="45" viewBox="0 0 32 45" fill="none" xmlns="http://www.w3.org/2000/svg">
<g clip-path="url(#clip0_3_524)">
<path fill-rule="evenodd" clip-rule="evenodd" d="M15.6064 30.5156C24.2029 30.5156 31.1717 23.6873 31.1717 15.2641C31.1717 6.841 24.2029 0.0126953 15.6064 0.0126953C7.00995 0.0126953 0.0411377 6.841 0.0411377 15.2641C0.0411377 23.6873 7.00995 30.5156 15.6064 30.5156Z" fill="#555454" fill-opacity="0.52"/>
<path fill-rule="evenodd" clip-rule="evenodd" d="M15.6596 16.7921C18.6782 16.7921 20.8243 18.3852 21.3861 20.7279L21.4219 20.8888C21.5374 21.4473 21.1773 21.9936 20.6175 22.1088C20.5486 22.123 20.4785 22.1301 20.4083 22.1301H10.8203C10.24 22.1301 9.76953 21.6608 9.76953 21.0818C9.76953 21.0244 9.77425 20.9672 9.78361 20.9107L9.80114 20.8266C10.3842 18.5086 12.5724 16.7921 15.6596 16.7921ZM18.8413 9.42641C19.6179 10.7239 19.762 12.3089 19.2737 14.1811C19.2383 14.3756 19.3662 14.5316 19.6574 14.6494L19.6955 14.6635L19.7434 14.6789C19.8513 14.7117 19.9114 14.8232 19.8776 14.928C19.868 14.9578 19.8514 14.9847 19.8294 15.0068L19.7925 15.0362C19.3118 15.3347 17.9246 15.3568 17.1198 15.2021C16.5879 15.7535 16.0065 16.0292 15.3756 16.0292C14.7447 16.0292 14.1569 15.7535 13.6121 15.2021C12.0881 15.084 11.3261 13.9751 11.3261 11.8753C11.3261 9.95298 12.1212 8.68958 13.7115 8.08509C13.9857 7.98087 14.2867 7.96333 14.5717 8.03497L14.7827 8.08801C16.2587 7.19423 17.6116 7.64037 18.8413 9.42641Z" fill="#007AFF"/>
<path d="M8.48191 36.4616C8.14867 36.4616 7.87763 36.1906 7.87763 35.8618C7.87763 35.5285 8.14867 35.2575 8.48191 35.2575C8.81071 35.2575 9.08619 35.5285 9.08619 35.8618C9.08619 36.1906 8.81071 36.4616 8.48191 36.4616ZM7.9976 42.1489V37.3236H8.95733V42.1489H7.9976ZM10.3538 42.1489V37.3236H11.318V38.0567H11.3891C11.6246 37.5413 12.0867 37.2303 12.7887 37.2303C13.8684 37.2303 14.4638 37.8746 14.4638 39.0253V42.1489H13.504V39.252C13.504 38.4522 13.1708 38.0567 12.4643 38.0567C11.7579 38.0567 11.318 38.541 11.318 39.3186V42.1489H10.3538ZM16.1446 42.1489V38.0834H15.3493V37.3236H16.1446V36.8171C16.1446 35.8573 16.6289 35.3864 17.6375 35.3864C17.8508 35.3864 18.0374 35.3997 18.2063 35.4308V36.1373C18.1174 36.1239 17.9885 36.115 17.8375 36.115C17.3043 36.115 17.0955 36.3728 17.0955 36.8615V37.3236H18.1663V38.0834H17.1043V42.1489H16.1446ZM21.1001 42.2422C19.6827 42.2422 18.8163 41.2958 18.8163 39.7407V39.7318C18.8163 38.1811 19.6872 37.2303 21.1001 37.2303C22.5086 37.2303 23.3795 38.1767 23.3795 39.7318V39.7407C23.3795 41.2958 22.513 42.2422 21.1001 42.2422ZM21.1001 41.438C21.9265 41.438 22.3975 40.8071 22.3975 39.7407V39.7318C22.3975 38.661 21.9265 38.0345 21.1001 38.0345C20.2692 38.0345 19.8027 38.661 19.8027 39.7318V39.7407C19.8027 40.8115 20.2692 41.438 21.1001 41.438Z" fill="#007AFF"/>
</g>
<defs>
<clipPath id="clip0_3_524">
<rect width="31.1305" height="44.2292" fill="white" transform="translate(0.0411377 0.0144043)"/>
</clipPath>
</defs>
</svg>
