<svg width="11" height="10" viewBox="0 0 11 10" fill="none" xmlns="http://www.w3.org/2000/svg">
<path d="M5.901 9.16748C5.3158 9.16748 4.75549 9.04297 4.245 8.81885C4.64343 8.34985 4.88 7.74805 4.88 7.10059C4.88 6.88892 4.8551 6.6731 4.8053 6.47388C5.13318 6.39502 5.49841 6.34521 5.89685 6.34521C7.15027 6.34521 8.11316 6.81006 8.5199 7.29565C9.0885 6.67725 9.42883 5.84717 9.42883 4.93408C9.42883 2.9751 7.85168 1.40625 5.89685 1.40625C4.10388 1.40625 2.64294 2.71777 2.41467 4.44019C2.1947 4.41528 1.90002 4.43188 1.69666 4.46924C1.92908 2.36499 3.7345 0.700684 5.89685 0.700684C8.20862 0.700684 10.1344 2.61816 10.1344 4.93408C10.1344 7.24585 8.21277 9.16748 5.901 9.16748ZM5.89685 5.63965C5.09998 5.63135 4.47742 4.96313 4.47327 4.07495C4.46497 3.23657 5.09998 2.54346 5.89685 2.54346C6.68958 2.54346 7.32043 3.23657 7.32043 4.07495C7.32043 4.96729 6.69373 5.64795 5.89685 5.63965ZM2.203 9.21313C1.04919 9.21313 0.0946045 8.26685 0.0946045 7.10474C0.0946045 5.95093 1.04919 4.99634 2.203 4.99634C3.36096 4.99634 4.3114 5.94678 4.3114 7.10474C4.3114 8.25854 3.34436 9.21313 2.203 9.21313ZM2.203 8.42456C2.35657 8.42456 2.45618 8.32495 2.45618 8.17139V7.35791H3.26965C3.41907 7.35791 3.52283 7.2583 3.52283 7.10474C3.52283 6.95117 3.41907 6.85156 3.26965 6.85156H2.45618V6.03809C2.45618 5.88867 2.35657 5.78491 2.203 5.78491C2.04944 5.78491 1.94983 5.88867 1.94983 6.03809V6.85156H1.13635C0.986938 6.85156 0.883179 6.95117 0.883179 7.10474C0.883179 7.2583 0.986938 7.35791 1.13635 7.35791H1.94983V8.17139C1.94983 8.32495 2.04944 8.42456 2.203 8.42456Z" fill="white"/>
</svg>
