<svg width="11" height="9" viewBox="0 0 11 9" fill="none" xmlns="http://www.w3.org/2000/svg">
<path d="M6.35725 8.9519C6.9655 8.9519 7.53811 8.83546 8.07507 8.60258C8.612 8.36967 9.08565 8.04798 9.49602 7.63752C9.90636 7.22702 10.2279 6.75323 10.4608 6.21613C10.6936 5.679 10.81 5.10622 10.81 4.49778C10.81 3.88934 10.6929 3.31656 10.4586 2.77944C10.2243 2.24232 9.902 1.76853 9.49164 1.35805C9.0813 0.947569 8.60765 0.625881 8.07069 0.392984C7.53376 0.160088 6.96115 0.0436401 6.35287 0.0436401C5.78536 0.0436401 5.24842 0.145532 4.74203 0.349316C4.23565 0.553099 3.78237 0.835486 3.38221 1.19648C2.98204 1.55747 2.65609 1.97813 2.40435 2.45848C2.1526 2.93883 1.99618 3.45557 1.93506 4.00869C2.03983 3.98832 2.16279 3.97449 2.30394 3.96721C2.44509 3.95993 2.57387 3.96357 2.69028 3.97813C2.7514 3.52689 2.88673 3.10695 3.09627 2.71831C3.30581 2.32966 3.57501 1.99123 3.90388 1.70302C4.23274 1.41482 4.60525 1.18993 5.02142 1.02835C5.4376 0.866781 5.88141 0.785995 6.35287 0.785995C6.86802 0.785995 7.34969 0.881337 7.79787 1.07202C8.24606 1.26271 8.64039 1.52835 8.98087 1.86896C9.32138 2.20958 9.58769 2.60404 9.77979 3.05237C9.97186 3.50069 10.0679 3.9825 10.0679 4.49778C10.0679 4.97812 9.9835 5.43081 9.8147 5.85585C9.64591 6.28089 9.41162 6.65643 9.11185 6.98247C8.96925 6.81363 8.76553 6.65278 8.50068 6.49994C8.23586 6.3471 7.92156 6.22266 7.55778 6.12661C7.19399 6.03053 6.79236 5.98249 6.35287 5.98249C6.14334 5.98249 5.94254 5.99486 5.75047 6.0196C5.5584 6.04434 5.3765 6.07709 5.20479 6.11784C5.25718 6.32747 5.28337 6.54727 5.28337 6.77723C5.28337 7.11784 5.22444 7.44245 5.10658 7.75105C4.98871 8.05962 4.825 8.33764 4.61544 8.5851C4.8832 8.70154 5.16405 8.79179 5.45798 8.85585C5.75191 8.91989 6.05167 8.9519 6.35725 8.9519ZM6.35287 5.24016C6.63226 5.24305 6.88474 5.17244 7.11031 5.02834C7.33585 4.88423 7.51555 4.68773 7.64942 4.43883C7.78331 4.18992 7.85026 3.90826 7.85026 3.59385C7.85026 3.29982 7.78331 3.03053 7.64942 2.78599C7.51555 2.54145 7.33585 2.3464 7.11031 2.20084C6.88474 2.05528 6.63226 1.9825 6.35287 1.9825C6.07348 1.9825 5.82029 2.05528 5.59329 2.20084C5.3663 2.3464 5.18586 2.54145 5.052 2.78599C4.91813 3.03053 4.85264 3.29982 4.85553 3.59385C4.85553 3.90535 4.92248 4.18482 5.05638 4.43228C5.19024 4.67973 5.36995 4.87551 5.59548 5.01962C5.82102 5.16372 6.07348 5.23724 6.35287 5.24016Z" fill="white"/>
<path d="M4.23589 5.29572L2.4488 7.52361C2.3363 7.66385 2.12528 7.67082 2.00378 7.53831L1.23209 6.6967" stroke="white" stroke-width="0.8" stroke-linecap="round"/>
</svg>
