<svg width="12" height="10" viewBox="0 0 12 10" fill="none" xmlns="http://www.w3.org/2000/svg">
<g id="Group">
<path id="Vector" d="M6.921 8.96295C7.52944 8.96295 8.10222 8.84651 8.63935 8.61363C9.17645 8.38072 9.65025 8.05903 10.0607 7.64857C10.4712 7.23807 10.7929 6.76428 11.0258 6.22718C11.2587 5.69005 11.3751 5.11726 11.3751 4.50883C11.3751 3.90039 11.258 3.32761 11.0236 2.79049C10.7893 2.25337 10.4669 1.77957 10.0564 1.3691C9.6459 0.958617 9.1721 0.636929 8.63497 0.404032C8.09787 0.171136 7.52509 0.0546875 6.91662 0.0546875C6.34894 0.0546875 5.81182 0.15658 5.30528 0.360364C4.79874 0.564147 4.34532 0.846533 3.94503 1.20752C3.54474 1.56851 3.21869 1.98918 2.96687 2.46953C2.71505 2.94988 2.55857 3.46662 2.49744 4.01974C2.60224 3.99936 2.72524 3.98554 2.86643 3.97826C3.00763 3.97098 3.13645 3.97462 3.25289 3.98917C3.31403 3.53794 3.4494 3.118 3.65901 2.72935C3.86861 2.34071 4.1379 2.00228 4.46687 1.71407C4.79583 1.42586 5.16846 1.20097 5.58475 1.0394C6.00106 0.877828 6.44502 0.797043 6.91662 0.797043C7.43193 0.797043 7.91374 0.892385 8.36207 1.08307C8.81039 1.27375 9.20485 1.5394 9.54543 1.88001C9.88605 2.22062 10.1524 2.61509 10.3446 3.06341C10.5367 3.51174 10.6328 3.99354 10.6328 4.50883C10.6328 4.98917 10.5484 5.44186 10.3795 5.8669C10.2107 6.29194 9.97632 6.66748 9.67645 6.99352C9.53381 6.82467 9.33002 6.66383 9.06509 6.51099C8.8002 6.35815 8.4858 6.23371 8.1219 6.13765C7.758 6.04157 7.35624 5.99354 6.91662 5.99354C6.70702 5.99354 6.50616 6.00591 6.31403 6.03065C6.1219 6.05539 5.93995 6.08814 5.76818 6.12889C5.82059 6.33852 5.84679 6.55831 5.84679 6.78827C5.84679 7.12889 5.78784 7.4535 5.66994 7.7621C5.55204 8.07067 5.38827 8.34869 5.17865 8.59614C5.44649 8.71258 5.72743 8.80284 6.02145 8.8669C6.31547 8.93093 6.61532 8.96295 6.921 8.96295ZM6.91662 5.2512C7.1961 5.2541 7.44865 5.18349 7.67429 5.03938C7.8999 4.89528 8.07966 4.69878 8.21357 4.44987C8.34751 4.20097 8.41448 3.91931 8.41448 3.6049C8.41448 3.31087 8.34751 3.04158 8.21357 2.79704C8.07966 2.5525 7.8999 2.35745 7.67429 2.21189C7.44865 2.06633 7.1961 1.99355 6.91662 1.99355C6.63715 1.99355 6.38387 2.06633 6.15681 2.21189C5.92974 2.35745 5.74925 2.5525 5.61534 2.79704C5.48143 3.04158 5.41592 3.31087 5.41881 3.6049C5.41881 3.9164 5.48578 4.19587 5.61972 4.44332C5.75363 4.69078 5.93339 4.88656 6.159 5.03066C6.3846 5.17477 6.63715 5.24828 6.91662 5.2512Z" fill="white"/>
<path id="Vector_2" d="M3.0301 9.01102C3.32996 9.01102 3.6138 8.95279 3.88163 8.83632C4.14946 8.71988 4.38599 8.55976 4.59124 8.35598C4.79647 8.15219 4.95732 7.91639 5.07377 7.64857C5.19022 7.38072 5.24844 7.09542 5.24844 6.79266C5.24844 6.48698 5.19094 6.20023 5.07595 5.93241C4.96096 5.66459 4.80157 5.42879 4.59779 5.225C4.394 5.02122 4.15819 4.86182 3.89036 4.74681C3.62253 4.63183 3.33578 4.57434 3.0301 4.57434C2.72734 4.57434 2.44204 4.63183 2.17421 4.74681C1.90638 4.86182 1.67057 5.02193 1.46679 5.22715C1.263 5.4324 1.10289 5.66821 0.98644 5.9346C0.869992 6.20096 0.811768 6.48698 0.811768 6.79266C0.811768 7.09834 0.869992 7.38509 0.98644 7.65291C1.10289 7.92076 1.263 8.15657 1.46679 8.36036C1.67057 8.56415 1.90638 8.72353 2.17421 8.83851C2.44204 8.95352 2.72734 9.01102 3.0301 9.01102Z" fill="#FF3B30"/>
<path id="Vector_3" d="M1.90785 7.05905C1.83507 7.05905 1.77248 7.03213 1.72008 6.9783C1.66768 6.92443 1.64148 6.86256 1.64148 6.79268C1.64148 6.7228 1.66768 6.66095 1.72008 6.60711C1.77248 6.55324 1.83507 6.52631 1.90785 6.52631H4.15239C4.22517 6.52631 4.28849 6.55324 4.34235 6.60711C4.3962 6.66095 4.42313 6.7228 4.42313 6.79268C4.42313 6.86256 4.3962 6.92443 4.34235 6.9783C4.28849 7.03213 4.22517 7.05905 4.15239 7.05905H1.90785Z" fill="white"/>
</g>
</svg>
