<svg width="12" height="12" viewBox="0 0 12 12" fill="none" xmlns="http://www.w3.org/2000/svg">
<g id="Group">
<path id="Vector" d="M4.09561 8.51846L3.32453 8.80412C3.26342 8.82568 3.2077 8.81311 3.15737 8.76642C3.10704 8.7197 3.09806 8.66221 3.13041 8.59396L3.44316 7.85559L7.07748 4.22842L7.73532 4.88594L4.09561 8.51846ZM8.0696 4.55718L7.41176 3.89427L7.82157 3.49005C7.91146 3.40382 8.00492 3.35711 8.10195 3.34992C8.19902 3.34274 8.2907 3.38046 8.37698 3.4631L8.501 3.59245C8.58728 3.67509 8.62772 3.76582 8.6223 3.86462C8.61693 3.96343 8.5693 4.05955 8.47941 4.15296L8.0696 4.55718Z" fill="white"/>
</g>
</svg>
