<svg width="20" height="19" viewBox="0 0 20 19" fill="none" xmlns="http://www.w3.org/2000/svg">
<g clip-path="url(#clip0_1_2639)">
<path fill-rule="evenodd" clip-rule="evenodd" d="M10.0496 0C4.79201 0 0.541748 4.28159 0.541748 9.57851C0.541748 13.8126 3.26504 17.3967 7.04296 18.6652C7.5153 18.7606 7.68831 18.4591 7.68831 18.2055C7.68831 17.9835 7.67274 17.2223 7.67274 16.4293C5.02788 17.0003 4.47712 15.2874 4.47712 15.2874C4.05207 14.1773 3.42229 13.892 3.42229 13.892C2.55663 13.3052 3.48534 13.3052 3.48534 13.3052C4.44559 13.3687 4.94945 14.2885 4.94945 14.2885C5.79935 15.7473 7.16888 15.3351 7.71984 15.0813C7.79846 14.4628 8.05049 14.0347 8.31809 13.7969C6.20863 13.5748 3.98921 12.7502 3.98921 9.07094C3.98921 8.02429 4.36677 7.16797 4.96502 6.50199C4.87063 6.26417 4.53998 5.28076 5.05961 3.96456C5.05961 3.96456 5.86241 3.71078 7.67255 4.94777C8.44753 4.7381 9.24676 4.63144 10.0496 4.63054C10.8524 4.63054 11.6708 4.74167 12.4265 4.94777C14.2368 3.71078 15.0396 3.96456 15.0396 3.96456C15.5592 5.28076 15.2284 6.26417 15.134 6.50199C15.748 7.16797 16.11 8.02429 16.11 9.07094C16.11 12.7502 13.8906 13.5588 11.7654 13.7969C12.1118 14.0981 12.4107 14.6689 12.4107 15.5729C12.4107 16.8574 12.3951 17.8883 12.3951 18.2053C12.3951 18.4591 12.5684 18.7606 13.0405 18.6654C16.8184 17.3965 19.5417 13.8126 19.5417 9.57851C19.5573 4.28159 15.2914 0 10.0496 0Z" fill="#007BFE"/>
</g>
<defs>
<clipPath id="clip0_1_2639">
<rect width="19" height="19" fill="white" transform="translate(0.541748)"/>
</clipPath>
</defs>
</svg>
