<svg width="13" height="10" viewBox="0 0 13 10" fill="none" xmlns="http://www.w3.org/2000/svg">
<path d="M7.62267 9.67773C8.28024 9.67773 8.89927 9.55185 9.47977 9.30009C10.0602 9.04829 10.5723 8.70052 11.0159 8.25678C11.4595 7.813 11.8072 7.30079 12.0589 6.72014C12.3106 6.13946 12.4364 5.52024 12.4364 4.86247C12.4364 4.20469 12.3098 3.58547 12.0565 3.0048C11.8033 2.42414 11.4548 1.91192 11.0112 1.46816C10.5676 1.0244 10.0555 0.67663 9.47503 0.424849C8.89457 0.17307 8.27553 0.0471802 7.61794 0.0471802C7.00441 0.0471802 6.42393 0.157334 5.87648 0.377641C5.32904 0.597947 4.83901 0.903229 4.4064 1.29349C3.97379 1.68375 3.62141 2.13853 3.34926 2.65782C3.0771 3.17712 2.90799 3.73575 2.84192 4.33373C2.95518 4.31169 3.08811 4.29675 3.24071 4.28888C3.3933 4.28101 3.53253 4.28495 3.65837 4.30068C3.72445 3.81286 3.87075 3.35887 4.09728 2.93871C4.32381 2.51855 4.61484 2.15269 4.97037 1.84111C5.3259 1.52953 5.72862 1.28641 6.17852 1.11173C6.62845 0.937062 7.10825 0.849726 7.61794 0.849726C8.17485 0.849726 8.69557 0.952799 9.1801 1.15894C9.66462 1.36509 10.0909 1.65228 10.459 2.0205C10.8271 2.38873 11.115 2.81518 11.3227 3.29986C11.5304 3.78453 11.6342 4.3054 11.6342 4.86247C11.6342 5.38175 11.5429 5.87115 11.3605 6.33065C11.178 6.79016 10.9247 7.19615 10.6006 7.54862C10.4464 7.36608 10.2262 7.1922 9.93989 7.02697C9.6536 6.86173 9.31382 6.7272 8.92053 6.62336C8.52725 6.51949 8.09305 6.46756 7.61794 6.46756C7.39141 6.46756 7.17433 6.48093 6.96668 6.50768C6.75904 6.53443 6.5624 6.56983 6.37676 6.61389C6.4334 6.84051 6.46172 7.07813 6.46172 7.32673C6.46172 7.69497 6.39801 8.0459 6.27059 8.37952C6.14317 8.71311 5.96618 9.01366 5.73963 9.28119C6.0291 9.40707 6.33272 9.50464 6.65048 9.5739C6.96825 9.64312 7.29231 9.67773 7.62267 9.67773ZM7.61794 5.66504C7.91998 5.66816 8.19293 5.59183 8.43678 5.43604C8.68061 5.28025 8.87488 5.06782 9.0196 4.79873C9.16436 4.52964 9.23674 4.22515 9.23674 3.88525C9.23674 3.56737 9.16436 3.27625 9.0196 3.01189C8.87488 2.74752 8.68061 2.53665 8.43678 2.37929C8.19293 2.22193 7.91998 2.14324 7.61794 2.14324C7.31589 2.14324 7.04217 2.22193 6.79677 2.37929C6.55137 2.53665 6.3563 2.74752 6.21158 3.01189C6.06686 3.27625 5.99606 3.56737 5.99918 3.88525C5.99918 4.222 6.07156 4.52414 6.21632 4.79165C6.36104 5.05917 6.55531 5.27083 6.79914 5.42662C7.04296 5.5824 7.31589 5.66188 7.61794 5.66504Z" fill="white"/>
<path d="M3.375 4.75C2.85582 4.75 2.34831 4.90395 1.91663 5.19239C1.48495 5.48083 1.1485 5.8908 0.949817 6.37046C0.751137 6.85011 0.699154 7.37791 0.80044 7.88711C0.901726 8.39631 1.15173 8.86404 1.51885 9.23115C1.88596 9.59827 2.35369 9.84827 2.86289 9.94956C3.37209 10.0508 3.89989 9.99886 4.37954 9.80018C4.8592 9.6015 5.26917 9.26505 5.55761 8.83337C5.84605 8.40169 6 7.89418 6 7.375C6 7.03028 5.9321 6.68894 5.80018 6.37046C5.66827 6.05198 5.47491 5.7626 5.23116 5.51884C4.9874 5.27509 4.69802 5.08173 4.37954 4.94982C4.06107 4.8179 3.71972 4.75 3.375 4.75ZM3.375 9.475C2.95966 9.475 2.55365 9.35184 2.2083 9.12109C1.86296 8.89033 1.5938 8.56236 1.43485 8.17863C1.27591 7.79491 1.23432 7.37267 1.31535 6.96531C1.39638 6.55795 1.59639 6.18377 1.89008 5.89008C2.18377 5.59639 2.55795 5.39638 2.96531 5.31535C3.37267 5.23432 3.79491 5.27591 4.17864 5.43485C4.56236 5.5938 4.89034 5.86296 5.12109 6.2083C5.35184 6.55365 5.475 6.95966 5.475 7.375C5.475 7.93195 5.25375 8.4661 4.85992 8.85992C4.4661 9.25375 3.93196 9.475 3.375 9.475ZM4.08638 7.71362C4.13581 7.76305 4.16357 7.8301 4.16357 7.9C4.16357 7.9699 4.13581 8.03694 4.08638 8.08637C4.03695 8.1358 3.9699 8.16357 3.9 8.16357C3.8301 8.16357 3.76306 8.1358 3.71363 8.08637L3.18863 7.56137C3.1643 7.53685 3.14505 7.50776 3.13199 7.47578C3.11892 7.44379 3.1123 7.40955 3.1125 7.375V6.5875C3.1125 6.51788 3.14016 6.45111 3.18939 6.40188C3.23861 6.35266 3.30538 6.325 3.375 6.325C3.44462 6.325 3.51139 6.35266 3.56062 6.40188C3.60984 6.45111 3.6375 6.51788 3.6375 6.5875V7.26737L4.08638 7.71362Z" fill="white"/>
</svg>
