<svg width="20" height="19" viewBox="0 0 20 19" fill="none" xmlns="http://www.w3.org/2000/svg">
<g clip-path="url(#clip0_1_2640)">
<path d="M10.1875 19.0001C11.4852 19.0001 12.7069 18.758 13.8524 18.2739C14.998 17.7897 16.0086 17.121 16.884 16.2677C17.7595 15.4143 18.4457 14.4294 18.9424 13.3128C19.4391 12.1962 19.6875 11.0055 19.6875 9.74066C19.6875 8.47582 19.4391 7.28512 18.9424 6.16854C18.4457 5.05196 17.7595 4.06701 16.884 3.2137C16.0086 2.36038 14.9965 1.69165 13.8478 1.20749C12.6991 0.723339 11.4759 0.481262 10.1782 0.481262C8.88047 0.481262 7.65882 0.723339 6.51323 1.20749C5.36764 1.69165 4.35866 2.36038 3.48627 3.2137C2.61389 4.06701 1.92933 5.05196 1.4326 6.16854C0.935866 7.28512 0.6875 8.47582 0.6875 9.74066C0.6875 11.0055 0.935866 12.1962 1.4326 13.3128C1.92933 14.4294 2.61544 15.4143 3.49093 16.2677C4.36642 17.121 5.37696 17.7897 6.52254 18.2739C7.66813 18.758 8.88978 19.0001 10.1875 19.0001Z" fill="#007AFF"/>
<path d="M10.4016 15.6322C10.1533 15.6322 9.97631 15.5475 9.87076 15.378C9.7652 15.2086 9.66896 14.9907 9.58203 14.7244L8.72517 11.9739C8.6755 11.7923 8.65998 11.6485 8.67861 11.5426C8.69723 11.4367 8.75621 11.3323 8.85556 11.2295L14.332 5.47407C14.4003 5.3954 14.4003 5.32883 14.332 5.27436C14.2637 5.22595 14.1954 5.22897 14.1271 5.28344L8.25948 10.6485C8.14151 10.7453 8.0282 10.7982 7.91954 10.8073C7.81088 10.8164 7.66962 10.7967 7.49576 10.7483L4.58057 9.89496C4.32599 9.81632 4.11644 9.72404 3.95189 9.61814C3.78735 9.51223 3.70508 9.34125 3.70508 9.10522C3.70508 8.91156 3.78114 8.74816 3.93327 8.61502C4.08539 8.48187 4.27012 8.37596 4.48744 8.29729L13.7267 4.8477C13.9812 4.75087 14.1954 4.70245 14.3693 4.70245C14.5369 4.70245 14.6704 4.75087 14.7697 4.8477C14.8691 4.94453 14.9188 5.07767 14.9188 5.24713C14.9188 5.41053 14.8722 5.61629 14.7791 5.86442L11.2585 14.8243C11.1654 15.0724 11.0474 15.2691 10.9046 15.4143C10.7618 15.5596 10.5941 15.6322 10.4016 15.6322Z" fill="black"/>
</g>
<defs>
<clipPath id="clip0_1_2640">
<rect width="19" height="19" fill="white" transform="translate(0.6875)"/>
</clipPath>
</defs>
</svg>
