<svg width="16" height="16" viewBox="0 0 16 16" fill="none" xmlns="http://www.w3.org/2000/svg">
<g id="_Messages-sendIcon">
<rect width="16" height="16" rx="8" fill="#0A84FF"/>
<path id="SF Symbol / arrow.up" d="M8.18835 11.8091C8.51094 11.8091 8.73326 11.5949 8.73326 11.2757V6.29937L8.69403 5.38808L9.72718 6.51354L10.7124 7.45423C10.8126 7.54661 10.9434 7.60961 11.1004 7.60961C11.3968 7.60961 11.6191 7.39963 11.6191 7.10567C11.6191 6.96709 11.5624 6.8369 11.4491 6.72772L8.59377 3.97286C8.48914 3.86787 8.33657 3.80908 8.18835 3.80908C8.04014 3.80908 7.89192 3.86787 7.7873 3.97286L4.93197 6.72772C4.81863 6.8369 4.76196 6.96709 4.76196 7.10567C4.76196 7.39963 4.98429 7.60961 5.28072 7.60961C5.43765 7.60961 5.56843 7.54661 5.66869 7.45423L6.64953 6.51354L7.68268 5.38808L7.6478 6.29937V11.2757C7.6478 11.5949 7.86577 11.8091 8.18835 11.8091Z" fill="white"/>
</g>
</svg>
