<svg width="46" height="16" viewBox="0 0 46 16" fill="none" xmlns="http://www.w3.org/2000/svg">
<path fill-rule="evenodd" clip-rule="evenodd" d="M7.7085 2.67969C8.01264 2.67969 8.30432 2.80854 8.51938 3.03791C8.73444 3.26728 8.85525 3.57837 8.85525 3.90274V7.97959C8.85525 8.30397 8.73444 8.61506 8.51938 8.84442C8.30432 9.07379 8.01264 9.20265 7.7085 9.20265H3.24879L1.97474 10.2219C1.65977 10.4738 1.21024 10.2341 1.21024 9.81418V3.90274C1.21024 3.57837 1.33106 3.26728 1.54612 3.03791C1.76118 2.80854 2.05286 2.67969 2.35699 2.67969H7.7085ZM4.6505 6.34885H3.50375C3.40237 6.34885 3.30514 6.39181 3.23345 6.46826C3.16177 6.54472 3.1215 6.64841 3.1215 6.75654C3.1215 6.86466 3.16177 6.96836 3.23345 7.04481C3.30514 7.12127 3.40237 7.16422 3.50375 7.16422H4.6505C4.75188 7.16422 4.8491 7.12127 4.92079 7.04481C4.99248 6.96836 5.03275 6.86466 5.03275 6.75654C5.03275 6.64841 4.99248 6.54472 4.92079 6.46826C4.8491 6.39181 4.75188 6.34885 4.6505 6.34885ZM6.56175 4.71811H3.50375C3.40632 4.71823 3.31261 4.75802 3.24176 4.82935C3.17092 4.90068 3.12829 4.99817 3.12258 5.10191C3.11687 5.20564 3.14851 5.30778 3.21104 5.38746C3.27358 5.46715 3.36228 5.51836 3.45902 5.53063L3.50375 5.53348H6.56175C6.65918 5.53337 6.75289 5.49358 6.82373 5.42225C6.89458 5.35091 6.93721 5.25342 6.94292 5.14969C6.94863 5.04596 6.91699 4.94382 6.85445 4.86413C6.79192 4.78445 6.70322 4.73324 6.60647 4.72097L6.56175 4.71811Z" fill="url(#paint0_linear_3_4050)"/>
<path d="M12.0649 4.344H13.2996V8.84456H15.53V9.91992H12.0649V4.344ZM15.9971 4.86176C15.9971 4.68121 16.0609 4.53251 16.1883 4.41569C16.3211 4.29886 16.4777 4.24044 16.6583 4.24044C16.8388 4.24044 16.9928 4.29886 17.1203 4.41569C17.2477 4.53251 17.3115 4.68121 17.3115 4.86176C17.3115 5.037 17.2477 5.18304 17.1203 5.29987C16.9928 5.4167 16.8388 5.47511 16.6583 5.47511C16.4777 5.47511 16.3211 5.4167 16.1883 5.29987C16.0609 5.18304 15.9971 5.037 15.9971 4.86176ZM16.1166 6.25574H17.192V9.91992H16.1166V6.25574ZM17.729 6.25574H18.9238L19.7921 8.38256L20.6683 6.25574H21.8631L19.7921 10.3262L17.729 6.25574ZM24.0063 9.99958C23.592 9.99958 23.2336 9.92258 22.9309 9.76858C22.6282 9.60926 22.3919 9.38623 22.222 9.09946C22.0573 8.8127 21.975 8.47549 21.975 8.08783C21.975 7.69486 22.0573 7.355 22.222 7.06823C22.3866 6.78147 22.6202 6.56109 22.9229 6.40709C23.2256 6.25309 23.5841 6.17609 23.9983 6.17609C24.4125 6.17609 24.763 6.25043 25.0497 6.39912C25.3418 6.5425 25.5622 6.75226 25.7109 7.02841C25.8649 7.30455 25.9419 7.6391 25.9419 8.03207C25.9419 8.09049 25.9392 8.14625 25.9339 8.19935C25.9339 8.25245 25.9313 8.29494 25.926 8.3268H22.6123V7.68159H24.9303L24.6515 8.048C24.678 8.01083 24.6993 7.96569 24.7152 7.91259C24.7364 7.85417 24.7471 7.80638 24.7471 7.76921C24.7471 7.59927 24.7152 7.45324 24.6515 7.3311C24.5877 7.20896 24.4975 7.11337 24.3806 7.04434C24.2691 6.9753 24.1364 6.94078 23.9824 6.94078C23.7912 6.94078 23.6292 6.98327 23.4965 7.06823C23.369 7.1532 23.2708 7.27799 23.2017 7.44262C23.138 7.60724 23.1035 7.817 23.0982 8.0719C23.0982 8.30556 23.1327 8.5047 23.2017 8.66932C23.2708 8.83394 23.3717 8.95874 23.5044 9.0437C23.6425 9.12867 23.8071 9.17115 23.9983 9.17115C24.2213 9.17115 24.4098 9.13133 24.5638 9.05167C24.7232 8.9667 24.8506 8.83925 24.9462 8.66932L25.9339 8.94015C25.7428 9.29595 25.4852 9.56147 25.1613 9.73671C24.8426 9.91196 24.4576 9.99958 24.0063 9.99958ZM30.2294 7.13196C30.2294 7.48776 30.3091 7.79576 30.4684 8.05597C30.6277 8.31087 30.8375 8.51001 31.0977 8.65339C31.3632 8.79146 31.6526 8.8605 31.966 8.8605C32.2315 8.8605 32.4651 8.82598 32.6669 8.75694C32.874 8.68791 33.0572 8.59763 33.2166 8.48611C33.3812 8.36928 33.5246 8.24183 33.6467 8.10376V9.46588C33.4237 9.64644 33.1767 9.78716 32.9059 9.88806C32.6404 9.98896 32.3032 10.0394 31.8943 10.0394C31.4588 10.0394 31.0552 9.97037 30.6835 9.8323C30.3171 9.69423 29.9984 9.49509 29.7276 9.23488C29.4621 8.97467 29.255 8.66667 29.1063 8.31087C28.9576 7.95507 28.8833 7.5621 28.8833 7.13196C28.8833 6.70182 28.9576 6.30885 29.1063 5.95305C29.255 5.59725 29.4621 5.28925 29.7276 5.02904C29.9984 4.76883 30.3171 4.56969 30.6835 4.43162C31.0552 4.29355 31.4588 4.22451 31.8943 4.22451C32.3032 4.22451 32.6404 4.27496 32.9059 4.37586C33.1767 4.47676 33.4237 4.61748 33.6467 4.79804V6.16015C33.5246 6.02208 33.3812 5.89729 33.2166 5.78577C33.0572 5.66894 32.874 5.57601 32.6669 5.50697C32.4651 5.43794 32.2315 5.40342 31.966 5.40342C31.6526 5.40342 31.3632 5.47511 31.0977 5.61849C30.8375 5.75656 30.6277 5.9557 30.4684 6.21591C30.3091 6.47081 30.2294 6.77616 30.2294 7.13196ZM35.7754 3.70675V9.91992H34.6603V3.70675H35.7754ZM37.034 7.68955C37.034 7.4612 36.9889 7.28596 36.8986 7.16382C36.8136 7.04168 36.6676 6.98061 36.4605 6.98061C36.3224 6.98061 36.2003 7.00982 36.0941 7.06823C35.9932 7.12134 35.9135 7.20099 35.8551 7.3072C35.802 7.41341 35.7754 7.54086 35.7754 7.68955H35.5683C35.5683 7.39748 35.6161 7.13461 35.7117 6.90096C35.8126 6.6673 35.9587 6.48143 36.1498 6.34336C36.3463 6.19998 36.5932 6.12829 36.8906 6.12829C37.1827 6.12829 37.4217 6.1814 37.6075 6.2876C37.7934 6.39381 37.9288 6.55047 38.0138 6.75757C38.1041 6.96468 38.1492 7.22224 38.1492 7.53024V9.91992H37.034V7.68955ZM39.9538 8.77287C39.9538 8.87908 39.9777 8.96936 40.0255 9.0437C40.0733 9.11274 40.1396 9.16584 40.2246 9.20302C40.3149 9.24019 40.4131 9.25878 40.5193 9.25878C40.668 9.25878 40.8034 9.22691 40.9256 9.16319C41.0477 9.09946 41.146 9.00919 41.2203 8.89236C41.3 8.77022 41.3398 8.62153 41.3398 8.44628L41.4672 8.92422C41.4672 9.15788 41.4035 9.35436 41.2761 9.51368C41.1486 9.67299 40.9813 9.79513 40.7742 9.88009C40.5724 9.95975 40.3574 9.99958 40.129 9.99958C39.8954 9.99958 39.6803 9.95709 39.4838 9.87213C39.2873 9.78185 39.128 9.64909 39.0059 9.47385C38.889 9.2986 38.8306 9.08619 38.8306 8.8366C38.8306 8.48611 38.9554 8.20732 39.205 8.00021C39.4546 7.7931 39.8077 7.68955 40.2644 7.68955C40.4928 7.68955 40.6946 7.71345 40.8698 7.76124C41.0504 7.80372 41.2017 7.85948 41.3239 7.92852C41.4513 7.99224 41.5442 8.05597 41.6027 8.11969V8.62949C41.4646 8.5286 41.3079 8.45159 41.1327 8.39849C40.9628 8.34539 40.7822 8.31883 40.591 8.31883C40.4423 8.31883 40.3202 8.33742 40.2246 8.37459C40.129 8.41177 40.06 8.46487 40.0175 8.53391C39.975 8.59763 39.9538 8.67729 39.9538 8.77287ZM39.4838 7.3311L39.0935 6.58233C39.29 6.48143 39.5289 6.38585 39.8104 6.29557C40.0972 6.19998 40.4131 6.15219 40.7583 6.15219C41.0769 6.15219 41.361 6.19998 41.6106 6.29557C41.8602 6.38585 42.0567 6.51861 42.2001 6.69385C42.3435 6.86909 42.4151 7.08151 42.4151 7.3311V9.91992H41.3398V7.57007C41.3398 7.47448 41.3239 7.39217 41.292 7.32313C41.2601 7.2541 41.2123 7.19568 41.1486 7.14789C41.0902 7.1001 41.0159 7.06558 40.9256 7.04434C40.8353 7.0231 40.7344 7.01247 40.6229 7.01247C40.4583 7.01247 40.299 7.03106 40.145 7.06823C39.9909 7.10541 39.8555 7.15055 39.7387 7.20365C39.6219 7.25675 39.5369 7.29924 39.4838 7.3311ZM42.8875 6.25574H45.2373V7.18772H42.8875V6.25574ZM43.5247 4.98124H44.6001V9.91992H43.5247V4.98124Z" fill="white"/>
<defs>
<linearGradient id="paint0_linear_3_4050" x1="5.03275" y1="2.67969" x2="5.03275" y2="10.3247" gradientUnits="userSpaceOnUse">
<stop stop-color="#1ECCF8" stop-opacity="0.83"/>
<stop offset="1" stop-color="#0064FB"/>
</linearGradient>
</defs>
</svg>
