<svg width="11" height="11" viewBox="0 0 11 11" fill="none" xmlns="http://www.w3.org/2000/svg">
<rect x="0.623505" y="0.112305" width="10.2901" height="10.2901" rx="5.14503" fill="#00C2FF"/>
<path d="M8.44896 2.96103L7.77815 7.31321C7.77059 7.36386 7.75151 7.41211 7.7224 7.45424C7.69329 7.49638 7.65491 7.53128 7.61021 7.55627C7.56551 7.58126 7.51568 7.59567 7.46454 7.59841C7.4134 7.60114 7.36232 7.59211 7.31521 7.57203L6.0324 7.03587L5.49909 7.83547C5.48097 7.8679 5.4545 7.89488 5.42242 7.91361C5.39034 7.93234 5.35383 7.94213 5.31669 7.94196C5.25886 7.94196 5.2034 7.91899 5.16251 7.87809C5.12161 7.83719 5.09864 7.78173 5.09864 7.72389V6.71594C5.09839 6.6414 5.12299 6.5689 5.16855 6.50991L7.44622 3.58098L4.36766 6.35203L3.29224 5.90477C3.23266 5.87994 3.18147 5.8385 3.14478 5.78539C3.10809 5.73228 3.08744 5.66973 3.0853 5.60521C3.08003 5.54244 3.09317 5.4795 3.12309 5.42408C3.15302 5.36866 3.19845 5.32316 3.25382 5.29315L7.95129 2.61748C8.00605 2.58616 8.06854 2.57092 8.13156 2.57353C8.19459 2.57613 8.25561 2.59648 8.30759 2.63222C8.35958 2.66796 8.40042 2.71764 8.42543 2.77557C8.45043 2.83349 8.45859 2.89729 8.44896 2.95964V2.96103Z" fill="white"/>
</svg>
