<svg width="13" height="11" viewBox="0 0 13 11" fill="none" xmlns="http://www.w3.org/2000/svg">
<g id="Group">
<path id="Vector" d="M2.13809 8.37761L2.28181 8.95246C2.37442 9.32612 2.52691 9.60794 2.73928 9.79794C2.95165 9.98797 3.25584 10.083 3.65184 10.083H8.81103C9.20702 10.083 9.512 9.98878 9.72597 9.80035C9.93994 9.61192 10.0932 9.32929 10.1858 8.95246L10.3296 8.37761H2.13809ZM1.98001 7.72133H10.4924L11.393 4.03278L11.0002 3.80763L8.79185 5.41718C8.71202 5.47467 8.64256 5.49622 8.58347 5.48185C8.52441 5.46748 8.47253 5.42676 8.42783 5.3597L6.34881 2.21724L6.11885 2.20766L4.0207 5.37407C3.97918 5.43475 3.93207 5.47227 3.87938 5.48665C3.82669 5.50102 3.76042 5.47946 3.68058 5.42197L1.51535 3.84116L1.05548 3.96092L1.98001 7.72133ZM1.23272 4.99084C1.4435 4.99084 1.63511 4.93895 1.80756 4.83516C1.98001 4.73137 2.11733 4.59325 2.21953 4.42079C2.32172 4.24834 2.37282 4.05513 2.37282 3.84116C2.37282 3.63358 2.32172 3.44357 2.21953 3.27111C2.11733 3.09866 1.98001 2.96054 1.80756 2.85675C1.63511 2.75296 1.4435 2.70106 1.23272 2.70106C1.02194 2.70106 0.829533 2.75296 0.655486 2.85675C0.481436 2.96054 0.343314 3.09866 0.24112 3.27111C0.138927 3.44357 0.0878296 3.63358 0.0878296 3.84116C0.0878296 4.05513 0.139725 4.24834 0.243516 4.42079C0.347306 4.59325 0.486226 4.73137 0.660274 4.83516C0.834324 4.93895 1.02514 4.99084 1.23272 4.99084ZM6.23383 2.99806C6.44142 2.99806 6.63224 2.94697 6.80628 2.84477C6.98032 2.74258 7.11844 2.60446 7.22063 2.43041C7.32283 2.25636 7.37392 2.06395 7.37392 1.85317C7.37392 1.64559 7.32283 1.45557 7.22063 1.28312C7.11844 1.11067 6.98032 0.97255 6.80628 0.86876C6.63224 0.764969 6.44142 0.713074 6.23383 0.713074C6.02307 0.713074 5.83065 0.764171 5.65658 0.866364C5.48254 0.968558 5.34442 1.10588 5.24222 1.27833C5.14003 1.45079 5.08893 1.6424 5.08893 1.85317C5.08893 2.06395 5.14003 2.25636 5.24222 2.43041C5.34442 2.60446 5.48254 2.74258 5.65658 2.84477C5.83065 2.94697 6.02307 2.99806 6.23383 2.99806ZM11.2301 4.99084C11.4377 4.99084 11.6285 4.93895 11.8026 4.83516C11.9767 4.73137 12.1156 4.59325 12.2193 4.42079C12.3231 4.24834 12.375 4.05513 12.375 3.84116C12.375 3.63358 12.3239 3.44357 12.2217 3.27111C12.1195 3.09866 11.9814 2.96054 11.8074 2.85675C11.6333 2.75296 11.4409 2.70106 11.2301 2.70106C11.0194 2.70106 10.8278 2.75296 10.6553 2.85675C10.4829 2.96054 10.3455 3.09866 10.2433 3.27111C10.1411 3.44357 10.09 3.63358 10.09 3.84116C10.09 4.05513 10.1411 4.24834 10.2433 4.42079C10.3455 4.59325 10.4829 4.73137 10.6553 4.83516C10.8278 4.93895 11.0194 4.99084 11.2301 4.99084Z" fill="white"/>
</g>
</svg>
