<svg width="8" height="10" viewBox="0 0 8 10" fill="none" xmlns="http://www.w3.org/2000/svg">
<path d="M0.0811277 6.11876V2.62621C0.0811277 2.14684 0.291137 1.99161 0.674634 1.83182C1.21335 1.61268 2.95735 0.950695 3.49607 0.795471C3.61477 0.763513 3.74717 0.726989 3.875 0.726989C4.00283 0.726989 4.13523 0.754382 4.2585 0.795471C4.79722 0.982654 6.53665 1.60812 7.07537 1.83182C7.46343 1.99618 7.66887 2.14684 7.66887 2.62621V6.11876C7.66887 7.78514 6.77861 8.40148 4.18088 9.85785C4.06675 9.92177 3.94805 9.94916 3.875 9.94916C3.80195 9.94916 3.68782 9.92177 3.56912 9.85785C0.975952 8.39691 0.0811277 7.78514 0.0811277 6.11876ZM3.97087 9.10455C4.02566 9.09086 4.08958 9.0589 4.15806 9.01324C6.26729 7.73036 6.94297 7.36056 6.94297 5.94984V2.76774C6.94297 2.61251 6.91558 2.5486 6.79231 2.50294C6.08467 2.26097 4.747 1.77704 4.05762 1.50311C4.02109 1.48942 3.9937 1.48029 3.97087 1.47572V9.10455Z" fill="white"/>
</svg>
