<svg width="18" height="22" viewBox="0 0 18 22" fill="none" xmlns="http://www.w3.org/2000/svg">
<path d="M17.6035 16.7053C17.2854 17.4402 16.9088 18.1167 16.4726 18.7386C15.8779 19.5864 15.391 20.1733 15.0158 20.4992C14.4341 21.0341 13.8109 21.3081 13.1435 21.3237C12.6644 21.3237 12.0866 21.1873 11.414 20.9108C10.7393 20.6355 10.1192 20.4992 9.55214 20.4992C8.95748 20.4992 8.31971 20.6355 7.63754 20.9108C6.95432 21.1873 6.40393 21.3315 5.98312 21.3457C5.34315 21.373 4.70525 21.0913 4.06852 20.4992C3.66212 20.1447 3.1538 19.5371 2.54485 18.6763C1.8915 17.757 1.35436 16.691 0.93355 15.4757C0.482878 14.1631 0.256958 12.8919 0.256958 11.6613C0.256958 10.2517 0.561561 9.03584 1.17167 8.01699C1.65117 7.19862 2.28907 6.55306 3.08745 6.07914C3.88583 5.60523 4.74848 5.36373 5.67748 5.34828C6.1858 5.34828 6.8524 5.50551 7.68077 5.81453C8.50681 6.12459 9.0372 6.28182 9.26974 6.28182C9.4436 6.28182 10.0328 6.09797 11.0317 5.73143C11.9762 5.39152 12.7735 5.25077 13.4265 5.30621C15.1963 5.44903 16.5258 6.14666 17.41 7.4035C15.8273 8.36249 15.0443 9.70568 15.0599 11.4288C15.0742 12.7709 15.5611 13.8878 16.518 14.7746C16.9517 15.1862 17.436 15.5043 17.9748 15.7302C17.858 16.0691 17.7346 16.3937 17.6035 16.7053ZM13.5447 0.733799C13.5447 1.78577 13.1604 2.76799 12.3943 3.67712C11.4699 4.7579 10.3517 5.38243 9.13912 5.28388C9.12367 5.15768 9.11472 5.02485 9.11472 4.88527C9.11472 3.87538 9.55435 2.7946 10.3351 1.91092C10.7249 1.46349 11.2206 1.09147 11.8217 0.794693C12.4216 0.502348 12.989 0.340674 13.5226 0.312988C13.5382 0.45362 13.5447 0.594261 13.5447 0.733786V0.733799Z" fill="black"/>
</svg>
