<svg width="26" height="26" viewBox="0 0 26 26" fill="none" xmlns="http://www.w3.org/2000/svg">
<g id="edit image">
<g id="Ellipse 310" filter="url(#filter0_b_1_336)">
<circle cx="12.8938" cy="12.8938" r="12.8938" fill="black" fill-opacity="0.41"/>
</g>
<path id="Vector" d="M9.94101 13.1025C9.88538 13.1859 9.86838 13.2663 9.89001 13.3436C9.91165 13.4208 9.97501 13.4594 10.0801 13.4594H10.553C10.6272 13.8767 10.7817 14.2438 11.0166 14.5606C11.2515 14.8774 11.546 15.1247 11.8999 15.3024C12.2538 15.4801 12.644 15.569 13.0705 15.569C13.3487 15.569 13.6215 15.5226 13.8889 15.4299C14.1562 15.3371 14.3888 15.2104 14.5866 15.0497C14.6917 14.9663 14.7558 14.8712 14.779 14.7646C14.8022 14.6579 14.7736 14.5629 14.6932 14.4795C14.616 14.396 14.5294 14.3574 14.4336 14.3635C14.3378 14.3697 14.2451 14.4052 14.1554 14.4702C13.9916 14.5969 13.8239 14.6943 13.6524 14.7623C13.4808 14.8303 13.2869 14.8643 13.0705 14.8643C12.7707 14.8643 12.4941 14.8024 12.2406 14.6788C11.9872 14.5552 11.7716 14.3883 11.5939 14.1781C11.4161 13.9679 11.2933 13.7283 11.2253 13.4594H11.7028C11.8079 13.4594 11.8728 13.42 11.8975 13.3412C11.9223 13.2624 11.9053 13.1828 11.8465 13.1025L11.114 12.0917C11.0553 12.0083 10.9811 11.965 10.8915 11.9619C10.8018 11.9588 10.7246 12.0021 10.6596 12.0917L9.94101 13.1025ZM11.4385 11.6235C11.5158 11.7069 11.6024 11.7463 11.6982 11.7417C11.794 11.7371 11.8852 11.7007 11.9717 11.6327C12.1325 11.5029 12.2994 11.4056 12.4725 11.3407C12.6455 11.2758 12.8418 11.2433 13.0613 11.2433C13.358 11.2433 13.6331 11.3043 13.8865 11.4264C14.14 11.5485 14.3555 11.7154 14.5333 11.9272C14.711 12.1389 14.8339 12.3776 14.9019 12.6435H14.3965C14.2945 12.6435 14.2311 12.6829 14.2064 12.7617C14.1817 12.8405 14.1987 12.9201 14.2574 13.0005L14.9853 14.0158C15.0471 14.0993 15.1229 14.1425 15.2125 14.1456C15.3021 14.1487 15.3794 14.1054 15.4443 14.0158L16.163 13.0005C16.2186 12.9201 16.2348 12.8405 16.2116 12.7617C16.1884 12.6829 16.1259 12.6435 16.0239 12.6435H15.5742C15.5 12.2293 15.3454 11.8638 15.1105 11.547C14.8756 11.2302 14.582 10.9821 14.2296 10.8028C13.8772 10.6236 13.4878 10.5339 13.0613 10.5339C12.78 10.5339 12.5057 10.5803 12.2383 10.673C11.9709 10.7658 11.7399 10.894 11.5452 11.0578C11.4401 11.1413 11.376 11.2356 11.3528 11.3407C11.3296 11.4457 11.3582 11.54 11.4385 11.6235ZM8.82366 17.1917H17.2989C17.781 17.1917 18.1442 17.0719 18.3884 16.8324C18.6326 16.5928 18.7547 16.2335 18.7547 15.7544V10.9002C18.7547 10.4242 18.6326 10.0664 18.3884 9.8269C18.1442 9.58736 17.781 9.46759 17.2989 9.46759H15.9729C15.8492 9.46759 15.7503 9.45832 15.6761 9.43977C15.6019 9.42122 15.5363 9.38954 15.4791 9.34473C15.4219 9.29991 15.3578 9.23886 15.2867 9.16159L14.9158 8.74432C14.8014 8.6176 14.6747 8.52023 14.5356 8.45223C14.3965 8.38423 14.208 8.35023 13.9699 8.35023H12.1201C11.8821 8.35023 11.6943 8.38423 11.5568 8.45223C11.4192 8.52023 11.2917 8.6176 11.1743 8.74432L10.8034 9.16159C10.7014 9.27595 10.6071 9.35554 10.5206 9.40036C10.434 9.44518 10.2996 9.46759 10.1172 9.46759H8.82366C8.33839 9.46759 7.97444 9.58736 7.73181 9.8269C7.48918 10.0664 7.36786 10.4242 7.36786 10.9002V15.7544C7.36786 16.2335 7.48918 16.5928 7.73181 16.8324C7.97444 17.0719 8.33839 17.1917 8.82366 17.1917ZM8.83294 16.4453C8.60421 16.4453 8.42726 16.3842 8.30207 16.2621C8.1769 16.14 8.11431 15.9584 8.11431 15.7174V10.9419C8.11431 10.7008 8.1769 10.5193 8.30207 10.3972C8.42726 10.2751 8.60421 10.214 8.83294 10.214H10.3026C10.5128 10.214 10.6821 10.1901 10.8103 10.1422C10.9386 10.0943 11.0615 10.0054 11.1789 9.87558L11.5405 9.46759C11.6734 9.31923 11.7909 9.22032 11.8929 9.17086C11.9949 9.12141 12.1479 9.09668 12.3519 9.09668H13.7382C13.9422 9.09668 14.0952 9.12141 14.1972 9.17086C14.2991 9.22032 14.4166 9.31923 14.5495 9.46759L14.9112 9.87558C15.0286 10.0054 15.1515 10.0943 15.2797 10.1422C15.408 10.1901 15.5772 10.214 15.7874 10.214H17.285C17.5137 10.214 17.6914 10.2751 17.8181 10.3972C17.9448 10.5193 18.0082 10.7008 18.0082 10.9419V15.7174C18.0082 15.9584 17.9448 16.14 17.8181 16.2621C17.6914 16.3842 17.5137 16.4453 17.285 16.4453H8.83294Z" fill="white" fill-opacity="0.92"/>
</g>
<defs>
<filter id="filter0_b_1_336" x="-0.982381" y="-0.982381" width="27.7523" height="27.7523" filterUnits="userSpaceOnUse" color-interpolation-filters="sRGB">
<feFlood flood-opacity="0" result="BackgroundImageFix"/>
<feGaussianBlur in="BackgroundImageFix" stdDeviation="0.491191"/>
<feComposite in2="SourceAlpha" operator="in" result="effect1_backgroundBlur_1_336"/>
<feBlend mode="normal" in="SourceGraphic" in2="effect1_backgroundBlur_1_336" result="shape"/>
</filter>
</defs>
</svg>
