<svg width="222" height="208" viewBox="0 0 222 208" fill="none" xmlns="http://www.w3.org/2000/svg">
<path id="Ellipse 12" d="M221.407 99.0893C221.407 126.166 207.13 160.197 187.724 182.704C178.021 193.957 167.051 202.312 155.963 205.486C144.888 208.657 133.681 206.664 123.465 197.194C113.181 187.662 99.3518 180.216 84.6864 173.545C77.9109 170.463 70.9533 167.545 64.0816 164.663C63.5155 164.425 62.95 164.188 62.3852 163.951C54.9636 160.836 47.6685 157.752 40.8334 154.532C27.1583 148.091 15.3492 141.122 8.06485 132.323C0.792421 123.539 -1.9775 112.922 2.44342 99.1432C6.8742 85.3337 13.2004 75.8631 20.948 68.7372C28.6984 61.6088 37.8796 56.8189 48.0354 52.3822C51.5422 50.8502 55.165 49.3606 58.884 47.8314C76.6988 40.5063 96.7208 32.2737 116.775 14.1298C128.848 3.20769 141.408 -0.321122 153.458 1.35586C165.515 3.03388 177.085 9.92755 187.157 19.8945C207.304 39.8316 221.407 72.0134 221.407 99.0893Z" stroke="url(#paint0_linear_1_175)" stroke-width="0.352613"/>
<defs>
<linearGradient id="paint0_linear_1_175" x1="110.863" y1="0.783081" x2="110.863" y2="207.062" gradientUnits="userSpaceOnUse">
<stop stop-color="#1D9BF0"/>
<stop offset="1" stop-color="#1D9BF0" stop-opacity="0"/>
</linearGradient>
</defs>
</svg>
