<svg width="256" height="239" viewBox="0 0 256 239" fill="none" xmlns="http://www.w3.org/2000/svg">
<path id="Ellipse 13" d="M255.333 114.346C255.333 145.596 238.87 184.869 216.494 210.842C205.306 223.829 192.655 233.473 179.865 237.137C167.087 240.798 154.158 238.497 142.373 227.564C130.52 216.568 114.58 207.978 97.6737 200.281C89.8636 196.725 81.8435 193.358 73.922 190.033C73.2687 189.759 72.616 189.485 71.9641 189.211C63.408 185.618 54.9973 182.058 47.1167 178.343C31.3508 170.911 17.7317 162.868 9.32972 152.71C0.939647 142.567 -2.25554 130.307 2.84402 114.4C7.95342 98.4616 15.2491 87.5298 24.1848 79.3041C33.1233 71.076 43.7113 65.5477 55.4203 60.4281C59.464 58.6601 63.6411 56.9411 67.9289 55.1765C88.4668 46.7245 111.545 37.2272 134.661 16.2955C148.584 3.6882 163.072 -0.386627 176.973 1.54956C190.881 3.48678 204.224 11.4449 215.838 22.9478C239.07 45.9568 255.333 83.0965 255.333 114.346Z" stroke="url(#paint0_linear_1_176)" stroke-width="0.352613"/>
<defs>
<linearGradient id="paint0_linear_1_176" x1="127.863" y1="0.915527" x2="127.863" y2="238.929" gradientUnits="userSpaceOnUse">
<stop stop-color="#1D9BF0"/>
<stop offset="1" stop-color="#1D9BF0" stop-opacity="0"/>
</linearGradient>
</defs>
</svg>
