<svg width="193" height="180" viewBox="0 0 193 180" fill="none" xmlns="http://www.w3.org/2000/svg">
<path id="Ellipse 11" d="M192.598 85.7339C192.598 109.194 180.233 138.682 163.425 158.185C155.022 167.936 145.523 175.172 135.924 177.922C126.338 180.667 116.639 178.942 107.795 170.741C98.8842 162.477 86.9019 156.022 74.1977 150.241C68.3284 147.569 62.3013 145.04 56.3491 142.543C55.8585 142.337 55.3683 142.131 54.8788 141.926C48.4498 139.226 42.1309 136.553 36.2106 133.763C24.3651 128.181 14.1397 122.143 7.83324 114.522C1.53869 106.915 -0.859175 97.7218 2.96799 85.7877C6.805 73.823 12.2829 65.6187 18.991 59.446C25.7018 53.2707 33.652 49.1207 42.4486 45.2759C45.4858 43.9485 48.6236 42.6576 51.8449 41.3325C67.277 34.984 84.6251 27.8473 102.001 12.1197C112.454 2.658 123.327 -0.397533 133.757 1.05479C144.195 2.50814 154.213 8.47923 162.935 17.115C180.384 34.3897 192.598 62.2747 192.598 85.7339Z" stroke="url(#paint0_linear_1_174)" stroke-width="0.352613"/>
<defs>
<linearGradient id="paint0_linear_1_174" x1="96.8634" y1="0.535095" x2="96.8634" y2="179.31" gradientUnits="userSpaceOnUse">
<stop stop-color="#1D9BF0"/>
<stop offset="1" stop-color="#1D9BF0" stop-opacity="0"/>
</linearGradient>
</defs>
</svg>
