<svg width="140" height="130" viewBox="0 0 140 130" fill="none" xmlns="http://www.w3.org/2000/svg">
<path id="Ellipse 9" d="M139.152 61.8904C139.152 78.8585 130.202 100.193 118.035 114.303C111.952 121.358 105.08 126.589 98.1406 128.575C91.2136 130.558 84.2064 129.313 77.814 123.388C71.3541 117.401 62.6698 112.726 53.4675 108.54C49.216 106.606 44.8502 104.775 40.5394 102.968C40.184 102.818 39.8289 102.67 39.4742 102.521C34.8179 100.567 30.2423 98.6321 25.9554 96.6132C17.3769 92.5729 9.97968 88.2059 5.41946 82.6978C0.871188 77.2042 -0.862239 70.5672 1.90459 61.9443C4.68127 53.2907 8.64444 47.3593 13.4961 42.8973C18.3505 38.4328 24.1026 35.4313 30.4722 32.6489C32.6706 31.6885 34.9423 30.7545 37.2748 29.7955C48.4521 25.2001 61.0255 20.0306 73.6167 8.63972C81.1779 1.79934 89.0391 -0.406799 96.5778 0.642303C104.124 1.69244 111.37 6.00767 117.683 12.2542C130.312 24.7503 139.152 44.9231 139.152 61.8904Z" stroke="url(#paint0_linear_1_172)" stroke-width="0.352613"/>
<defs>
<linearGradient id="paint0_linear_1_172" x1="69.8635" y1="0.217896" x2="69.8635" y2="129.627" gradientUnits="userSpaceOnUse">
<stop stop-color="#1D9BF0"/>
<stop offset="1" stop-color="#1D9BF0" stop-opacity="0"/>
</linearGradient>
</defs>
</svg>
