<svg width="168" height="156" viewBox="0 0 168 156" fill="none" xmlns="http://www.w3.org/2000/svg">
<path id="Ellipse 10" d="M167.256 74.2791C167.256 94.6786 156.485 120.323 141.843 137.284C134.523 145.763 126.25 152.054 117.892 154.444C109.547 156.83 101.104 155.331 93.4038 148.203C85.6366 141.012 75.1934 135.397 64.1234 130.368C59.0092 128.044 53.7575 125.844 48.5714 123.672C48.1437 123.493 47.7165 123.314 47.2898 123.135C41.6881 120.787 36.1827 118.462 31.0247 116.035C20.7037 111.18 11.7982 105.93 6.30664 99.3047C0.827079 92.694 -1.26066 84.7061 2.07162 74.3331C5.41379 63.9293 10.1848 56.7966 16.0265 51.4303C21.871 46.0615 28.7954 42.4529 36.4594 39.109C39.1052 37.9546 41.8388 36.832 44.6453 35.6794C58.0919 30.1574 73.2118 23.9481 88.3546 10.265C97.4581 2.03903 106.926 -0.616155 116.007 0.646102C125.095 1.90939 133.82 7.09993 141.418 14.6093C156.617 29.6313 167.256 53.8806 167.256 74.2791Z" stroke="url(#paint0_linear_1_173)" stroke-width="0.352613"/>
<defs>
<linearGradient id="paint0_linear_1_173" x1="83.8634" y1="0.171326" x2="83.8634" y2="155.674" gradientUnits="userSpaceOnUse">
<stop stop-color="#1D9BF0"/>
<stop offset="1" stop-color="#1D9BF0" stop-opacity="0"/>
</linearGradient>
</defs>
</svg>
