<svg width="116" height="108" viewBox="0 0 116 108" fill="none" xmlns="http://www.w3.org/2000/svg">
<path id="Ellipse 8" d="M115.163 51.4191C115.163 65.4194 107.762 83.0267 97.6982 94.6718C92.6672 100.494 86.9859 104.808 81.2519 106.445C75.5304 108.08 69.7435 107.054 64.4623 102.17C59.1135 97.2232 51.9244 93.3619 44.3097 89.9059C40.7917 88.3092 37.1793 86.7974 33.6128 85.3049C33.3184 85.1817 33.0243 85.0587 32.7307 84.9357C28.8779 83.3225 25.0925 81.7254 21.5462 80.0589C14.4487 76.7234 8.33358 73.1203 4.56503 68.5783C0.808479 64.0508 -0.62366 58.5822 1.6624 51.4731C3.95837 44.3332 7.23482 39.441 11.2449 35.761C15.2576 32.0785 20.0133 29.602 25.2827 27.3052C27.1008 26.5127 28.9799 25.7418 30.9095 24.9502C40.1579 21.1561 50.5667 16.8859 60.9891 7.47762C67.2394 1.83552 73.7351 0.0175749 79.963 0.882382C86.1983 1.74821 92.1882 5.30657 97.4085 10.4608C107.852 20.7725 115.163 37.4197 115.163 51.4191Z" stroke="url(#paint0_linear_1_171)" stroke-width="0.352613"/>
<defs>
<linearGradient id="paint0_linear_1_171" x1="57.8634" y1="0.501526" x2="57.8634" y2="107.343" gradientUnits="userSpaceOnUse">
<stop stop-color="#1D9BF0"/>
<stop offset="1" stop-color="#1D9BF0" stop-opacity="0"/>
</linearGradient>
</defs>
</svg>
