<svg width="17" height="17" viewBox="0 0 17 17" fill="none" xmlns="http://www.w3.org/2000/svg">
<path fill-rule="evenodd" clip-rule="evenodd" d="M15.9497 8.28848C15.9497 7.72585 15.8989 7.18487 15.8045 6.66553H8.28528V9.73471H12.582C12.3969 10.7265 11.8344 11.5668 10.9889 12.1295V14.1203H13.5691C15.0787 12.739 15.9497 10.7049 15.9497 8.28848Z" fill="#4285F4"/>
<path fill-rule="evenodd" clip-rule="evenodd" d="M8.28531 16.0422C10.4409 16.0422 12.2481 15.3317 13.5691 14.1199L10.9889 12.1291C10.274 12.6052 9.35948 12.8865 8.28531 12.8865C6.20591 12.8865 4.44586 11.4908 3.81805 9.61536H1.15076V11.6711C2.46444 14.2642 5.1644 16.0422 8.28531 16.0422Z" fill="#34A853"/>
<path fill-rule="evenodd" clip-rule="evenodd" d="M3.81804 9.61562C3.65837 9.13955 3.56765 8.63103 3.56765 8.10808C3.56765 7.58513 3.65837 7.0766 3.81804 6.60054V4.5448H1.15075C0.610037 5.61595 0.301575 6.82775 0.301575 8.10808C0.301575 9.3884 0.610037 10.6002 1.15075 11.6714L3.81804 9.61562Z" fill="#FBBC05"/>
<path fill-rule="evenodd" clip-rule="evenodd" d="M8.28531 3.32932C9.45746 3.32932 10.5099 3.72965 11.3373 4.51588L13.6271 2.24014C12.2445 0.959813 10.4373 0.173584 8.28531 0.173584C5.1644 0.173584 2.46444 1.95162 1.15076 4.54473L3.81805 6.60046C4.44586 4.72506 6.20591 3.32932 8.28531 3.32932Z" fill="#EA4335"/>
</svg>
