<svg width="8" height="13" viewBox="0 0 8 13" fill="none" xmlns="http://www.w3.org/2000/svg">
<path d="M7.30496 6.65762C7.30496 6.74902 7.28572 6.83562 7.24723 6.9174C7.21356 6.99437 7.16304 7.06653 7.09569 7.13388L1.3805 12.7264C1.25061 12.8563 1.09186 12.9212 0.904238 12.9212C0.783969 12.9212 0.673321 12.8924 0.572295 12.8346C0.471269 12.7769 0.391892 12.6975 0.334162 12.5965C0.276433 12.5003 0.247569 12.3896 0.247569 12.2646C0.247569 12.0866 0.310109 11.9302 0.435188 11.7955L5.68854 6.65762L0.435188 1.51972C0.310109 1.38502 0.247569 1.22867 0.247569 1.05067C0.247569 0.925593 0.276433 0.814945 0.334162 0.71873C0.391892 0.617704 0.471269 0.538326 0.572295 0.480597C0.673321 0.422868 0.783969 0.394003 0.904238 0.394003C1.09186 0.394003 1.25061 0.456543 1.3805 0.581623L7.09569 6.18135C7.16304 6.2487 7.21356 6.32327 7.24723 6.40505C7.28572 6.48203 7.30496 6.56621 7.30496 6.65762Z" fill="#EBEBF5" fill-opacity="0.3"/>
</svg>
