<svg width="235" height="239" viewBox="0 0 235 239" fill="none" xmlns="http://www.w3.org/2000/svg">
<g filter="url(#filter0_d_564_793)">
<path d="M53 14H182.05V168.488C182.05 172.179 180.106 175.596 176.934 177.482L122.872 209.627C119.577 211.586 115.473 211.586 112.177 209.627L58.1159 177.482C54.9439 175.596 53 172.179 53 168.488V14Z" fill="url(#paint0_linear_564_793)"/>
</g>
<g filter="url(#filter1_dd_564_793)">
<path d="M76.5886 144.941C75.7326 142.307 74.9753 139.739 74.3168 137.236L71.156 126.371C70.1024 122.815 69.2793 120.148 68.6866 118.37C68.1598 116.395 67.7318 114.913 67.4026 113.925L57.3275 79.848H77.4776L95.9485 147.805H77.4776L76.5886 144.941ZM92.0963 117.679L102.073 79.848H121.828L111.753 113.925L108.098 126.371C106.913 130.19 105.826 133.812 104.838 137.236C104.18 139.739 103.423 142.307 102.566 144.941L101.677 147.805H100.295L92.0963 117.679ZM128.355 81.5271C136.718 79.6833 145.345 78.8602 154.234 79.0578V94.4667C152.983 94.2691 150.382 94.1703 146.431 94.1703C143.204 94.1703 139.22 94.4337 134.479 94.9605L128.355 95.7507V81.5271ZM126.972 137.829C126.972 133.549 127.104 130.092 127.367 127.458C127.631 124.824 128.191 122.552 129.047 120.642C129.969 118.601 131.253 116.856 132.899 115.407C134.611 113.892 136.916 112.542 139.813 111.357L151.37 106.715C152.819 106.122 154.07 105.595 155.123 105.134C156.177 104.608 156.901 104.114 157.296 103.653C157.757 103.192 158.054 102.665 158.185 102.072C158.317 101.414 158.383 100.492 158.383 99.3066V79.1565C161.544 79.3541 164.243 79.7492 166.482 80.3418C168.787 80.8686 170.763 81.7576 172.409 83.0088C176.228 85.972 178.138 91.1083 178.138 98.4177C178.138 104.739 177.084 109.448 174.977 112.542C173.002 115.506 169.775 117.81 165.297 119.457L151.271 124.889C150.086 125.35 149.098 125.778 148.308 126.173C147.583 126.569 147.057 126.964 146.727 127.359C146.398 127.754 146.201 128.281 146.135 128.939C146.069 129.598 146.036 130.684 146.036 132.199V147.805H126.972V137.829ZM150.185 132.396H178.138V147.805H150.185V132.396Z" fill="#F1F2FF"/>
<path d="M76.5886 144.941L77.4873 144.662L77.4835 144.65L76.5886 144.941ZM74.3168 137.236L75.2267 136.997C75.2247 136.989 75.2225 136.981 75.2203 136.973L74.3168 137.236ZM71.156 126.371L72.0595 126.108L72.0581 126.104L71.156 126.371ZM68.6866 118.37L67.7775 118.613C67.7824 118.631 67.788 118.65 67.794 118.668L68.6866 118.37ZM67.4026 113.925L66.5003 114.192C66.5033 114.202 66.5065 114.213 66.5099 114.223L67.4026 113.925ZM57.3275 79.848V78.9071C57.0307 78.9071 56.7514 79.0471 56.5738 79.2848C56.3961 79.5225 56.3411 79.8301 56.4252 80.1147L57.3275 79.848ZM77.4776 79.848L78.3856 79.6012C78.2742 79.1914 77.9022 78.9071 77.4776 78.9071V79.848ZM95.9485 147.805V148.746C96.2417 148.746 96.518 148.609 96.696 148.377C96.8741 148.144 96.9334 147.841 96.8565 147.558L95.9485 147.805ZM77.4776 147.805L76.579 148.084C76.7012 148.478 77.0654 148.746 77.4776 148.746V147.805ZM92.0963 117.679L91.1865 117.439C91.1444 117.599 91.1451 117.767 91.1884 117.926L92.0963 117.679ZM102.073 79.848V78.9071C101.645 78.9071 101.272 79.1949 101.163 79.608L102.073 79.848ZM121.828 79.848L122.73 80.1147C122.814 79.8301 122.759 79.5225 122.581 79.2848C122.404 79.0471 122.124 78.9071 121.828 78.9071V79.848ZM111.753 113.925L110.85 113.659L110.85 113.66L111.753 113.925ZM108.098 126.371L108.996 126.65C108.998 126.645 108.999 126.641 109.001 126.636L108.098 126.371ZM104.838 137.236L103.934 136.975C103.932 136.983 103.93 136.99 103.928 136.997L104.838 137.236ZM102.566 144.941L101.672 144.65L101.668 144.662L102.566 144.941ZM101.677 147.805V148.746C102.09 148.746 102.454 148.478 102.576 148.084L101.677 147.805ZM100.295 147.805L99.3868 148.052C99.4982 148.462 99.8701 148.746 100.295 148.746V147.805ZM77.4835 144.65C76.6326 142.032 75.8804 139.481 75.2267 136.997L73.4069 137.476C74.0702 139.996 74.8326 142.582 75.6938 145.232L77.4835 144.65ZM75.2203 136.973L72.0595 126.108L70.2526 126.634L73.4134 137.499L75.2203 136.973ZM72.0581 126.104C71.0038 122.545 70.1771 119.866 69.5793 118.073L67.794 118.668C68.3815 120.43 69.201 123.085 70.2539 126.638L72.0581 126.104ZM69.5958 118.128C69.0678 116.148 68.6338 114.644 68.2952 113.628L66.5099 114.223C66.8298 115.183 67.2519 116.642 67.7775 118.613L69.5958 118.128ZM68.3049 113.659L58.2298 79.5812L56.4252 80.1147L66.5003 114.192L68.3049 113.659ZM57.3275 80.7889H77.4776V78.9071H57.3275V80.7889ZM76.5696 80.0948L95.0406 148.052L96.8565 147.558L78.3856 79.6012L76.5696 80.0948ZM95.9485 146.864H77.4776V148.746H95.9485V146.864ZM78.3762 147.526L77.4873 144.662L75.69 145.22L76.579 148.084L78.3762 147.526ZM93.0061 117.919L102.982 80.0879L101.163 79.608L91.1865 117.439L93.0061 117.919ZM102.073 80.7889H121.828V78.9071H102.073V80.7889ZM120.925 79.5812L110.85 113.659L112.655 114.192L122.73 80.1147L120.925 79.5812ZM110.85 113.66L107.195 126.106L109.001 126.636L112.655 114.19L110.85 113.66ZM107.199 126.092C106.012 129.917 104.924 133.545 103.934 136.975L105.742 137.497C106.728 134.08 107.813 130.464 108.996 126.65L107.199 126.092ZM103.928 136.997C103.275 139.481 102.523 142.032 101.672 144.65L103.461 145.232C104.322 142.582 105.085 139.996 105.748 137.476L103.928 136.997ZM101.668 144.662L100.779 147.526L102.576 148.084L103.465 145.22L101.668 144.662ZM101.677 146.864H100.295V148.746H101.677V146.864ZM101.203 147.558L93.0042 117.432L91.1884 117.926L99.3868 148.052L101.203 147.558ZM128.355 81.5271L128.153 80.6083C127.721 80.7034 127.414 81.0856 127.414 81.5271H128.355ZM154.234 79.0578H155.175C155.175 78.5463 154.767 78.1285 154.255 78.1171L154.234 79.0578ZM154.234 94.4667L154.088 95.3961C154.359 95.439 154.636 95.3608 154.846 95.182C155.055 95.0032 155.175 94.7418 155.175 94.4667H154.234ZM134.479 94.9605L134.375 94.0254C134.37 94.026 134.364 94.0267 134.359 94.0274L134.479 94.9605ZM128.355 95.7507H127.414C127.414 96.0213 127.531 96.2787 127.734 96.4574C127.937 96.636 128.207 96.7185 128.476 96.6839L128.355 95.7507ZM127.367 127.458L126.431 127.364L126.431 127.364L127.367 127.458ZM129.047 120.642L128.189 120.255L128.188 120.257L129.047 120.642ZM132.899 115.407L133.52 116.113L133.522 116.112L132.899 115.407ZM139.813 111.357L139.462 110.484L139.457 110.486L139.813 111.357ZM151.37 106.715L151.721 107.588L151.726 107.586L151.37 106.715ZM155.123 105.134L155.5 105.996C155.515 105.99 155.53 105.983 155.544 105.976L155.123 105.134ZM157.296 103.653L156.631 102.987C156.614 103.004 156.598 103.022 156.582 103.04L157.296 103.653ZM158.185 102.072L159.104 102.276C159.105 102.27 159.107 102.263 159.108 102.257L158.185 102.072ZM158.383 79.1565L158.442 78.2175C158.182 78.2013 157.928 78.2929 157.739 78.4708C157.549 78.6486 157.442 78.8968 157.442 79.1565H158.383ZM166.482 80.3418L166.242 81.2514C166.252 81.2542 166.262 81.2567 166.273 81.2591L166.482 80.3418ZM172.409 83.0088L172.986 82.2653L172.978 82.2597L172.409 83.0088ZM174.977 112.542L174.199 112.013L174.194 112.021L174.977 112.542ZM165.297 119.457L164.972 118.574C164.967 118.576 164.962 118.577 164.957 118.579L165.297 119.457ZM151.271 124.889L150.931 124.012L150.93 124.012L151.271 124.889ZM148.308 126.173L147.887 125.332C147.877 125.337 147.867 125.342 147.857 125.347L148.308 126.173ZM146.727 127.359L146.005 126.756L146.005 126.756L146.727 127.359ZM146.135 128.939L145.199 128.846L145.199 128.846L146.135 128.939ZM146.036 147.805V148.746C146.556 148.746 146.977 148.325 146.977 147.805H146.036ZM126.972 147.805H126.031C126.031 148.325 126.453 148.746 126.972 148.746V147.805ZM150.185 132.396V131.455C149.665 131.455 149.244 131.877 149.244 132.396H150.185ZM178.138 132.396H179.079C179.079 131.877 178.657 131.455 178.138 131.455V132.396ZM178.138 147.805V148.746C178.657 148.746 179.079 148.325 179.079 147.805H178.138ZM150.185 147.805H149.244C149.244 148.325 149.665 148.746 150.185 148.746V147.805ZM128.558 82.446C136.845 80.619 145.396 79.8025 154.213 79.9984L154.255 78.1171C145.293 77.9179 136.592 78.7477 128.153 80.6083L128.558 82.446ZM153.293 79.0578V94.4667H155.175V79.0578H153.293ZM154.381 93.5373C153.044 93.3262 150.367 93.2294 146.431 93.2294V95.1112C150.397 95.1112 152.922 95.2121 154.088 95.3961L154.381 93.5373ZM146.431 93.2294C143.158 93.2294 139.136 93.4964 134.375 94.0254L134.583 95.8957C139.305 95.3711 143.251 95.1112 146.431 95.1112V93.2294ZM134.359 94.0274L128.235 94.8176L128.476 96.6839L134.6 95.8937L134.359 94.0274ZM129.296 95.7507V81.5271H127.414V95.7507H129.296ZM127.913 137.829C127.913 133.563 128.045 130.141 128.304 127.551L126.431 127.364C126.163 130.042 126.031 133.534 126.031 137.829H127.913ZM128.304 127.551C128.56 124.992 129.1 122.824 129.905 121.027L128.188 120.257C127.281 122.28 126.702 124.655 126.431 127.364L128.304 127.551ZM129.904 121.029C130.772 119.107 131.977 117.472 133.52 116.113L132.277 114.701C130.528 116.24 129.165 118.094 128.189 120.255L129.904 121.029ZM133.522 116.112C135.132 114.688 137.336 113.387 140.169 112.228L139.457 110.486C136.495 111.698 134.09 113.097 132.275 114.702L133.522 116.112ZM140.164 112.23L151.721 107.588L151.019 105.842L139.462 110.484L140.164 112.23ZM151.726 107.586C153.179 106.991 154.438 106.461 155.5 105.996L154.746 104.272C153.701 104.729 152.458 105.253 151.014 105.844L151.726 107.586ZM155.544 105.976C156.624 105.436 157.489 104.874 158.011 104.265L156.582 103.04C156.314 103.354 155.729 103.779 154.702 104.293L155.544 105.976ZM157.962 104.318C158.539 103.74 158.93 103.057 159.104 102.276L157.267 101.868C157.177 102.273 156.975 102.643 156.631 102.987L157.962 104.318ZM159.108 102.257C159.258 101.508 159.324 100.515 159.324 99.3066H157.442C157.442 100.469 157.376 101.319 157.263 101.888L159.108 102.257ZM159.324 99.3066V79.1565H157.442V99.3066H159.324ZM158.324 80.0956C161.444 80.2906 164.079 80.6791 166.242 81.2514L166.723 79.4323C164.407 78.8193 161.643 78.4176 158.442 78.2175L158.324 80.0956ZM166.273 81.2591C168.466 81.7603 170.314 82.5986 171.84 83.7579L172.978 82.2597C171.211 80.9167 169.109 79.977 166.692 79.4246L166.273 81.2591ZM171.832 83.7522C175.323 86.4608 177.197 91.2462 177.197 98.4177H179.079C179.079 90.9705 177.133 85.4833 172.986 82.2654L171.832 83.7522ZM177.197 98.4177C177.197 104.667 176.15 109.149 174.199 112.013L175.755 113.072C178.019 109.747 179.079 104.812 179.079 98.4177H177.197ZM174.194 112.021C172.361 114.77 169.326 116.973 164.972 118.574L165.622 120.34C170.224 118.648 173.642 116.242 175.76 113.064L174.194 112.021ZM164.957 118.579L150.931 124.012L151.611 125.767L165.637 120.334L164.957 118.579ZM150.93 124.012C149.728 124.48 148.712 124.919 147.887 125.332L148.729 127.015C149.484 126.637 150.443 126.221 151.612 125.766L150.93 124.012ZM147.857 125.347C147.084 125.769 146.442 126.232 146.005 126.756L147.45 127.961C147.672 127.695 148.083 127.368 148.758 126.999L147.857 125.347ZM146.005 126.756C145.525 127.332 145.278 128.053 145.199 128.846L147.071 129.033C147.123 128.508 147.272 128.175 147.45 127.961L146.005 126.756ZM145.199 128.846C145.128 129.555 145.095 130.682 145.095 132.199H146.977C146.977 130.686 147.01 129.641 147.071 129.033L145.199 128.846ZM145.095 132.199V147.805H146.977V132.199H145.095ZM146.036 146.864H126.972V148.746H146.036V146.864ZM127.913 147.805V137.829H126.031V147.805H127.913ZM150.185 133.337H178.138V131.455H150.185V133.337ZM177.197 132.396V147.805H179.079V132.396H177.197ZM178.138 146.864H150.185V148.746H178.138V146.864ZM151.125 147.805V132.396H149.244V147.805H151.125Z" fill="url(#paint1_linear_564_793)"/>
</g>
<defs>
<filter id="filter0_d_564_793" x="32.073" y="0.0486803" width="170.904" height="238.95" filterUnits="userSpaceOnUse" color-interpolation-filters="sRGB">
<feFlood flood-opacity="0" result="BackgroundImageFix"/>
<feColorMatrix in="SourceAlpha" type="matrix" values="0 0 0 0 0 0 0 0 0 0 0 0 0 0 0 0 0 0 127 0" result="hardAlpha"/>
<feOffset dy="6.97566"/>
<feGaussianBlur stdDeviation="10.4635"/>
<feColorMatrix type="matrix" values="0 0 0 0 0.248056 0 0 0 0 0.27965 0 0 0 0 0.391667 0 0 0 0.4 0"/>
<feBlend mode="normal" in2="BackgroundImageFix" result="effect1_dropShadow_564_793"/>
<feBlend mode="normal" in="SourceGraphic" in2="effect1_dropShadow_564_793" result="shape"/>
</filter>
<filter id="filter1_dd_564_793" x="0.873352" y="28.0679" width="233.719" height="181.952" filterUnits="userSpaceOnUse" color-interpolation-filters="sRGB">
<feFlood flood-opacity="0" result="BackgroundImageFix"/>
<feColorMatrix in="SourceAlpha" type="matrix" values="0 0 0 0 0 0 0 0 0 0 0 0 0 0 0 0 0 0 127 0" result="hardAlpha"/>
<feOffset/>
<feGaussianBlur stdDeviation="9.40903"/>
<feColorMatrix type="matrix" values="0 0 0 0 0.558594 0 0 0 0 0.710156 0 0 0 0 0.9375 0 0 0 1 0"/>
<feBlend mode="normal" in2="BackgroundImageFix" result="effect1_dropShadow_564_793"/>
<feColorMatrix in="SourceAlpha" type="matrix" values="0 0 0 0 0 0 0 0 0 0 0 0 0 0 0 0 0 0 127 0" result="hardAlpha"/>
<feOffset dy="5.7606"/>
<feGaussianBlur stdDeviation="28.2271"/>
<feColorMatrix type="matrix" values="0 0 0 0 0.670833 0 0 0 0 0.8025 0 0 0 0 1 0 0 0 0.6 0"/>
<feBlend mode="normal" in2="effect1_dropShadow_564_793" result="effect2_dropShadow_564_793"/>
<feBlend mode="normal" in="SourceGraphic" in2="effect2_dropShadow_564_793" result="shape"/>
</filter>
<linearGradient id="paint0_linear_564_793" x1="21.6095" y1="48.8783" x2="182.05" y2="193.623" gradientUnits="userSpaceOnUse">
<stop stop-color="#2C2E3C"/>
<stop offset="0.287328" stop-color="#2C2E3C"/>
<stop offset="0.479231" stop-color="#464960"/>
<stop offset="0.702708" stop-color="#2C2E3C"/>
<stop offset="1" stop-color="#2C2E3C"/>
</linearGradient>
<linearGradient id="paint1_linear_564_793" x1="86.6589" y1="-56.7592" x2="123.754" y2="31.0691" gradientUnits="userSpaceOnUse">
<stop stop-color="white"/>
<stop offset="1" stop-color="#D8E5FF"/>
</linearGradient>
</defs>
</svg>
