<svg width="236" height="239" viewBox="0 0 236 239" fill="none" xmlns="http://www.w3.org/2000/svg">
<g filter="url(#filter0_d_564_805)">
<path d="M54 14H183.05V168.488C183.05 172.179 181.106 175.596 177.934 177.482L123.872 209.627C120.577 211.586 116.473 211.586 113.177 209.627L59.1159 177.482C55.9439 175.596 54 172.179 54 168.488V14Z" fill="url(#paint0_linear_564_805)"/>
</g>
<g filter="url(#filter1_dd_564_805)">
<path d="M76.4134 144.941C75.5574 142.307 74.8001 139.739 74.1416 137.236L70.9808 126.371C69.9272 122.815 69.1041 120.148 68.5114 118.37C67.9846 116.395 67.5566 114.913 67.2274 113.925L57.1523 79.848H77.3024L95.7734 147.805H77.3024L76.4134 144.941ZM91.9211 117.679L101.897 79.848H121.652L111.577 113.925L107.923 126.371C106.737 130.19 105.651 133.812 104.663 137.236C104.005 139.739 103.247 142.307 102.391 144.941L101.502 147.805H100.119L91.9211 117.679ZM159.393 126.569C159.393 124.856 159.261 123.572 158.998 122.716C158.8 121.794 158.339 121.103 157.615 120.642C156.891 120.181 155.903 119.885 154.652 119.753C153.401 119.556 151.59 119.457 149.219 119.457C144.873 119.457 140.264 119.654 135.391 120.049C132.296 120.313 130.287 120.477 129.365 120.543V79.848H146.058V104.937L149.318 104.64C153.862 104.443 157.088 104.344 158.998 104.344C166.834 104.344 172.365 106.221 175.592 109.974C177.041 111.686 178.061 113.794 178.654 116.296C179.247 118.732 179.543 121.663 179.543 125.087C179.543 128.972 179.247 132.232 178.654 134.866C178.061 137.5 177.041 139.739 175.592 141.582C174.143 143.426 172.069 144.908 169.369 146.027C166.735 147.081 163.41 147.805 159.393 148.2V126.569ZM150.207 79.848H174.506V95.1581H150.207V79.848ZM150.503 148.595C146.486 148.595 142.502 148.365 138.551 147.904C134.666 147.443 131.341 146.883 128.575 146.225V132.1C136.148 132.956 142.733 133.384 148.33 133.384C151.425 133.384 153.73 133.318 155.244 133.186V148.497C154.191 148.562 152.61 148.595 150.503 148.595Z" fill="#F1F2FF"/>
<path d="M76.4134 144.941L77.3122 144.662L77.3083 144.65L76.4134 144.941ZM74.1416 137.236L75.0515 136.997C75.0495 136.989 75.0473 136.981 75.0451 136.973L74.1416 137.236ZM70.9808 126.371L71.8843 126.108L71.883 126.104L70.9808 126.371ZM68.5114 118.37L67.6023 118.613C67.6073 118.631 67.6128 118.65 67.6188 118.668L68.5114 118.37ZM67.2274 113.925L66.3251 114.192C66.3281 114.202 66.3314 114.213 66.3348 114.223L67.2274 113.925ZM57.1523 79.848V78.9071C56.8556 78.9071 56.5762 79.0471 56.3986 79.2848C56.2209 79.5225 56.1659 79.8301 56.25 80.1147L57.1523 79.848ZM77.3024 79.848L78.2104 79.6012C78.099 79.1914 77.727 78.9071 77.3024 78.9071V79.848ZM95.7734 147.805V148.746C96.0665 148.746 96.3428 148.609 96.5208 148.377C96.6989 148.144 96.7582 147.841 96.6813 147.558L95.7734 147.805ZM77.3024 147.805L76.4038 148.084C76.526 148.478 76.8902 148.746 77.3024 148.746V147.805ZM91.9211 117.679L91.0113 117.439C90.9692 117.599 90.9699 117.767 91.0132 117.926L91.9211 117.679ZM101.897 79.848V78.9071C101.47 78.9071 101.097 79.1949 100.988 79.608L101.897 79.848ZM121.652 79.848L122.555 80.1147C122.639 79.8301 122.584 79.5225 122.406 79.2848C122.229 79.0471 121.949 78.9071 121.652 78.9071V79.848ZM111.577 113.925L110.675 113.659L110.675 113.66L111.577 113.925ZM107.923 126.371L108.821 126.65C108.823 126.645 108.824 126.641 108.825 126.636L107.923 126.371ZM104.663 137.236L103.759 136.975C103.757 136.983 103.755 136.99 103.753 136.997L104.663 137.236ZM102.391 144.941L101.496 144.65L101.493 144.662L102.391 144.941ZM101.502 147.805V148.746C101.915 148.746 102.279 148.478 102.401 148.084L101.502 147.805ZM100.119 147.805L99.2116 148.052C99.323 148.462 99.695 148.746 100.119 148.746V147.805ZM77.3083 144.65C76.4574 142.032 75.7052 139.481 75.0515 136.997L73.2317 137.476C73.895 139.996 74.6574 142.582 75.5186 145.232L77.3083 144.65ZM75.0451 136.973L71.8843 126.108L70.0774 126.634L73.2382 137.499L75.0451 136.973ZM71.883 126.104C70.8287 122.545 70.0019 119.866 69.4041 118.073L67.6188 118.668C68.2063 120.43 69.0258 123.085 70.0787 126.638L71.883 126.104ZM69.4206 118.128C68.8926 116.148 68.4586 114.644 68.12 113.628L66.3348 114.223C66.6546 115.183 67.0767 116.642 67.6023 118.613L69.4206 118.128ZM68.1297 113.659L58.0546 79.5812L56.25 80.1147L66.3251 114.192L68.1297 113.659ZM57.1523 80.7889H77.3024V78.9071H57.1523V80.7889ZM76.3945 80.0948L94.8654 148.052L96.6813 147.558L78.2104 79.6012L76.3945 80.0948ZM95.7734 146.864H77.3024V148.746H95.7734V146.864ZM78.201 147.526L77.3121 144.662L75.5148 145.22L76.4038 148.084L78.201 147.526ZM92.8309 117.919L102.807 80.0879L100.988 79.608L91.0113 117.439L92.8309 117.919ZM101.897 80.7889H121.652V78.9071H101.897V80.7889ZM120.75 79.5812L110.675 113.659L112.48 114.192L122.555 80.1147L120.75 79.5812ZM110.675 113.66L107.02 126.106L108.825 126.636L112.48 114.19L110.675 113.66ZM107.024 126.092C105.837 129.917 104.749 133.545 103.759 136.975L105.567 137.497C106.553 134.08 107.638 130.464 108.821 126.65L107.024 126.092ZM103.753 136.997C103.1 139.481 102.347 142.032 101.496 144.65L103.286 145.232C104.147 142.582 104.91 139.996 105.573 137.476L103.753 136.997ZM101.493 144.662L100.604 147.526L102.401 148.084L103.29 145.22L101.493 144.662ZM101.502 146.864H100.119V148.746H101.502V146.864ZM101.027 147.558L92.829 117.432L91.0132 117.926L99.2116 148.052L101.027 147.558ZM158.998 122.716L158.078 122.913C158.084 122.94 158.09 122.967 158.099 122.993L158.998 122.716ZM157.615 120.642L158.12 119.848L158.12 119.848L157.615 120.642ZM154.652 119.753L154.505 120.682C154.521 120.685 154.537 120.687 154.553 120.689L154.652 119.753ZM135.391 120.049L135.315 119.112L135.311 119.112L135.391 120.049ZM129.365 120.543H128.424C128.424 120.804 128.533 121.054 128.724 121.232C128.915 121.41 129.172 121.5 129.432 121.482L129.365 120.543ZM129.365 79.848V78.9071C128.846 78.9071 128.424 79.3283 128.424 79.848H129.365ZM146.058 79.848H146.999C146.999 79.3283 146.578 78.9071 146.058 78.9071V79.848ZM146.058 104.937H145.117C145.117 105.201 145.229 105.453 145.424 105.632C145.619 105.81 145.88 105.898 146.144 105.874L146.058 104.937ZM149.318 104.64L149.277 103.7C149.262 103.701 149.247 103.702 149.233 103.703L149.318 104.64ZM175.592 109.974L176.31 109.367L176.306 109.361L175.592 109.974ZM178.654 116.296L177.738 116.513L177.74 116.518L178.654 116.296ZM178.654 134.866L177.736 134.659L177.736 134.659L178.654 134.866ZM175.592 141.582L174.852 141.001L174.852 141.001L175.592 141.582ZM169.369 146.027L169.719 146.901L169.73 146.896L169.369 146.027ZM159.393 148.2H158.452C158.452 148.466 158.564 148.719 158.761 148.897C158.958 149.076 159.221 149.163 159.485 149.137L159.393 148.2ZM150.207 79.848V78.9071C149.687 78.9071 149.266 79.3283 149.266 79.848H150.207ZM174.506 79.848H175.446C175.446 79.3283 175.025 78.9071 174.506 78.9071V79.848ZM174.506 95.1581V96.099C175.025 96.099 175.446 95.6777 175.446 95.1581H174.506ZM150.207 95.1581H149.266C149.266 95.6777 149.687 96.099 150.207 96.099V95.1581ZM138.551 147.904L138.441 148.838L138.442 148.839L138.551 147.904ZM128.575 146.225H127.634C127.634 146.66 127.933 147.039 128.357 147.14L128.575 146.225ZM128.575 132.1L128.681 131.165C128.415 131.135 128.148 131.22 127.948 131.398C127.748 131.577 127.634 131.832 127.634 132.1H128.575ZM155.244 133.186H156.185C156.185 132.923 156.075 132.671 155.88 132.493C155.686 132.315 155.426 132.226 155.163 132.249L155.244 133.186ZM155.244 148.497L155.303 149.436C155.799 149.405 156.185 148.993 156.185 148.497H155.244ZM160.334 126.569C160.334 124.832 160.203 123.433 159.897 122.44L158.099 122.993C158.32 123.711 158.452 124.881 158.452 126.569H160.334ZM159.918 122.519C159.673 121.377 159.079 120.458 158.12 119.848L157.11 121.436C157.6 121.748 157.927 122.211 158.078 122.913L159.918 122.519ZM158.12 119.848C157.229 119.281 156.084 118.958 154.75 118.817L154.553 120.689C155.722 120.812 156.552 121.081 157.11 121.436L158.12 119.848ZM154.798 118.824C153.474 118.615 151.604 118.516 149.219 118.516V120.398C151.575 120.398 153.327 120.497 154.505 120.682L154.798 118.824ZM149.219 118.516C144.845 118.516 140.21 118.715 135.315 119.112L135.467 120.987C140.317 120.594 144.901 120.398 149.219 120.398V118.516ZM135.311 119.112C132.214 119.375 130.213 119.539 129.298 119.605L129.432 121.482C130.362 121.415 132.377 121.25 135.47 120.987L135.311 119.112ZM130.306 120.543V79.848H128.424V120.543H130.306ZM129.365 80.7889H146.058V78.9071H129.365V80.7889ZM145.117 79.848V104.937H146.999V79.848H145.117ZM146.144 105.874L149.403 105.578L149.233 103.703L145.973 104L146.144 105.874ZM149.359 105.581C153.902 105.383 157.111 105.285 158.998 105.285V103.403C157.066 103.403 153.821 103.503 149.277 103.7L149.359 105.581ZM158.998 105.285C166.718 105.285 171.913 107.138 174.879 110.588L176.306 109.361C172.818 105.304 166.95 103.403 158.998 103.403V105.285ZM174.874 110.582C176.214 112.166 177.175 114.133 177.739 116.513L179.57 116.079C178.948 113.454 177.868 111.207 176.31 109.367L174.874 110.582ZM177.74 116.518C178.31 118.861 178.602 121.712 178.602 125.087H180.484C180.484 121.613 180.184 118.604 179.568 116.074L177.74 116.518ZM178.602 125.087C178.602 128.93 178.308 132.115 177.736 134.659L179.572 135.072C180.185 132.348 180.484 129.014 180.484 125.087H178.602ZM177.736 134.659C177.17 137.177 176.202 139.283 174.852 141.001L176.332 142.164C177.879 140.194 178.953 137.822 179.572 135.072L177.736 134.659ZM174.852 141.001C173.525 142.69 171.596 144.085 169.009 145.158L169.73 146.896C172.542 145.73 174.762 144.162 176.332 142.164L174.852 141.001ZM169.02 145.154C166.495 146.164 163.263 146.874 159.301 147.264L159.485 149.137C163.556 148.736 166.976 147.998 169.719 146.901L169.02 145.154ZM160.334 148.2V126.569H158.452V148.2H160.334ZM150.207 80.7889H174.506V78.9071H150.207V80.7889ZM173.565 79.848V95.1581H175.446V79.848H173.565ZM174.506 94.2172H150.207V96.099H174.506V94.2172ZM151.148 95.1581V79.848H149.266V95.1581H151.148ZM150.503 147.654C146.522 147.654 142.575 147.426 138.66 146.969L138.442 148.839C142.43 149.304 146.45 149.536 150.503 149.536V147.654ZM138.662 146.97C134.801 146.511 131.513 145.957 128.793 145.309L128.357 147.14C131.169 147.809 134.532 148.375 138.441 148.838L138.662 146.97ZM129.516 146.225V132.1H127.634V146.225H129.516ZM128.469 133.035C136.066 133.894 142.688 134.325 148.33 134.325V132.443C142.778 132.443 136.23 132.018 128.681 131.165L128.469 133.035ZM148.33 134.325C151.431 134.325 153.769 134.259 155.326 134.124L155.163 132.249C153.691 132.377 151.42 132.443 148.33 132.443V134.325ZM154.303 133.186V148.497H156.185V133.186H154.303ZM155.186 147.558C154.162 147.621 152.606 147.654 150.503 147.654V149.536C152.615 149.536 154.219 149.503 155.303 149.436L155.186 147.558Z" fill="url(#paint1_linear_564_805)"/>
</g>
<defs>
<filter id="filter0_d_564_805" x="33.073" y="0.0486803" width="170.904" height="238.95" filterUnits="userSpaceOnUse" color-interpolation-filters="sRGB">
<feFlood flood-opacity="0" result="BackgroundImageFix"/>
<feColorMatrix in="SourceAlpha" type="matrix" values="0 0 0 0 0 0 0 0 0 0 0 0 0 0 0 0 0 0 127 0" result="hardAlpha"/>
<feOffset dy="6.97566"/>
<feGaussianBlur stdDeviation="10.4635"/>
<feColorMatrix type="matrix" values="0 0 0 0 0.248056 0 0 0 0 0.27965 0 0 0 0 0.391667 0 0 0 0.4 0"/>
<feBlend mode="normal" in2="BackgroundImageFix" result="effect1_dropShadow_564_805"/>
<feBlend mode="normal" in="SourceGraphic" in2="effect1_dropShadow_564_805" result="shape"/>
</filter>
<filter id="filter1_dd_564_805" x="0.698151" y="29.1543" width="235.299" height="181.656" filterUnits="userSpaceOnUse" color-interpolation-filters="sRGB">
<feFlood flood-opacity="0" result="BackgroundImageFix"/>
<feColorMatrix in="SourceAlpha" type="matrix" values="0 0 0 0 0 0 0 0 0 0 0 0 0 0 0 0 0 0 127 0" result="hardAlpha"/>
<feOffset/>
<feGaussianBlur stdDeviation="9.40903"/>
<feColorMatrix type="matrix" values="0 0 0 0 0.558594 0 0 0 0 0.710156 0 0 0 0 0.9375 0 0 0 1 0"/>
<feBlend mode="normal" in2="BackgroundImageFix" result="effect1_dropShadow_564_805"/>
<feColorMatrix in="SourceAlpha" type="matrix" values="0 0 0 0 0 0 0 0 0 0 0 0 0 0 0 0 0 0 127 0" result="hardAlpha"/>
<feOffset dy="5.7606"/>
<feGaussianBlur stdDeviation="28.2271"/>
<feColorMatrix type="matrix" values="0 0 0 0 0.670833 0 0 0 0 0.8025 0 0 0 0 1 0 0 0 0.6 0"/>
<feBlend mode="normal" in2="effect1_dropShadow_564_805" result="effect2_dropShadow_564_805"/>
<feBlend mode="normal" in="SourceGraphic" in2="effect2_dropShadow_564_805" result="shape"/>
</filter>
<linearGradient id="paint0_linear_564_805" x1="22.6095" y1="48.8783" x2="183.05" y2="193.623" gradientUnits="userSpaceOnUse">
<stop stop-color="#2C2E3C"/>
<stop offset="0.287328" stop-color="#2C2E3C"/>
<stop offset="0.479231" stop-color="#464960"/>
<stop offset="0.702708" stop-color="#2C2E3C"/>
<stop offset="1" stop-color="#2C2E3C"/>
</linearGradient>
<linearGradient id="paint1_linear_564_805" x1="86.897" y1="-56.7592" x2="123.79" y2="31.2766" gradientUnits="userSpaceOnUse">
<stop stop-color="white"/>
<stop offset="1" stop-color="#D8E5FF"/>
</linearGradient>
</defs>
</svg>
