<svg width="235" height="239" viewBox="0 0 235 239" fill="none" xmlns="http://www.w3.org/2000/svg">
<g filter="url(#filter0_d_564_797)">
<path d="M53 14H182.05V168.488C182.05 172.179 180.106 175.596 176.934 177.482L122.872 209.627C119.577 211.586 115.473 211.586 112.177 209.627L58.1159 177.482C54.9439 175.596 53 172.179 53 168.488V14Z" fill="url(#paint0_linear_564_797)"/>
</g>
<g filter="url(#filter1_dd_564_797)">
<path d="M76.2816 144.941C75.4255 142.307 74.6682 139.739 74.0097 137.236L70.8489 126.371C69.7953 122.815 68.9722 120.148 68.3796 118.37C67.8528 116.395 67.4247 114.913 67.0955 113.925L57.0204 79.848H77.1705L95.6415 147.805H77.1705L76.2816 144.941ZM91.7892 117.679L101.766 79.848H121.521L111.445 113.925L107.791 126.371C106.605 130.19 105.519 133.812 104.531 137.236C103.873 139.739 103.115 142.307 102.259 144.941L101.37 147.805H99.9876L91.7892 117.679ZM127.06 81.4284C134.831 79.848 142.272 79.0578 149.384 79.0578C150.898 79.0578 152.018 79.0907 152.742 79.1565V94.4667C151.162 94.2691 149.021 94.1703 146.322 94.1703C144.675 94.1703 142.338 94.2362 139.309 94.3679L127.06 95.5532V81.4284ZM157.483 127.359C157.483 125.91 157.351 124.791 157.088 124C156.89 123.144 156.495 122.486 155.903 122.025C154.915 121.366 152.709 121.037 149.285 121.037H138.42V105.925H149.285C150.997 105.925 152.347 105.859 153.335 105.727C154.322 105.595 155.08 105.332 155.606 104.937C156.133 104.542 156.462 104.015 156.594 103.356C156.792 102.632 156.89 101.546 156.89 100.097V79.4529C164.002 80.1772 169.139 81.9881 172.299 84.8855C175.46 87.717 177.041 91.7339 177.041 96.936C177.041 101.743 176.086 105.365 174.176 107.801C172.332 110.238 169.369 111.95 165.286 112.938V113.333C169.567 114.32 172.629 115.868 174.472 117.975C176.58 120.477 177.633 124.363 177.633 129.631C177.633 135.162 176.316 139.343 173.682 142.175C170.653 145.402 165.253 147.41 157.483 148.2V127.359ZM149.976 148.595C146.354 148.595 142.206 148.332 137.531 147.805C132.855 147.344 129.233 146.817 126.665 146.225V132.1C134.633 133.022 141.745 133.483 148.001 133.483C149.449 133.483 151.227 133.417 153.335 133.285V148.497C152.676 148.562 151.557 148.595 149.976 148.595Z" fill="#F1F2FF"/>
<path d="M76.2816 144.941L77.1803 144.662L77.1764 144.65L76.2816 144.941ZM74.0097 137.236L74.9197 136.997C74.9176 136.989 74.9154 136.981 74.9132 136.973L74.0097 137.236ZM70.8489 126.371L71.7524 126.108L71.7511 126.104L70.8489 126.371ZM68.3796 118.37L67.4704 118.613C67.4754 118.631 67.4809 118.65 67.4869 118.668L68.3796 118.37ZM67.0955 113.925L66.1932 114.192C66.1962 114.202 66.1995 114.213 66.2029 114.223L67.0955 113.925ZM57.0204 79.848V78.9071C56.7237 78.9071 56.4443 79.0471 56.2667 79.2848C56.0891 79.5225 56.034 79.8301 56.1181 80.1147L57.0204 79.848ZM77.1705 79.848L78.0785 79.6012C77.9671 79.1914 77.5951 78.9071 77.1705 78.9071V79.848ZM95.6415 147.805V148.746C95.9346 148.746 96.2109 148.609 96.389 148.377C96.567 148.144 96.6263 147.841 96.5494 147.558L95.6415 147.805ZM77.1705 147.805L76.2719 148.084C76.3941 148.478 76.7583 148.746 77.1705 148.746V147.805ZM91.7892 117.679L90.8794 117.439C90.8373 117.599 90.838 117.767 90.8814 117.926L91.7892 117.679ZM101.766 79.848V78.9071C101.338 78.9071 100.965 79.1949 100.856 79.608L101.766 79.848ZM121.521 79.848L122.423 80.1147C122.507 79.8301 122.452 79.5225 122.274 79.2848C122.097 79.0471 121.817 78.9071 121.521 78.9071V79.848ZM111.445 113.925L110.543 113.659L110.543 113.66L111.445 113.925ZM107.791 126.371L108.689 126.65C108.691 126.645 108.692 126.641 108.694 126.636L107.791 126.371ZM104.531 137.236L103.627 136.975C103.625 136.983 103.623 136.99 103.621 136.997L104.531 137.236ZM102.259 144.941L101.364 144.65L101.361 144.662L102.259 144.941ZM101.37 147.805V148.746C101.783 148.746 102.147 148.478 102.269 148.084L101.37 147.805ZM99.9876 147.805L99.0797 148.052C99.1911 148.462 99.5631 148.746 99.9876 148.746V147.805ZM77.1764 144.65C76.3255 142.032 75.5733 139.481 74.9197 136.997L73.0998 137.476C73.7632 139.996 74.5255 142.582 75.3867 145.232L77.1764 144.65ZM74.9132 136.973L71.7524 126.108L69.9455 126.634L73.1063 137.499L74.9132 136.973ZM71.7511 126.104C70.6968 122.545 69.87 119.866 69.2722 118.073L67.4869 118.668C68.0744 120.43 68.8939 123.085 69.9468 126.638L71.7511 126.104ZM69.2887 118.128C68.7607 116.148 68.3267 114.644 67.9881 113.628L66.2029 114.223C66.5227 115.183 66.9448 116.642 67.4704 118.613L69.2887 118.128ZM67.9978 113.659L57.9227 79.5812L56.1181 80.1147L66.1932 114.192L67.9978 113.659ZM57.0204 80.7889H77.1705V78.9071H57.0204V80.7889ZM76.2626 80.0948L94.7335 148.052L96.5494 147.558L78.0785 79.6012L76.2626 80.0948ZM95.6415 146.864H77.1705V148.746H95.6415V146.864ZM78.0692 147.526L77.1802 144.662L75.3829 145.22L76.2719 148.084L78.0692 147.526ZM92.699 117.919L102.675 80.0879L100.856 79.608L90.8794 117.439L92.699 117.919ZM101.766 80.7889H121.521V78.9071H101.766V80.7889ZM120.618 79.5812L110.543 113.659L112.348 114.192L122.423 80.1147L120.618 79.5812ZM110.543 113.66L106.888 126.106L108.694 126.636L112.348 114.19L110.543 113.66ZM106.892 126.092C105.705 129.917 104.617 133.545 103.627 136.975L105.435 137.497C106.421 134.08 107.506 130.464 108.689 126.65L106.892 126.092ZM103.621 136.997C102.968 139.481 102.215 142.032 101.365 144.65L103.154 145.232C104.015 142.582 104.778 139.996 105.441 137.476L103.621 136.997ZM101.361 144.662L100.472 147.526L102.269 148.084L103.158 145.22L101.361 144.662ZM101.37 146.864H99.9876V148.746H101.37V146.864ZM100.895 147.558L92.6971 117.432L90.8814 117.926L99.0797 148.052L100.895 147.558ZM127.06 81.4284L126.873 80.5063C126.434 80.5955 126.12 80.981 126.12 81.4284H127.06ZM152.742 79.1565H153.683C153.683 78.6699 153.312 78.2636 152.827 78.2195L152.742 79.1565ZM152.742 94.4667L152.625 95.4003C152.893 95.4338 153.162 95.3507 153.365 95.172C153.567 94.9934 153.683 94.7365 153.683 94.4667H152.742ZM139.309 94.3679L139.268 93.4279C139.251 93.4286 139.234 93.4298 139.218 93.4314L139.309 94.3679ZM127.06 95.5532H126.12C126.12 95.8185 126.232 96.0715 126.428 96.2498C126.624 96.4282 126.887 96.5153 127.151 96.4897L127.06 95.5532ZM157.088 124L156.171 124.212C156.178 124.241 156.186 124.27 156.195 124.298L157.088 124ZM155.903 122.025L156.48 121.282C156.462 121.268 156.444 121.255 156.425 121.242L155.903 122.025ZM138.42 121.037H137.479C137.479 121.557 137.9 121.978 138.42 121.978V121.037ZM138.42 105.925V104.984C137.9 104.984 137.479 105.405 137.479 105.925H138.42ZM153.335 105.727L153.21 104.794L153.21 104.794L153.335 105.727ZM155.606 104.937L156.171 105.69L156.171 105.69L155.606 104.937ZM156.594 103.356L155.686 103.109C155.681 103.13 155.676 103.151 155.672 103.172L156.594 103.356ZM156.89 79.4529L156.986 78.5168C156.721 78.4898 156.457 78.5763 156.26 78.7547C156.062 78.933 155.95 79.1867 155.95 79.4529H156.89ZM172.299 84.8855L171.664 85.5791L171.672 85.5863L172.299 84.8855ZM174.176 107.801L173.436 107.221C173.432 107.225 173.429 107.229 173.426 107.234L174.176 107.801ZM165.286 112.938L165.065 112.023C164.643 112.125 164.345 112.503 164.345 112.938H165.286ZM165.286 113.333H164.345C164.345 113.771 164.648 114.151 165.075 114.25L165.286 113.333ZM174.472 117.975L175.192 117.369C175.188 117.365 175.184 117.36 175.181 117.356L174.472 117.975ZM173.682 142.175L174.368 142.819L174.371 142.816L173.682 142.175ZM157.483 148.2H156.542C156.542 148.466 156.655 148.72 156.852 148.898C157.05 149.077 157.314 149.163 157.578 149.136L157.483 148.2ZM137.531 147.805L137.636 146.87L137.623 146.869L137.531 147.805ZM126.665 146.225H125.724C125.724 146.663 126.027 147.043 126.454 147.142L126.665 146.225ZM126.665 132.1L126.773 131.165C126.507 131.134 126.24 131.219 126.039 131.397C125.839 131.576 125.724 131.832 125.724 132.1H126.665ZM153.335 133.285H154.275C154.275 133.026 154.168 132.777 153.979 132.599C153.789 132.422 153.535 132.33 153.276 132.346L153.335 133.285ZM153.335 148.497L153.428 149.433C153.909 149.385 154.275 148.98 154.275 148.497H153.335ZM127.248 82.3504C134.963 80.7811 142.341 79.9987 149.384 79.9987V78.1169C142.202 78.1169 134.698 78.9148 126.873 80.5063L127.248 82.3504ZM149.384 79.9987C150.893 79.9987 151.977 80.0318 152.657 80.0936L152.827 78.2195C152.058 78.1496 150.903 78.1169 149.384 78.1169V79.9987ZM151.801 79.1565V94.4667H153.683V79.1565H151.801ZM152.859 93.533C151.222 93.3285 149.038 93.2294 146.322 93.2294V95.1112C149.005 95.1112 151.101 95.2098 152.625 95.4003L152.859 93.533ZM146.322 93.2294C144.655 93.2294 142.301 93.296 139.268 93.4279L139.349 95.3079C142.374 95.1764 144.696 95.1112 146.322 95.1112V93.2294ZM139.218 93.4314L126.97 94.6167L127.151 96.4897L139.399 95.3044L139.218 93.4314ZM128.001 95.5532V81.4284H126.12V95.5532H128.001ZM158.424 127.359C158.424 125.872 158.291 124.635 157.981 123.703L156.195 124.298C156.412 124.947 156.542 125.948 156.542 127.359H158.424ZM158.005 123.789C157.767 122.76 157.272 121.898 156.48 121.282L155.325 122.768C155.719 123.074 156.014 123.529 156.171 124.212L158.005 123.789ZM156.425 121.242C155.754 120.795 154.787 120.524 153.646 120.353C152.48 120.179 151.022 120.096 149.285 120.096V121.978C150.972 121.978 152.329 122.06 153.369 122.215C154.434 122.374 155.064 122.597 155.381 122.808L156.425 121.242ZM149.285 120.096H138.42V121.978H149.285V120.096ZM139.36 121.037V105.925H137.479V121.037H139.36ZM138.42 106.865H149.285V104.984H138.42V106.865ZM149.285 106.865C151.014 106.865 152.411 106.799 153.459 106.66L153.21 104.794C152.283 104.918 150.98 104.984 149.285 104.984V106.865ZM153.459 106.66C154.531 106.517 155.466 106.219 156.171 105.69L155.042 104.184C154.694 104.445 154.114 104.674 153.21 104.794L153.459 106.66ZM156.171 105.69C156.887 105.153 157.341 104.421 157.517 103.541L155.672 103.172C155.584 103.608 155.379 103.931 155.042 104.184L156.171 105.69ZM157.502 103.604C157.733 102.755 157.831 101.567 157.831 100.097H155.95C155.95 101.524 155.85 102.509 155.686 103.109L157.502 103.604ZM157.831 100.097V79.4529H155.95V100.097H157.831ZM156.795 80.3889C163.828 81.1052 168.723 82.8832 171.664 85.5791L172.935 84.1919C169.555 81.093 164.177 79.2492 156.986 78.5168L156.795 80.3889ZM171.672 85.5863C174.589 88.2 176.1 91.936 176.1 96.936H177.981C177.981 91.5318 176.331 87.2341 172.927 84.1847L171.672 85.5863ZM176.1 96.936C176.1 101.642 175.161 105.019 173.436 107.221L174.917 108.382C177.011 105.71 177.981 101.844 177.981 96.936H176.1ZM173.426 107.234C171.755 109.442 169.015 111.067 165.065 112.023L165.508 113.852C169.723 112.832 172.91 111.034 174.926 108.369L173.426 107.234ZM164.345 112.938V113.333H166.227V112.938H164.345ZM165.075 114.25C169.264 115.216 172.106 116.699 173.764 118.595L175.181 117.356C173.151 115.037 169.869 113.425 165.498 112.416L165.075 114.25ZM173.753 118.581C175.652 120.837 176.692 124.458 176.692 129.631H178.574C178.574 124.268 177.507 120.118 175.192 117.369L173.753 118.581ZM176.692 129.631C176.692 135.026 175.407 138.939 172.993 141.534L174.371 142.816C177.225 139.748 178.574 135.298 178.574 129.631H176.692ZM172.996 141.531C170.204 144.506 165.089 146.481 157.388 147.264L157.578 149.136C165.418 148.339 171.103 146.298 174.368 142.819L172.996 141.531ZM158.424 148.2V127.359H156.542V148.2H158.424ZM149.976 147.654C146.398 147.654 142.286 147.394 137.636 146.87L137.425 148.74C142.126 149.27 146.311 149.536 149.976 149.536V147.654ZM137.623 146.869C132.962 146.409 129.387 145.887 126.877 145.308L126.454 147.142C129.08 147.748 132.749 148.279 137.438 148.742L137.623 146.869ZM127.606 146.225V132.1H125.724V146.225H127.606ZM126.557 133.035C134.551 133.96 141.7 134.424 148.001 134.424V132.542C141.79 132.542 134.715 132.084 126.773 131.165L126.557 133.035ZM148.001 134.424C149.476 134.424 151.274 134.357 153.393 134.224L153.276 132.346C151.18 132.477 149.423 132.542 148.001 132.542V134.424ZM152.394 133.285V148.497H154.275V133.285H152.394ZM153.241 147.56C152.634 147.621 151.556 147.654 149.976 147.654V149.536C151.557 149.536 152.718 149.504 153.428 149.433L153.241 147.56Z" fill="url(#paint1_linear_564_797)"/>
</g>
<defs>
<filter id="filter0_d_564_797" x="32.073" y="0.0486803" width="170.904" height="238.95" filterUnits="userSpaceOnUse" color-interpolation-filters="sRGB">
<feFlood flood-opacity="0" result="BackgroundImageFix"/>
<feColorMatrix in="SourceAlpha" type="matrix" values="0 0 0 0 0 0 0 0 0 0 0 0 0 0 0 0 0 0 127 0" result="hardAlpha"/>
<feOffset dy="6.97566"/>
<feGaussianBlur stdDeviation="10.4635"/>
<feColorMatrix type="matrix" values="0 0 0 0 0.248056 0 0 0 0 0.27965 0 0 0 0 0.391667 0 0 0 0.4 0"/>
<feBlend mode="normal" in2="BackgroundImageFix" result="effect1_dropShadow_564_797"/>
<feBlend mode="normal" in="SourceGraphic" in2="effect1_dropShadow_564_797" result="shape"/>
</filter>
<filter id="filter1_dd_564_797" x="0.566284" y="28.3643" width="233.521" height="182.446" filterUnits="userSpaceOnUse" color-interpolation-filters="sRGB">
<feFlood flood-opacity="0" result="BackgroundImageFix"/>
<feColorMatrix in="SourceAlpha" type="matrix" values="0 0 0 0 0 0 0 0 0 0 0 0 0 0 0 0 0 0 127 0" result="hardAlpha"/>
<feOffset/>
<feGaussianBlur stdDeviation="9.40903"/>
<feColorMatrix type="matrix" values="0 0 0 0 0.558594 0 0 0 0 0.710156 0 0 0 0 0.9375 0 0 0 1 0"/>
<feBlend mode="normal" in2="BackgroundImageFix" result="effect1_dropShadow_564_797"/>
<feColorMatrix in="SourceAlpha" type="matrix" values="0 0 0 0 0 0 0 0 0 0 0 0 0 0 0 0 0 0 127 0" result="hardAlpha"/>
<feOffset dy="5.7606"/>
<feGaussianBlur stdDeviation="28.2271"/>
<feColorMatrix type="matrix" values="0 0 0 0 0.670833 0 0 0 0 0.8025 0 0 0 0 1 0 0 0 0.6 0"/>
<feBlend mode="normal" in2="effect1_dropShadow_564_797" result="effect2_dropShadow_564_797"/>
<feBlend mode="normal" in="SourceGraphic" in2="effect2_dropShadow_564_797" result="shape"/>
</filter>
<linearGradient id="paint0_linear_564_797" x1="21.6095" y1="48.8783" x2="182.05" y2="193.623" gradientUnits="userSpaceOnUse">
<stop stop-color="#2C2E3C"/>
<stop offset="0.287328" stop-color="#2C2E3C"/>
<stop offset="0.479231" stop-color="#464960"/>
<stop offset="0.702708" stop-color="#2C2E3C"/>
<stop offset="1" stop-color="#2C2E3C"/>
</linearGradient>
<linearGradient id="paint1_linear_564_797" x1="86.4208" y1="-56.7592" x2="123.721" y2="30.8578" gradientUnits="userSpaceOnUse">
<stop stop-color="white"/>
<stop offset="1" stop-color="#D8E5FF"/>
</linearGradient>
</defs>
</svg>
