<svg width="241" height="239" viewBox="0 0 241 239" fill="none" xmlns="http://www.w3.org/2000/svg">
<g filter="url(#filter0_d_564_801)">
<path d="M55 14H184.05V168.488C184.05 172.179 182.106 175.596 178.934 177.482L124.872 209.627C121.577 211.586 117.473 211.586 114.177 209.627L60.1159 177.482C56.9439 175.596 55 172.179 55 168.488V14Z" fill="url(#paint0_linear_564_801)"/>
</g>
<g filter="url(#filter1_dd_564_801)">
<path d="M76.6112 144.941C75.7552 142.307 74.9979 139.739 74.3394 137.236L71.1786 126.371C70.125 122.815 69.3019 120.148 68.7092 118.37C68.1824 116.395 67.7544 114.913 67.4252 113.925L57.3501 79.848H77.5002L95.9711 147.805H77.5002L76.6112 144.941ZM92.1189 117.679L102.095 79.848H121.85L111.775 113.925L108.12 126.371C106.935 130.19 105.849 133.812 104.861 137.236C104.202 139.739 103.445 142.307 102.589 144.941L101.7 147.805H100.317L92.1189 117.679ZM125.316 121.235L147.441 79.848H168.974L138.255 134.668H125.316V121.235ZM156.825 134.668H142.997L151.491 119.556H156.924L164.332 106.023H176.185V119.556H184.482V134.668H176.185V147.805H156.825V134.668Z" fill="#F1F2FF"/>
<path d="M76.6112 144.941L77.5099 144.662L77.5061 144.65L76.6112 144.941ZM74.3394 137.236L75.2493 136.997C75.2473 136.989 75.2451 136.981 75.2429 136.973L74.3394 137.236ZM71.1786 126.371L72.0821 126.108L72.0807 126.104L71.1786 126.371ZM68.7092 118.37L67.8001 118.613C67.805 118.631 67.8105 118.65 67.8166 118.668L68.7092 118.37ZM67.4252 113.925L66.5229 114.192C66.5259 114.202 66.5291 114.213 66.5325 114.223L67.4252 113.925ZM57.3501 79.848V78.9071C57.0533 78.9071 56.774 79.0471 56.5964 79.2848C56.4187 79.5225 56.3637 79.8301 56.4478 80.1147L57.3501 79.848ZM77.5002 79.848L78.4082 79.6012C78.2968 79.1914 77.9248 78.9071 77.5002 78.9071V79.848ZM95.9711 147.805V148.746C96.2642 148.746 96.5406 148.609 96.7186 148.377C96.8967 148.144 96.956 147.841 96.8791 147.558L95.9711 147.805ZM77.5002 147.805L76.6016 148.084C76.7238 148.478 77.088 148.746 77.5002 148.746V147.805ZM92.1189 117.679L91.2091 117.439C91.167 117.599 91.1677 117.767 91.211 117.926L92.1189 117.679ZM102.095 79.848V78.9071C101.668 78.9071 101.294 79.1949 101.185 79.608L102.095 79.848ZM121.85 79.848L122.752 80.1147C122.837 79.8301 122.782 79.5225 122.604 79.2848C122.426 79.0471 122.147 78.9071 121.85 78.9071V79.848ZM111.775 113.925L110.873 113.659L110.872 113.66L111.775 113.925ZM108.12 126.371L109.019 126.65C109.021 126.645 109.022 126.641 109.023 126.636L108.12 126.371ZM104.861 137.236L103.957 136.975C103.955 136.983 103.953 136.99 103.951 136.997L104.861 137.236ZM102.589 144.941L101.694 144.65L101.69 144.662L102.589 144.941ZM101.7 147.805V148.746C102.112 148.746 102.477 148.478 102.599 148.084L101.7 147.805ZM100.317 147.805L99.4094 148.052C99.5208 148.462 99.8927 148.746 100.317 148.746V147.805ZM77.5061 144.65C76.6551 142.032 75.903 139.481 75.2493 136.997L73.4295 137.476C74.0928 139.996 74.8552 142.582 75.7164 145.232L77.5061 144.65ZM75.2429 136.973L72.0821 126.108L70.2752 126.634L73.436 137.499L75.2429 136.973ZM72.0807 126.104C71.0264 122.545 70.1997 119.866 69.6019 118.073L67.8166 118.668C68.4041 120.43 69.2236 123.085 70.2765 126.638L72.0807 126.104ZM69.6184 118.128C69.0904 116.148 68.6564 114.644 68.3178 113.628L66.5325 114.223C66.8524 115.183 67.2745 116.642 67.8001 118.613L69.6184 118.128ZM68.3275 113.659L58.2524 79.5812L56.4478 80.1147L66.5229 114.192L68.3275 113.659ZM57.3501 80.7889H77.5002V78.9071H57.3501V80.7889ZM76.5922 80.0948L95.0632 148.052L96.8791 147.558L78.4082 79.6012L76.5922 80.0948ZM95.9711 146.864H77.5002V148.746H95.9711V146.864ZM78.3988 147.526L77.5099 144.662L75.7126 145.22L76.6016 148.084L78.3988 147.526ZM93.0287 117.919L103.005 80.0879L101.185 79.608L91.2091 117.439L93.0287 117.919ZM102.095 80.7889H121.85V78.9071H102.095V80.7889ZM120.948 79.5812L110.873 113.659L112.677 114.192L122.752 80.1147L120.948 79.5812ZM110.872 113.66L107.218 126.106L109.023 126.636L112.678 114.19L110.872 113.66ZM107.222 126.092C106.035 129.917 104.947 133.545 103.957 136.975L105.765 137.497C106.751 134.08 107.835 130.464 109.019 126.65L107.222 126.092ZM103.951 136.997C103.297 139.481 102.545 142.032 101.694 144.65L103.484 145.232C104.345 142.582 105.107 139.996 105.771 137.476L103.951 136.997ZM101.69 144.662L100.801 147.526L102.599 148.084L103.488 145.22L101.69 144.662ZM101.7 146.864H100.317V148.746H101.7V146.864ZM101.225 147.558L93.0268 117.432L91.211 117.926L99.4094 148.052L101.225 147.558ZM125.316 121.235L124.486 120.791C124.413 120.928 124.375 121.08 124.375 121.235H125.316ZM147.441 79.848V78.9071C147.094 78.9071 146.775 79.0982 146.612 79.4044L147.441 79.848ZM168.974 79.848L169.795 80.3079C169.958 80.0166 169.955 79.6605 169.786 79.3723C169.617 79.0841 169.308 78.9071 168.974 78.9071V79.848ZM138.255 134.668V135.609C138.596 135.609 138.91 135.425 139.076 135.128L138.255 134.668ZM125.316 134.668H124.375C124.375 135.188 124.796 135.609 125.316 135.609V134.668ZM156.825 134.668H157.766C157.766 134.148 157.345 133.727 156.825 133.727V134.668ZM142.997 134.668L142.176 134.207C142.013 134.498 142.016 134.855 142.184 135.143C142.353 135.432 142.662 135.609 142.997 135.609V134.668ZM151.491 119.556V118.615C151.151 118.615 150.838 118.798 150.671 119.094L151.491 119.556ZM156.924 119.556V120.496C157.268 120.496 157.584 120.309 157.749 120.007L156.924 119.556ZM164.332 106.023V105.082C163.988 105.082 163.672 105.27 163.507 105.572L164.332 106.023ZM176.185 106.023H177.126C177.126 105.504 176.705 105.082 176.185 105.082V106.023ZM176.185 119.556H175.244C175.244 120.075 175.665 120.496 176.185 120.496V119.556ZM184.482 119.556H185.423C185.423 119.036 185.002 118.615 184.482 118.615V119.556ZM184.482 134.668V135.609C185.002 135.609 185.423 135.188 185.423 134.668H184.482ZM176.185 134.668V133.727C175.665 133.727 175.244 134.148 175.244 134.668H176.185ZM176.185 147.805V148.746C176.705 148.746 177.126 148.325 177.126 147.805H176.185ZM156.825 147.805H155.884C155.884 148.325 156.305 148.746 156.825 148.746V147.805ZM126.146 121.678L148.271 80.2916L146.612 79.4044L124.486 120.791L126.146 121.678ZM147.441 80.7889H168.974V78.9071H147.441V80.7889ZM168.154 79.388L137.435 134.208L139.076 135.128L169.795 80.3079L168.154 79.388ZM138.255 133.727H125.316V135.609H138.255V133.727ZM126.257 134.668V121.235H124.375V134.668H126.257ZM156.825 133.727H142.997V135.609H156.825V133.727ZM143.817 135.129L152.311 120.017L150.671 119.094L142.176 134.207L143.817 135.129ZM151.491 120.496H156.924V118.615H151.491V120.496ZM157.749 120.007L165.157 106.475L163.507 105.572L156.098 119.104L157.749 120.007ZM164.332 106.964H176.185V105.082H164.332V106.964ZM175.244 106.023V119.556H177.126V106.023H175.244ZM176.185 120.496H184.482V118.615H176.185V120.496ZM183.541 119.556V134.668H185.423V119.556H183.541ZM184.482 133.727H176.185V135.609H184.482V133.727ZM175.244 134.668V147.805H177.126V134.668H175.244ZM176.185 146.864H156.825V148.746H176.185V146.864ZM157.766 147.805V134.668H155.884V147.805H157.766Z" fill="url(#paint1_linear_564_801)"/>
</g>
<defs>
<filter id="filter0_d_564_801" x="34.073" y="0.0486803" width="170.904" height="238.95" filterUnits="userSpaceOnUse" color-interpolation-filters="sRGB">
<feFlood flood-opacity="0" result="BackgroundImageFix"/>
<feColorMatrix in="SourceAlpha" type="matrix" values="0 0 0 0 0 0 0 0 0 0 0 0 0 0 0 0 0 0 127 0" result="hardAlpha"/>
<feOffset dy="6.97566"/>
<feGaussianBlur stdDeviation="10.4635"/>
<feColorMatrix type="matrix" values="0 0 0 0 0.248056 0 0 0 0 0.27965 0 0 0 0 0.391667 0 0 0 0.4 0"/>
<feBlend mode="normal" in2="BackgroundImageFix" result="effect1_dropShadow_564_801"/>
<feBlend mode="normal" in="SourceGraphic" in2="effect1_dropShadow_564_801" result="shape"/>
</filter>
<filter id="filter1_dd_564_801" x="0.895935" y="29.1543" width="240.04" height="180.866" filterUnits="userSpaceOnUse" color-interpolation-filters="sRGB">
<feFlood flood-opacity="0" result="BackgroundImageFix"/>
<feColorMatrix in="SourceAlpha" type="matrix" values="0 0 0 0 0 0 0 0 0 0 0 0 0 0 0 0 0 0 127 0" result="hardAlpha"/>
<feOffset/>
<feGaussianBlur stdDeviation="9.40903"/>
<feColorMatrix type="matrix" values="0 0 0 0 0.558594 0 0 0 0 0.710156 0 0 0 0 0.9375 0 0 0 1 0"/>
<feBlend mode="normal" in2="BackgroundImageFix" result="effect1_dropShadow_564_801"/>
<feColorMatrix in="SourceAlpha" type="matrix" values="0 0 0 0 0 0 0 0 0 0 0 0 0 0 0 0 0 0 127 0" result="hardAlpha"/>
<feOffset dy="5.7606"/>
<feGaussianBlur stdDeviation="28.2271"/>
<feColorMatrix type="matrix" values="0 0 0 0 0.670833 0 0 0 0 0.8025 0 0 0 0 1 0 0 0 0.6 0"/>
<feBlend mode="normal" in2="effect1_dropShadow_564_801" result="effect2_dropShadow_564_801"/>
<feBlend mode="normal" in="SourceGraphic" in2="effect2_dropShadow_564_801" result="shape"/>
</filter>
<linearGradient id="paint0_linear_564_801" x1="23.6095" y1="48.8783" x2="184.05" y2="193.623" gradientUnits="userSpaceOnUse">
<stop stop-color="#2C2E3C"/>
<stop offset="0.287328" stop-color="#2C2E3C"/>
<stop offset="0.479231" stop-color="#464960"/>
<stop offset="0.702708" stop-color="#2C2E3C"/>
<stop offset="1" stop-color="#2C2E3C"/>
</linearGradient>
<linearGradient id="paint1_linear_564_801" x1="87.6114" y1="-56.7592" x2="123.904" y2="31.876" gradientUnits="userSpaceOnUse">
<stop stop-color="white"/>
<stop offset="1" stop-color="#D8E5FF"/>
</linearGradient>
</defs>
</svg>
