<svg width="240" height="239" viewBox="0 0 240 239" fill="none" xmlns="http://www.w3.org/2000/svg">
<g filter="url(#filter0_d_564_809)">
<path d="M55 14H184.05V168.488C184.05 172.179 182.106 175.596 178.934 177.482L124.872 209.627C121.577 211.586 117.473 211.586 114.177 209.627L60.1159 177.482C56.9439 175.596 55 172.179 55 168.488V14Z" fill="url(#paint0_linear_564_809)"/>
</g>
<g filter="url(#filter1_dd_564_809)">
<path d="M76.2254 144.941C75.3693 142.307 74.612 139.739 73.9535 137.236L70.7927 126.371C69.7391 122.815 68.916 120.148 68.3234 118.37C67.7966 116.395 67.3685 114.913 67.0393 113.925L56.9642 79.848H77.1143L95.5853 147.805H77.1143L76.2254 144.941ZM91.733 117.679L101.709 79.848H121.464L111.389 113.925L107.735 126.371C106.549 130.19 105.463 133.812 104.475 137.236C103.817 139.739 103.059 142.307 102.203 144.941L101.314 147.805H99.9314L91.733 117.679ZM173.428 95.0593C166.646 94.4667 162.234 94.1703 160.193 94.1703C157.822 94.1703 155.912 94.2691 154.464 94.4667C153.015 94.5984 151.83 94.9276 150.908 95.4544V79.1565C151.896 79.0907 153.41 79.0578 155.451 79.0578C159.468 79.0578 163.584 79.2882 167.798 79.7492C172.079 80.2101 175.799 80.7699 178.96 81.4284V95.5532L173.428 95.0593ZM155.748 148.595C151.336 148.595 147.714 148.464 144.882 148.2C142.117 147.937 139.746 147.443 137.771 146.719C135.532 145.928 133.688 144.743 132.239 143.163C130.856 141.582 129.77 139.541 128.98 137.039C127.399 132.232 126.609 124.494 126.609 113.827C126.609 107.505 126.905 102.303 127.498 98.2201C128.091 94.0716 129.111 90.7132 130.56 88.1451C132.009 85.5111 134.017 83.5356 136.585 82.2186C139.154 80.9016 142.545 80.0126 146.759 79.5516V125.877C146.759 127.787 146.891 129.235 147.154 130.223C147.484 131.211 147.977 131.968 148.636 132.495C149.229 132.956 149.953 133.252 150.809 133.384C151.731 133.45 153.114 133.483 154.958 133.483H157.427C157.954 133.483 158.612 133.417 159.402 133.285V148.497C159.007 148.562 158.415 148.595 157.624 148.595H155.748ZM163.551 126.569C163.551 124.922 163.419 123.638 163.156 122.716C162.892 121.729 162.464 121.004 161.872 120.543C161.279 120.082 160.456 119.786 159.402 119.654C158.415 119.523 156.933 119.457 154.958 119.457C153.377 119.457 152.027 119.556 150.908 119.753V106.418C153.805 105.036 157.295 104.344 161.378 104.344C165.197 104.344 168.358 104.575 170.86 105.036C173.363 105.431 175.47 106.287 177.182 107.604C179.026 109.052 180.409 111.16 181.33 113.925C182.252 116.691 182.713 120.28 182.713 124.692C182.713 128.775 182.417 132.199 181.824 134.964C181.232 137.73 180.277 140.035 178.96 141.879C177.511 143.722 175.536 145.171 173.033 146.225C170.531 147.278 167.37 147.97 163.551 148.299V126.569Z" fill="#F1F2FF"/>
<path d="M76.2254 144.941L77.1241 144.662L77.1202 144.65L76.2254 144.941ZM73.9535 137.236L74.8635 136.997C74.8614 136.989 74.8593 136.981 74.857 136.973L73.9535 137.236ZM70.7927 126.371L71.6962 126.108L71.6949 126.104L70.7927 126.371ZM68.3234 118.37L67.4142 118.613C67.4192 118.631 67.4247 118.65 67.4308 118.668L68.3234 118.37ZM67.0393 113.925L66.137 114.192C66.14 114.202 66.1433 114.213 66.1467 114.223L67.0393 113.925ZM56.9642 79.848V78.9071C56.6675 78.9071 56.3881 79.0471 56.2105 79.2848C56.0329 79.5225 55.9778 79.8301 56.0619 80.1147L56.9642 79.848ZM77.1143 79.848L78.0223 79.6012C77.9109 79.1914 77.5389 78.9071 77.1143 78.9071V79.848ZM95.5853 147.805V148.746C95.8784 148.746 96.1548 148.609 96.3328 148.377C96.5108 148.144 96.5701 147.841 96.4932 147.558L95.5853 147.805ZM77.1143 147.805L76.2157 148.084C76.3379 148.478 76.7021 148.746 77.1143 148.746V147.805ZM91.733 117.679L90.8232 117.439C90.7811 117.599 90.7818 117.767 90.8252 117.926L91.733 117.679ZM101.709 79.848V78.9071C101.282 78.9071 100.908 79.1949 100.8 79.608L101.709 79.848ZM121.464 79.848L122.367 80.1147C122.451 79.8301 122.396 79.5225 122.218 79.2848C122.04 79.0471 121.761 78.9071 121.464 78.9071V79.848ZM111.389 113.925L110.487 113.659L110.486 113.66L111.389 113.925ZM107.735 126.371L108.633 126.65C108.635 126.645 108.636 126.641 108.637 126.636L107.735 126.371ZM104.475 137.236L103.571 136.975C103.569 136.983 103.567 136.99 103.565 136.997L104.475 137.236ZM102.203 144.941L101.308 144.65L101.305 144.662L102.203 144.941ZM101.314 147.805V148.746C101.726 148.746 102.091 148.478 102.213 148.084L101.314 147.805ZM99.9314 147.805L99.0235 148.052C99.135 148.462 99.5069 148.746 99.9314 148.746V147.805ZM77.1202 144.65C76.2693 142.032 75.5171 139.481 74.8635 136.997L73.0436 137.476C73.707 139.996 74.4694 142.582 75.3305 145.232L77.1202 144.65ZM74.857 136.973L71.6962 126.108L69.8893 126.634L73.0501 137.499L74.857 136.973ZM71.6949 126.104C70.6406 122.545 69.8138 119.866 69.216 118.073L67.4308 118.668C68.0182 120.43 68.8377 123.085 69.8906 126.638L71.6949 126.104ZM69.2325 118.128C68.7045 116.148 68.2705 114.644 67.9319 113.628L66.1467 114.223C66.4666 115.183 66.8886 116.642 67.4142 118.613L69.2325 118.128ZM67.9416 113.659L57.8665 79.5812L56.0619 80.1147L66.137 114.192L67.9416 113.659ZM56.9642 80.7889H77.1143V78.9071H56.9642V80.7889ZM76.2064 80.0948L94.6773 148.052L96.4932 147.558L78.0223 79.6012L76.2064 80.0948ZM95.5853 146.864H77.1143V148.746H95.5853V146.864ZM78.013 147.526L77.124 144.662L75.3267 145.22L76.2157 148.084L78.013 147.526ZM92.6428 117.919L102.619 80.0879L100.8 79.608L90.8232 117.439L92.6428 117.919ZM101.709 80.7889H121.464V78.9071H101.709V80.7889ZM120.562 79.5812L110.487 113.659L112.292 114.192L122.367 80.1147L120.562 79.5812ZM110.486 113.66L106.832 126.106L108.637 126.636L112.292 114.19L110.486 113.66ZM106.836 126.092C105.649 129.917 104.561 133.545 103.571 136.975L105.379 137.497C106.365 134.08 107.45 130.464 108.633 126.65L106.836 126.092ZM103.565 136.997C102.911 139.481 102.159 142.032 101.308 144.65L103.098 145.232C103.959 142.582 104.722 139.996 105.385 137.476L103.565 136.997ZM101.305 144.662L100.416 147.526L102.213 148.084L103.102 145.22L101.305 144.662ZM101.314 146.864H99.9314V148.746H101.314V146.864ZM100.839 147.558L92.6409 117.432L90.8252 117.926L99.0235 148.052L100.839 147.558ZM173.428 95.0593L173.512 94.1221L173.51 94.122L173.428 95.0593ZM154.464 94.4667L154.549 95.4037C154.563 95.4024 154.577 95.4008 154.591 95.3989L154.464 94.4667ZM150.908 95.4544H149.967C149.967 95.7898 150.145 96.0999 150.436 96.2682C150.726 96.4366 151.083 96.4378 151.375 96.2713L150.908 95.4544ZM150.908 79.1565L150.845 78.2177C150.351 78.2507 149.967 78.6612 149.967 79.1565H150.908ZM167.798 79.7492L167.696 80.6845L167.698 80.6847L167.798 79.7492ZM178.96 81.4284H179.901C179.901 80.9827 179.588 80.5981 179.152 80.5072L178.96 81.4284ZM178.96 95.5532L178.876 96.4904C179.139 96.5139 179.4 96.4257 179.595 96.2475C179.79 96.0692 179.901 95.8173 179.901 95.5532H178.96ZM144.882 148.2L144.793 149.137L144.795 149.137L144.882 148.2ZM137.771 146.719L138.095 145.835L138.084 145.831L137.771 146.719ZM132.239 143.163L131.531 143.782C131.536 143.788 131.541 143.793 131.546 143.799L132.239 143.163ZM128.98 137.039L129.877 136.755L129.874 136.745L128.98 137.039ZM127.498 98.2201L128.429 98.3553L128.43 98.3532L127.498 98.2201ZM130.56 88.1451L131.38 88.6074L131.385 88.5985L130.56 88.1451ZM136.585 82.2186L136.156 81.3813L136.156 81.3813L136.585 82.2186ZM146.759 79.5516H147.7C147.7 79.2843 147.586 79.0296 147.387 78.8511C147.188 78.6726 146.923 78.5872 146.657 78.6163L146.759 79.5516ZM147.154 130.223L146.245 130.466C146.25 130.484 146.256 130.503 146.262 130.521L147.154 130.223ZM148.636 132.495L148.048 133.23L148.058 133.238L148.636 132.495ZM150.809 133.384L150.666 134.314C150.691 134.318 150.717 134.321 150.742 134.323L150.809 133.384ZM159.402 133.285H160.343C160.343 133.009 160.222 132.746 160.011 132.567C159.8 132.389 159.521 132.312 159.248 132.357L159.402 133.285ZM159.402 148.497L159.557 149.425C160.011 149.349 160.343 148.957 160.343 148.497H159.402ZM163.156 122.716L162.247 122.959C162.248 122.964 162.25 122.969 162.251 122.975L163.156 122.716ZM159.402 119.654L159.278 120.587L159.286 120.588L159.402 119.654ZM150.908 119.753H149.967C149.967 120.031 150.09 120.295 150.303 120.474C150.516 120.653 150.797 120.728 151.071 120.68L150.908 119.753ZM150.908 106.418L150.502 105.569C150.175 105.725 149.967 106.056 149.967 106.418H150.908ZM170.86 105.036L170.69 105.961C170.698 105.962 170.706 105.964 170.714 105.965L170.86 105.036ZM177.182 107.604L177.763 106.864L177.756 106.858L177.182 107.604ZM181.824 134.964L180.904 134.767L180.904 134.767L181.824 134.964ZM178.96 141.879L179.7 142.46C179.709 142.449 179.717 142.437 179.726 142.426L178.96 141.879ZM173.033 146.225L172.668 145.358L173.033 146.225ZM163.551 148.299H162.61C162.61 148.563 162.721 148.814 162.915 148.992C163.109 149.171 163.369 149.259 163.632 149.236L163.551 148.299ZM173.51 94.122C166.738 93.5302 162.283 93.2294 160.193 93.2294V95.1112C162.185 95.1112 166.554 95.4031 173.347 95.9966L173.51 94.122ZM160.193 93.2294C157.802 93.2294 155.845 93.3287 154.337 93.5344L154.591 95.3989C155.98 95.2095 157.842 95.1112 160.193 95.1112V93.2294ZM154.378 93.5296C152.842 93.6693 151.515 94.0238 150.441 94.6375L151.375 96.2713C152.144 95.8314 153.188 95.5274 154.549 95.4037L154.378 93.5296ZM151.849 95.4544V79.1565H149.967V95.4544H151.849ZM150.97 80.0954C151.925 80.0317 153.414 79.9987 155.451 79.9987V78.1169C153.406 78.1169 151.866 78.1497 150.845 78.2177L150.97 80.0954ZM155.451 79.9987C159.432 79.9987 163.514 80.2271 167.696 80.6845L167.901 78.8139C163.654 78.3494 159.504 78.1169 155.451 78.1169V79.9987ZM167.698 80.6847C171.957 81.1434 175.645 81.6989 178.768 82.3495L179.152 80.5072C175.953 79.8408 172.201 79.2769 167.899 78.8137L167.698 80.6847ZM178.019 81.4284V95.5532H179.901V81.4284H178.019ZM179.044 94.616L173.512 94.1221L173.345 95.9965L178.876 96.4904L179.044 94.616ZM155.748 147.654C151.351 147.654 147.761 147.523 144.97 147.263L144.795 149.137C147.667 149.404 151.321 149.536 155.748 149.536V147.654ZM144.972 147.264C142.262 147.006 139.975 146.525 138.095 145.835L137.447 147.602C139.518 148.361 141.971 148.868 144.793 149.137L144.972 147.264ZM138.084 145.831C135.975 145.087 134.266 143.982 132.933 142.527L131.546 143.799C133.11 145.505 135.089 146.77 137.458 147.606L138.084 145.831ZM132.947 142.543C131.669 141.082 130.637 139.164 129.877 136.755L128.082 137.322C128.902 139.918 130.044 142.083 131.531 143.782L132.947 142.543ZM129.874 136.745C128.343 132.089 127.55 124.48 127.55 113.827H125.668C125.668 124.509 126.456 132.374 128.086 137.333L129.874 136.745ZM127.55 113.827C127.55 107.529 127.846 102.376 128.429 98.3553L126.567 98.085C125.965 102.229 125.668 107.481 125.668 113.827H127.55ZM128.43 98.3532C129.012 94.2755 130.007 91.0405 131.38 88.6074L129.741 87.6828C128.216 90.386 127.169 93.8677 126.567 98.0871L128.43 98.3532ZM131.385 88.5985C132.747 86.1217 134.621 84.2834 137.015 83.0558L136.156 81.3813C133.414 82.7877 131.271 84.9004 129.736 87.6916L131.385 88.5985ZM137.015 83.0558C139.445 81.8096 142.713 80.9408 146.862 80.487L146.657 78.6163C142.377 79.0844 138.862 79.9935 136.156 81.3813L137.015 83.0558ZM145.818 79.5516V125.877H147.7V79.5516H145.818ZM145.818 125.877C145.818 127.811 145.95 129.358 146.245 130.466L148.063 129.981C147.832 129.113 147.7 127.763 147.7 125.877H145.818ZM146.262 130.521C146.635 131.64 147.218 132.566 148.048 133.23L149.224 131.76C148.737 131.371 148.332 130.782 148.047 129.926L146.262 130.521ZM148.058 133.238C148.796 133.811 149.676 134.162 150.666 134.314L150.952 132.454C150.23 132.343 149.661 132.101 149.214 131.752L148.058 133.238ZM150.742 134.323C151.699 134.391 153.109 134.424 154.958 134.424V132.542C153.119 132.542 151.763 132.509 150.876 132.446L150.742 134.323ZM154.958 134.424H157.427V132.542H154.958V134.424ZM157.427 134.424C158.025 134.424 158.739 134.35 159.557 134.213L159.248 132.357C158.485 132.484 157.883 132.542 157.427 132.542V134.424ZM158.462 133.285V148.497H160.343V133.285H158.462ZM159.248 147.569C158.932 147.621 158.403 147.654 157.624 147.654V149.536C158.427 149.536 159.083 149.504 159.557 149.425L159.248 147.569ZM157.624 147.654H155.748V149.536H157.624V147.654ZM164.492 126.569C164.492 124.888 164.359 123.503 164.061 122.458L162.251 122.975C162.479 123.774 162.61 124.957 162.61 126.569H164.492ZM164.065 122.474C163.768 121.359 163.254 120.426 162.449 119.801L161.294 121.286C161.675 121.582 162.017 122.099 162.247 122.959L164.065 122.474ZM162.449 119.801C161.679 119.201 160.675 118.865 159.519 118.721L159.286 120.588C160.237 120.707 160.879 120.963 161.294 121.286L162.449 119.801ZM159.527 118.722C158.475 118.581 156.943 118.516 154.958 118.516V120.398C156.923 120.398 158.354 120.464 159.278 120.587L159.527 118.722ZM154.958 118.516C153.342 118.516 151.934 118.617 150.744 118.826L151.071 120.68C152.12 120.495 153.412 120.398 154.958 120.398V118.516ZM151.849 119.753V106.418H149.967V119.753H151.849ZM151.313 107.268C154.054 105.959 157.399 105.285 161.378 105.285V103.403C157.192 103.403 153.556 104.112 150.502 105.569L151.313 107.268ZM161.378 105.285C165.165 105.285 168.264 105.514 170.69 105.961L171.031 104.11C168.452 103.635 165.229 103.403 161.378 103.403V105.285ZM170.714 105.965C173.087 106.34 175.041 107.144 176.608 108.35L177.756 106.858C175.899 105.43 173.638 104.522 171.007 104.106L170.714 105.965ZM176.601 108.344C178.268 109.654 179.56 111.589 180.438 114.223L182.223 113.628C181.257 110.73 179.784 108.451 177.763 106.864L176.601 108.344ZM180.438 114.223C181.316 116.857 181.772 120.335 181.772 124.692H183.654C183.654 120.225 183.189 116.525 182.223 113.628L180.438 114.223ZM181.772 124.692C181.772 128.735 181.478 132.088 180.904 134.767L182.744 135.162C183.356 132.31 183.654 128.814 183.654 124.692H181.772ZM180.904 134.767C180.332 137.437 179.42 139.615 178.194 141.332L179.726 142.426C181.133 140.454 182.131 138.023 182.744 135.162L180.904 134.767ZM178.22 141.297C176.885 142.997 175.047 144.356 172.668 145.358L173.398 147.092C176.025 145.986 178.138 144.448 179.7 142.46L178.22 141.297ZM172.668 145.358C170.285 146.361 167.229 147.038 163.47 147.362L163.632 149.236C167.512 148.902 170.777 148.196 173.398 147.092L172.668 145.358ZM164.492 148.299V126.569H162.61V148.299H164.492Z" fill="url(#paint1_linear_564_809)"/>
</g>
<defs>
<filter id="filter0_d_564_809" x="34.073" y="0.0486803" width="170.904" height="238.95" filterUnits="userSpaceOnUse" color-interpolation-filters="sRGB">
<feFlood flood-opacity="0" result="BackgroundImageFix"/>
<feColorMatrix in="SourceAlpha" type="matrix" values="0 0 0 0 0 0 0 0 0 0 0 0 0 0 0 0 0 0 127 0" result="hardAlpha"/>
<feOffset dy="6.97566"/>
<feGaussianBlur stdDeviation="10.4635"/>
<feColorMatrix type="matrix" values="0 0 0 0 0.248056 0 0 0 0 0.27965 0 0 0 0 0.391667 0 0 0 0.4 0"/>
<feBlend mode="normal" in2="BackgroundImageFix" result="effect1_dropShadow_564_809"/>
<feBlend mode="normal" in="SourceGraphic" in2="effect1_dropShadow_564_809" result="shape"/>
</filter>
<filter id="filter1_dd_564_809" x="0.510071" y="28.3642" width="238.657" height="182.446" filterUnits="userSpaceOnUse" color-interpolation-filters="sRGB">
<feFlood flood-opacity="0" result="BackgroundImageFix"/>
<feColorMatrix in="SourceAlpha" type="matrix" values="0 0 0 0 0 0 0 0 0 0 0 0 0 0 0 0 0 0 127 0" result="hardAlpha"/>
<feOffset/>
<feGaussianBlur stdDeviation="9.40903"/>
<feColorMatrix type="matrix" values="0 0 0 0 0.558594 0 0 0 0 0.710156 0 0 0 0 0.9375 0 0 0 1 0"/>
<feBlend mode="normal" in2="BackgroundImageFix" result="effect1_dropShadow_564_809"/>
<feColorMatrix in="SourceAlpha" type="matrix" values="0 0 0 0 0 0 0 0 0 0 0 0 0 0 0 0 0 0 127 0" result="hardAlpha"/>
<feOffset dy="5.7606"/>
<feGaussianBlur stdDeviation="28.2271"/>
<feColorMatrix type="matrix" values="0 0 0 0 0.670833 0 0 0 0 0.8025 0 0 0 0 1 0 0 0 0.6 0"/>
<feBlend mode="normal" in2="effect1_dropShadow_564_809" result="effect2_dropShadow_564_809"/>
<feBlend mode="normal" in="SourceGraphic" in2="effect2_dropShadow_564_809" result="shape"/>
</filter>
<linearGradient id="paint0_linear_564_809" x1="23.6095" y1="48.8783" x2="184.05" y2="193.623" gradientUnits="userSpaceOnUse">
<stop stop-color="#2C2E3C"/>
<stop offset="0.287328" stop-color="#2C2E3C"/>
<stop offset="0.479231" stop-color="#464960"/>
<stop offset="0.702708" stop-color="#2C2E3C"/>
<stop offset="1" stop-color="#2C2E3C"/>
</linearGradient>
<linearGradient id="paint1_linear_564_809" x1="87.6113" y1="-56.7592" x2="123.904" y2="31.876" gradientUnits="userSpaceOnUse">
<stop stop-color="white"/>
<stop offset="1" stop-color="#D8E5FF"/>
</linearGradient>
</defs>
</svg>
