<svg width="213" height="239" viewBox="0 0 213 239" fill="none" xmlns="http://www.w3.org/2000/svg">
<g filter="url(#filter0_d_564_789)">
<path d="M43 14H172.05V168.488C172.05 172.179 170.106 175.596 166.934 177.482L112.872 209.627C109.577 211.586 105.473 211.586 102.177 209.627L48.1159 177.482C44.9439 175.596 43 172.179 43 168.488V14Z" fill="url(#paint0_linear_564_789)"/>
</g>
<g filter="url(#filter1_dd_564_789)">
<path d="M76.5545 144.941C75.6985 142.307 74.9412 139.739 74.2827 137.236L71.1219 126.371C70.0683 122.815 69.2452 120.148 68.6525 118.37C68.1257 116.395 67.6977 114.913 67.3685 113.925L57.2934 79.848H77.4435L95.9144 147.805H77.4435L76.5545 144.941ZM92.0622 117.679L102.038 79.848H121.794L111.718 113.925L108.064 126.371C106.878 130.19 105.792 133.812 104.804 137.236C104.146 139.739 103.388 142.307 102.532 144.941L101.643 147.805H100.261L92.0622 117.679ZM135.828 99.7017L123.284 104.443V89.034L142.446 79.848H155.583V147.805H135.828V99.7017Z" fill="#F1F2FF"/>
<path d="M76.5545 144.941L77.4532 144.662L77.4494 144.65L76.5545 144.941ZM74.2827 137.236L75.1926 136.997C75.1906 136.989 75.1884 136.981 75.1862 136.973L74.2827 137.236ZM71.1219 126.371L72.0254 126.108L72.0241 126.104L71.1219 126.371ZM68.6525 118.37L67.7434 118.613C67.7484 118.631 67.7539 118.65 67.7599 118.668L68.6525 118.37ZM67.3685 113.925L66.4662 114.192C66.4692 114.202 66.4724 114.213 66.4758 114.223L67.3685 113.925ZM57.2934 79.848V78.9071C56.9967 78.9071 56.7173 79.0471 56.5397 79.2848C56.362 79.5225 56.307 79.8301 56.3911 80.1147L57.2934 79.848ZM77.4435 79.848L78.3515 79.6012C78.2401 79.1914 77.8681 78.9071 77.4435 78.9071V79.848ZM95.9144 147.805V148.746C96.2076 148.746 96.4839 148.609 96.6619 148.377C96.84 148.144 96.8993 147.841 96.8224 147.558L95.9144 147.805ZM77.4435 147.805L76.5449 148.084C76.6671 148.478 77.0313 148.746 77.4435 148.746V147.805ZM92.0622 117.679L91.1524 117.439C91.1103 117.599 91.111 117.767 91.1543 117.926L92.0622 117.679ZM102.038 79.848V78.9071C101.611 78.9071 101.238 79.1949 101.129 79.608L102.038 79.848ZM121.794 79.848L122.696 80.1147C122.78 79.8301 122.725 79.5225 122.547 79.2848C122.37 79.0471 122.09 78.9071 121.794 78.9071V79.848ZM111.718 113.925L110.816 113.659L110.816 113.66L111.718 113.925ZM108.064 126.371L108.962 126.65C108.964 126.645 108.965 126.641 108.967 126.636L108.064 126.371ZM104.804 137.236L103.9 136.975C103.898 136.983 103.896 136.99 103.894 136.997L104.804 137.236ZM102.532 144.941L101.637 144.65L101.634 144.662L102.532 144.941ZM101.643 147.805V148.746C102.056 148.746 102.42 148.478 102.542 148.084L101.643 147.805ZM100.261 147.805L99.3527 148.052C99.4641 148.462 99.8361 148.746 100.261 148.746V147.805ZM77.4494 144.65C76.5985 142.032 75.8463 139.481 75.1926 136.997L73.3728 137.476C74.0361 139.996 74.7985 142.582 75.6597 145.232L77.4494 144.65ZM75.1862 136.973L72.0254 126.108L70.2185 126.634L73.3793 137.499L75.1862 136.973ZM72.0241 126.104C70.9697 122.545 70.143 119.866 69.5452 118.073L67.7599 118.668C68.3474 120.43 69.1669 123.085 70.2198 126.638L72.0241 126.104ZM69.5617 118.128C69.0337 116.148 68.5997 114.644 68.2611 113.628L66.4758 114.223C66.7957 115.183 67.2178 116.642 67.7434 118.613L69.5617 118.128ZM68.2708 113.659L58.1957 79.5812L56.3911 80.1147L66.4662 114.192L68.2708 113.659ZM57.2934 80.7889H77.4435V78.9071H57.2934V80.7889ZM76.5356 80.0948L95.0065 148.052L96.8224 147.558L78.3515 79.6012L76.5356 80.0948ZM95.9144 146.864H77.4435V148.746H95.9144V146.864ZM78.3421 147.526L77.4532 144.662L75.6559 145.22L76.5449 148.084L78.3421 147.526ZM92.972 117.919L102.948 80.0879L101.129 79.608L91.1524 117.439L92.972 117.919ZM102.038 80.7889H121.794V78.9071H102.038V80.7889ZM120.891 79.5812L110.816 113.659L112.621 114.192L122.696 80.1147L120.891 79.5812ZM110.816 113.66L107.161 126.106L108.967 126.636L112.621 114.19L110.816 113.66ZM107.165 126.092C105.978 129.917 104.89 133.545 103.9 136.975L105.708 137.497C106.694 134.08 107.779 130.464 108.962 126.65L107.165 126.092ZM103.894 136.997C103.241 139.481 102.488 142.032 101.638 144.65L103.427 145.232C104.288 142.582 105.051 139.996 105.714 137.476L103.894 136.997ZM101.634 144.662L100.745 147.526L102.542 148.084L103.431 145.22L101.634 144.662ZM101.643 146.864H100.261V148.746H101.643V146.864ZM101.168 147.558L92.9701 117.432L91.1543 117.926L99.3527 148.052L101.168 147.558ZM135.828 99.7017H136.769C136.769 99.3927 136.617 99.1034 136.363 98.9277C136.109 98.752 135.784 98.7124 135.495 98.8216L135.828 99.7017ZM123.284 104.443H122.343C122.343 104.752 122.494 105.041 122.749 105.217C123.003 105.393 123.327 105.432 123.616 105.323L123.284 104.443ZM123.284 89.034L122.877 88.1856C122.55 88.3421 122.343 88.672 122.343 89.034H123.284ZM142.446 79.848V78.9071C142.305 78.9071 142.166 78.9387 142.039 78.9995L142.446 79.848ZM155.583 79.848H156.524C156.524 79.3283 156.103 78.9071 155.583 78.9071V79.848ZM155.583 147.805V148.746C156.103 148.746 156.524 148.325 156.524 147.805H155.583ZM135.828 147.805H134.887C134.887 148.325 135.308 148.746 135.828 148.746V147.805ZM135.495 98.8216L122.951 103.563L123.616 105.323L136.161 100.582L135.495 98.8216ZM124.225 104.443V89.034H122.343V104.443H124.225ZM123.69 89.8825L142.853 80.6964L142.039 78.9995L122.877 88.1856L123.69 89.8825ZM142.446 80.7889H155.583V78.9071H142.446V80.7889ZM154.642 79.848V147.805H156.524V79.848H154.642ZM155.583 146.864H135.828V148.746H155.583V146.864ZM136.769 147.805V99.7017H134.887V147.805H136.769Z" fill="url(#paint1_linear_564_789)"/>
</g>
<defs>
<filter id="filter0_d_564_789" x="22.073" y="0.0486803" width="170.904" height="238.95" filterUnits="userSpaceOnUse" color-interpolation-filters="sRGB">
<feFlood flood-opacity="0" result="BackgroundImageFix"/>
<feColorMatrix in="SourceAlpha" type="matrix" values="0 0 0 0 0 0 0 0 0 0 0 0 0 0 0 0 0 0 127 0" result="hardAlpha"/>
<feOffset dy="6.97566"/>
<feGaussianBlur stdDeviation="10.4635"/>
<feColorMatrix type="matrix" values="0 0 0 0 0.248056 0 0 0 0 0.27965 0 0 0 0 0.391667 0 0 0 0.4 0"/>
<feBlend mode="normal" in2="BackgroundImageFix" result="effect1_dropShadow_564_789"/>
<feBlend mode="normal" in="SourceGraphic" in2="effect1_dropShadow_564_789" result="shape"/>
</filter>
<filter id="filter1_dd_564_789" x="0.839233" y="29.1543" width="211.198" height="180.866" filterUnits="userSpaceOnUse" color-interpolation-filters="sRGB">
<feFlood flood-opacity="0" result="BackgroundImageFix"/>
<feColorMatrix in="SourceAlpha" type="matrix" values="0 0 0 0 0 0 0 0 0 0 0 0 0 0 0 0 0 0 127 0" result="hardAlpha"/>
<feOffset/>
<feGaussianBlur stdDeviation="9.40903"/>
<feColorMatrix type="matrix" values="0 0 0 0 0.558594 0 0 0 0 0.710156 0 0 0 0 0.9375 0 0 0 1 0"/>
<feBlend mode="normal" in2="BackgroundImageFix" result="effect1_dropShadow_564_789"/>
<feColorMatrix in="SourceAlpha" type="matrix" values="0 0 0 0 0 0 0 0 0 0 0 0 0 0 0 0 0 0 127 0" result="hardAlpha"/>
<feOffset dy="5.7606"/>
<feGaussianBlur stdDeviation="28.2271"/>
<feColorMatrix type="matrix" values="0 0 0 0 0.670833 0 0 0 0 0.8025 0 0 0 0 1 0 0 0 0.6 0"/>
<feBlend mode="normal" in2="effect1_dropShadow_564_789" result="effect2_dropShadow_564_789"/>
<feBlend mode="normal" in="SourceGraphic" in2="effect2_dropShadow_564_789" result="shape"/>
</filter>
<linearGradient id="paint0_linear_564_789" x1="11.6095" y1="48.8783" x2="172.05" y2="193.623" gradientUnits="userSpaceOnUse">
<stop stop-color="#2C2E3C"/>
<stop offset="0.287328" stop-color="#2C2E3C"/>
<stop offset="0.479231" stop-color="#464960"/>
<stop offset="0.702708" stop-color="#2C2E3C"/>
<stop offset="1" stop-color="#2C2E3C"/>
</linearGradient>
<linearGradient id="paint1_linear_564_789" x1="81.6585" y1="-56.7592" x2="123.354" y2="25.6372" gradientUnits="userSpaceOnUse">
<stop stop-color="white"/>
<stop offset="1" stop-color="#D8E5FF"/>
</linearGradient>
</defs>
</svg>
