<svg width="267" height="280" viewBox="0 0 267 280" fill="none" xmlns="http://www.w3.org/2000/svg">
<path d="M119.904 111.851L115.539 13H150.464L146.098 111.851H119.904Z" fill="url(#paint0_linear_3_2730)"/>
<path d="M160.754 140.11L248.544 185.755L231.082 216.001L147.657 162.795L160.754 140.11Z" fill="url(#paint1_linear_3_2730)"/>
<path d="M145.474 164.551L149.84 263.401H114.915L119.281 164.551H145.474Z" fill="url(#paint2_linear_3_2730)"/>
<path d="M117.887 163.108L34.4626 216.314L17 186.068L104.79 140.424L117.887 163.108Z" fill="url(#paint3_linear_3_2730)"/>
<path d="M160.754 136.447L248.544 90.8027L231.082 60.5566L147.657 113.763L160.754 136.447Z" fill="url(#paint4_linear_3_2730)"/>
<path d="M117.887 113.448L34.4626 60.2422L17.0001 90.4883L104.79 136.133L117.887 113.448Z" fill="url(#paint5_linear_3_2730)"/>
<g filter="url(#filter0_dd_3_2730)">
<g filter="url(#filter1_d_3_2730)">
<path d="M126.124 53.3597L64.4102 86.9312C59.7057 89.4903 56.7772 94.4171 56.7772 99.7726L56.7772 176.745C56.7772 182.101 59.7057 187.028 64.4101 189.587L126.124 223.158C130.479 225.528 135.739 225.528 140.095 223.158L201.808 189.587C206.513 187.028 209.441 182.101 209.441 176.745L209.441 99.7726C209.441 94.4171 206.513 89.4904 201.808 86.9312L140.095 53.3597C135.739 50.9902 130.479 50.9902 126.124 53.3597Z" fill="url(#paint6_linear_3_2730)"/>
<path d="M126.059 66.7799L75.9847 94.02C71.298 96.5695 68.3805 101.478 68.3805 106.813L68.3805 169.397C68.3805 174.732 71.298 179.64 75.9847 182.19L126.059 209.43C130.399 211.79 135.639 211.79 139.978 209.43L190.052 182.19C194.739 179.64 197.657 174.732 197.657 169.397L197.657 106.813C197.657 101.478 194.739 96.5695 190.052 94.02L139.978 66.7799C135.639 64.4194 130.399 64.4194 126.059 66.7799Z" fill="url(#paint7_linear_3_2730)"/>
<g filter="url(#filter2_f_3_2730)">
<path d="M126.059 66.7799L75.9847 94.02C71.298 96.5695 68.3805 101.478 68.3805 106.813L68.3805 169.397C68.3805 174.732 71.298 179.64 75.9847 182.19L126.059 209.43C130.399 211.79 135.639 211.79 139.978 209.43L190.052 182.19C194.739 179.64 197.657 174.732 197.657 169.397L197.657 106.813C197.657 101.478 194.739 96.5695 190.052 94.02L139.978 66.7799C135.639 64.4194 130.399 64.4194 126.059 66.7799Z" stroke="url(#paint8_linear_3_2730)" stroke-width="0.859914"/>
</g>
<g opacity="0.5">
<mask id="mask0_3_2730" style="mask-type:alpha" maskUnits="userSpaceOnUse" x="73" y="71" width="120" height="135">
<path d="M126.8 72.696L81.1146 97.5263C76.6539 99.9507 73.8767 104.621 73.8767 109.698L73.8767 166.75C73.8767 171.827 76.6539 176.497 81.1146 178.922L126.8 203.752C130.926 205.994 135.906 205.994 140.031 203.752L185.717 178.922C190.178 176.497 192.955 171.827 192.955 166.75L192.955 109.698C192.955 104.621 190.178 99.9507 185.717 97.5263L140.031 72.696C135.906 70.4539 130.926 70.4539 126.8 72.696Z" fill="#A6D3DE"/>
</mask>
<g mask="url(#mask0_3_2730)">
<path d="M126.8 72.696L81.1146 97.5263C76.6539 99.9507 73.8767 104.621 73.8767 109.698L73.8767 166.75C73.8767 171.827 76.6539 176.497 81.1146 178.922L126.8 203.752C130.926 205.994 135.906 205.994 140.031 203.752L185.717 178.922C190.178 176.497 192.955 171.827 192.955 166.75L192.955 109.698C192.955 104.621 190.178 99.9507 185.717 97.5263L140.031 72.696C135.906 70.4539 130.926 70.4539 126.8 72.696Z" fill="url(#paint9_radial_3_2730)"/>
<path opacity="0.5" d="M123.462 210.078L121.097 66.3633H145.734L143.369 210.078H123.462Z" fill="url(#paint10_linear_3_2730)"/>
<path opacity="0.5" d="M123.146 208.803L49.24 85.5254L70.5761 73.207L140.385 198.85L123.146 208.803Z" fill="url(#paint11_linear_3_2730)"/>
<path opacity="0.5" d="M121.092 198.85L190.901 73.207L212.237 85.5254L138.332 208.804L121.092 198.85Z" fill="url(#paint12_linear_3_2730)"/>
<rect x="73.8768" y="130.008" width="119.078" height="77.3323" fill="url(#paint13_linear_3_2730)"/>
<g filter="url(#filter3_i_3_2730)">
<path d="M126.8 72.696L81.1146 97.5263C76.6539 99.9507 73.8767 104.621 73.8767 109.698L73.8767 166.75C73.8767 171.827 76.6539 176.497 81.1146 178.922L126.8 203.752C130.926 205.994 135.906 205.994 140.031 203.752L185.717 178.922C190.178 176.497 192.955 171.827 192.955 166.75L192.955 109.698C192.955 104.621 190.178 99.9507 185.717 97.5263L140.031 72.696C135.906 70.4539 130.926 70.4539 126.8 72.696Z" fill="#6052B4" fill-opacity="0.01"/>
</g>
</g>
</g>
</g>
<g filter="url(#filter4_f_3_2730)">
<path d="M173.26 162.909L197.632 192.141L210.761 169.4L173.26 162.909Z" fill="url(#paint14_linear_3_2730)"/>
</g>
<mask id="mask1_3_2730" style="mask-type:alpha" maskUnits="userSpaceOnUse" x="184" y="168" width="32" height="28">
<path fill-rule="evenodd" clip-rule="evenodd" d="M198.935 195.252C199.194 195.728 199.823 195.85 200.24 195.504L212.473 185.367C212.473 185.367 212.473 185.367 212.473 185.367C212.473 185.367 212.473 185.366 212.473 185.366L215.135 169.704C215.226 169.17 214.806 168.686 214.264 168.7L184.986 169.496C184.985 169.496 184.984 169.496 184.984 169.496L184.978 169.492C184.977 169.492 184.975 169.493 184.976 169.494C184.977 169.495 184.976 169.497 184.975 169.497L184.885 169.499C184.828 169.501 184.809 169.576 184.858 169.605L185.083 169.733C185.104 169.745 185.121 169.763 185.133 169.784L198.935 195.252Z" fill="url(#paint15_linear_3_2730)"/>
</mask>
<g mask="url(#mask1_3_2730)">
<path d="M213.006 185.773L199.539 196.171L182.103 167.785L213.006 185.773Z" fill="url(#paint16_linear_3_2730)"/>
<path d="M213.005 185.773L215.277 168.912L182.826 168.349L213.005 185.773Z" fill="url(#paint17_linear_3_2730)"/>
</g>
<g filter="url(#filter5_f_3_2730)">
<path d="M133.719 92.9158L120.59 57.1924H146.848L133.719 92.9158Z" fill="url(#paint18_linear_3_2730)"/>
</g>
<mask id="mask2_3_2730" style="mask-type:alpha" maskUnits="userSpaceOnUse" x="118" y="48" width="31" height="33">
<path fill-rule="evenodd" clip-rule="evenodd" d="M133.733 48.2569C133.733 48.2569 133.733 48.2569 133.733 48.2569L133.733 48.2568C133.733 48.2568 133.733 48.2569 133.733 48.257C133.733 48.2571 133.733 48.2571 133.733 48.2571L147.647 53.4185C148.663 53.7955 149.081 55.0071 148.514 55.9307L133.733 80.0094C133.733 80.0094 133.733 80.0095 133.733 80.0095L133.733 80.0103C133.733 80.0105 133.733 80.0105 133.733 80.0104C133.733 80.0103 133.733 80.0103 133.733 80.0104C133.733 80.0105 133.732 80.0105 133.732 80.0103L133.732 80.0095C133.732 80.0095 133.732 80.0094 133.732 80.0093L118.951 55.9307C118.384 55.0071 118.803 53.7955 119.819 53.4185L133.732 48.2571C133.732 48.2571 133.732 48.2571 133.732 48.257C133.732 48.2569 133.732 48.2568 133.733 48.2568L133.733 48.2569Z" fill="url(#paint19_linear_3_2730)"/>
</mask>
<g mask="url(#mask2_3_2730)">
<path d="M133.819 47.5928L149.556 54.0565L133.819 82.4405L133.819 47.5928Z" fill="url(#paint20_linear_3_2730)"/>
<path d="M133.819 47.5928L118.081 54.0565L133.819 82.4405L133.819 47.5928Z" fill="url(#paint21_linear_3_2730)"/>
</g>
<g filter="url(#filter6_f_3_2730)">
<path d="M93.0573 162.909L68.6844 192.141L55.5553 169.4L93.0573 162.909Z" fill="url(#paint22_linear_3_2730)"/>
</g>
<mask id="mask3_3_2730" style="mask-type:alpha" maskUnits="userSpaceOnUse" x="51" y="167" width="31" height="28">
<path fill-rule="evenodd" clip-rule="evenodd" d="M53.5182 167.925C52.4348 167.896 51.5948 168.864 51.7764 169.932L54.2633 184.563C54.2633 184.563 54.2635 184.563 54.2636 184.563C54.2637 184.563 54.2638 184.563 54.2639 184.563L65.6907 194.032C66.5252 194.724 67.7836 194.48 68.3001 193.527L81.7626 168.687C81.7626 168.687 81.7627 168.687 81.7627 168.687L81.763 168.686C81.7631 168.686 81.763 168.686 81.763 168.686C81.7629 168.686 81.7629 168.686 81.7629 168.686L81.7629 168.686C81.763 168.686 81.7629 168.686 81.7628 168.686L81.7622 168.686C81.7622 168.686 81.7621 168.686 81.7621 168.686L53.5182 167.925Z" fill="url(#paint23_linear_3_2730)"/>
</mask>
<g mask="url(#mask3_3_2730)">
<path d="M53.7309 184.969L67.1974 195.367L83.9099 167.546L53.7309 184.969Z" fill="url(#paint24_linear_3_2730)"/>
<path d="M53.7316 184.969L51.4605 168.108L83.9106 167.545L53.7316 184.969Z" fill="url(#paint25_linear_3_2730)"/>
</g>
</g>
<g filter="url(#filter7_d_3_2730)">
<path d="M103.839 111.972C103.839 110.877 104.727 109.989 105.822 109.989H158.035C159.13 109.989 160.018 110.877 160.018 111.972V173.768C160.018 174.863 159.13 175.751 158.035 175.751H109.127C106.207 175.751 103.839 173.384 103.839 170.464V111.972Z" fill="url(#paint26_linear_3_2730)"/>
<path fill-rule="evenodd" clip-rule="evenodd" d="M109.371 109.989V175.751H109.127C106.207 175.751 103.839 173.384 103.839 170.464V111.972C103.839 110.877 104.727 109.989 105.822 109.989H109.371Z" fill="url(#paint27_linear_3_2730)"/>
<path d="M109.457 109.989H158.035C159.13 109.989 160.018 110.877 160.018 111.972V163.524C160.018 164.619 159.13 165.507 158.035 165.507H109.457V109.989Z" fill="url(#paint28_linear_3_2730)"/>
<path d="M109.37 109.989H157.948C159.043 109.989 159.931 110.877 159.931 111.972V163.524C159.931 164.619 159.043 165.507 157.948 165.507H109.37V109.989Z" fill="url(#paint29_linear_3_2730)"/>
<path fill-rule="evenodd" clip-rule="evenodd" d="M157.948 110.604H109.985V164.892H157.948C158.704 164.892 159.316 164.28 159.316 163.524V111.972C159.316 111.216 158.704 110.604 157.948 110.604ZM109.37 109.989V165.507H157.948C159.043 165.507 159.931 164.619 159.931 163.524V111.972C159.931 110.877 159.043 109.989 157.948 109.989H109.37Z" fill="url(#paint30_linear_3_2730)"/>
<path d="M106.483 169.307C106.483 167.208 108.185 165.507 110.284 165.507H157.375V171.125C157.375 172.22 156.487 173.107 155.392 173.107H110.284C108.185 173.107 106.483 171.406 106.483 169.307Z" fill="url(#paint31_linear_3_2730)"/>
</g>
<path d="M157.309 165.61C159.768 165.61 159.87 164.278 160.075 163.459L160.075 173.907C159.829 175.136 158.948 175.648 158.538 175.751H109.371L108.142 173.293C106.605 170.834 106.503 169.81 106.605 168.99C106.851 166.532 108.961 165.713 109.985 165.61H157.309Z" fill="#616278" fill-opacity="0.15"/>
<g filter="url(#filter8_d_3_2730)">
<path d="M133.366 137.912H119.016L133.366 152.269V137.912Z" fill="url(#paint32_linear_3_2730)"/>
<path d="M133.366 137.912V123.555L147.716 137.912H133.366Z" fill="url(#paint33_linear_3_2730)"/>
<path d="M133.366 137.912V152.27L147.716 137.912H133.366Z" fill="url(#paint34_linear_3_2730)"/>
<path d="M133.366 137.912H119.016L133.366 123.555V137.912Z" fill="url(#paint35_linear_3_2730)"/>
<rect width="10.1497" height="10.1497" transform="matrix(0.706939 -0.707274 0.706939 0.707274 126.191 137.912)" fill="url(#paint36_linear_3_2730)"/>
<path fill-rule="evenodd" clip-rule="evenodd" d="M125.979 137.912L133.366 130.521L140.753 137.912L133.366 145.303L125.979 137.912ZM126.403 137.912L133.366 144.878L140.329 137.912L133.366 130.946L126.403 137.912Z" fill="url(#paint37_linear_3_2730)"/>
<path d="M126.745 144.415C122.843 142.389 121.117 139.463 120.216 137.962H119.091L120.592 139.463L131.397 150.343V150.043C130.256 147.102 132.097 145.341 133.123 144.865L131.772 143.515C131.822 144.54 130.678 146.457 126.745 144.415Z" fill="#93E8FF"/>
<path opacity="0.2" fill-rule="evenodd" clip-rule="evenodd" d="M131.706 140.597C133.386 142.13 135.622 143.065 138.075 143.065C142.093 143.065 145.524 140.559 146.894 137.026L134.659 124.791C131.126 126.161 128.621 129.593 128.621 133.61C128.621 136.064 129.555 138.299 131.088 139.98L131.706 140.597Z" fill="#74E4FF"/>
<path d="M135.524 132.709L133.573 130.758C137.403 131.347 135.055 126.345 133.438 123.63L139.726 129.858L145.954 136.161L140.101 132.559C134.278 129.017 134.649 131.158 135.524 132.709Z" fill="url(#paint38_linear_3_2730)"/>
<g filter="url(#filter9_f_3_2730)">
<path d="M133.423 127.757L133.589 130.593L136.425 130.758L133.589 130.924L133.423 133.76L133.258 130.924L130.422 130.758L133.258 130.593L133.423 127.757Z" fill="white"/>
</g>
<path d="M133.423 127.757L133.589 130.593L136.425 130.758L133.589 130.924L133.423 133.76L133.258 130.924L130.422 130.758L133.258 130.593L133.423 127.757Z" fill="white"/>
</g>
<defs>
<filter id="filter0_dd_3_2730" x="0.156761" y="0.101665" width="266.585" height="279.868" filterUnits="userSpaceOnUse" color-interpolation-filters="sRGB">
<feFlood flood-opacity="0" result="BackgroundImageFix"/>
<feColorMatrix in="SourceAlpha" type="matrix" values="0 0 0 0 0 0 0 0 0 0 0 0 0 0 0 0 0 0 127 0" result="hardAlpha"/>
<feOffset/>
<feGaussianBlur stdDeviation="8.59914"/>
<feColorMatrix type="matrix" values="0 0 0 0 0.558594 0 0 0 0 0.710156 0 0 0 0 0.9375 0 0 0 1 0"/>
<feBlend mode="normal" in2="BackgroundImageFix" result="effect1_dropShadow_3_2730"/>
<feColorMatrix in="SourceAlpha" type="matrix" values="0 0 0 0 0 0 0 0 0 0 0 0 0 0 0 0 0 0 127 0" result="hardAlpha"/>
<feOffset dy="3.43965"/>
<feGaussianBlur stdDeviation="25.7974"/>
<feColorMatrix type="matrix" values="0 0 0 0 0.670833 0 0 0 0 0.8025 0 0 0 0 1 0 0 0 0.6 0"/>
<feBlend mode="normal" in2="effect1_dropShadow_3_2730" result="effect2_dropShadow_3_2730"/>
<feBlend mode="normal" in="SourceGraphic" in2="effect2_dropShadow_3_2730" result="shape"/>
</filter>
<filter id="filter1_d_3_2730" x="48.1781" y="42.9839" width="169.862" height="190.551" filterUnits="userSpaceOnUse" color-interpolation-filters="sRGB">
<feFlood flood-opacity="0" result="BackgroundImageFix"/>
<feColorMatrix in="SourceAlpha" type="matrix" values="0 0 0 0 0 0 0 0 0 0 0 0 0 0 0 0 0 0 127 0" result="hardAlpha"/>
<feOffset/>
<feGaussianBlur stdDeviation="4.29957"/>
<feColorMatrix type="matrix" values="0 0 0 0 0.407812 0 0 0 0 0.414 0 0 0 0 0.5625 0 0 0 0.25 0"/>
<feBlend mode="normal" in2="BackgroundImageFix" result="effect1_dropShadow_3_2730"/>
<feBlend mode="normal" in="SourceGraphic" in2="effect1_dropShadow_3_2730" result="shape"/>
</filter>
<filter id="filter2_f_3_2730" x="67.6926" y="64.3211" width="130.652" height="147.567" filterUnits="userSpaceOnUse" color-interpolation-filters="sRGB">
<feFlood flood-opacity="0" result="BackgroundImageFix"/>
<feBlend mode="normal" in="SourceGraphic" in2="BackgroundImageFix" result="shape"/>
<feGaussianBlur stdDeviation="0.128987" result="effect1_foregroundBlur_3_2730"/>
</filter>
<filter id="filter3_i_3_2730" x="73.8767" y="71.0146" width="119.078" height="134.419" filterUnits="userSpaceOnUse" color-interpolation-filters="sRGB">
<feFlood flood-opacity="0" result="BackgroundImageFix"/>
<feBlend mode="normal" in="SourceGraphic" in2="BackgroundImageFix" result="shape"/>
<feColorMatrix in="SourceAlpha" type="matrix" values="0 0 0 0 0 0 0 0 0 0 0 0 0 0 0 0 0 0 127 0" result="hardAlpha"/>
<feOffset/>
<feGaussianBlur stdDeviation="5.78218"/>
<feComposite in2="hardAlpha" operator="arithmetic" k2="-1" k3="1"/>
<feColorMatrix type="matrix" values="0 0 0 0 0.297222 0 0 0 0 0.329917 0 0 0 0 0.445833 0 0 0 1 0"/>
<feBlend mode="normal" in2="shape" result="effect1_innerShadow_3_2730"/>
</filter>
<filter id="filter4_f_3_2730" x="169.82" y="159.47" width="44.3813" height="36.1108" filterUnits="userSpaceOnUse" color-interpolation-filters="sRGB">
<feFlood flood-opacity="0" result="BackgroundImageFix"/>
<feBlend mode="normal" in="SourceGraphic" in2="BackgroundImageFix" result="shape"/>
<feGaussianBlur stdDeviation="1.71983" result="effect1_foregroundBlur_3_2730"/>
</filter>
<filter id="filter5_f_3_2730" x="117.15" y="53.7527" width="33.1375" height="42.6029" filterUnits="userSpaceOnUse" color-interpolation-filters="sRGB">
<feFlood flood-opacity="0" result="BackgroundImageFix"/>
<feBlend mode="normal" in="SourceGraphic" in2="BackgroundImageFix" result="shape"/>
<feGaussianBlur stdDeviation="1.71983" result="effect1_foregroundBlur_3_2730"/>
</filter>
<filter id="filter6_f_3_2730" x="52.1156" y="159.47" width="44.3813" height="36.1108" filterUnits="userSpaceOnUse" color-interpolation-filters="sRGB">
<feFlood flood-opacity="0" result="BackgroundImageFix"/>
<feBlend mode="normal" in="SourceGraphic" in2="BackgroundImageFix" result="shape"/>
<feGaussianBlur stdDeviation="1.71983" result="effect1_foregroundBlur_3_2730"/>
</filter>
<filter id="filter7_d_3_2730" x="98.9226" y="107.531" width="66.012" height="75.5953" filterUnits="userSpaceOnUse" color-interpolation-filters="sRGB">
<feFlood flood-opacity="0" result="BackgroundImageFix"/>
<feColorMatrix in="SourceAlpha" type="matrix" values="0 0 0 0 0 0 0 0 0 0 0 0 0 0 0 0 0 0 127 0" result="hardAlpha"/>
<feOffset dy="2.45839"/>
<feGaussianBlur stdDeviation="2.45839"/>
<feColorMatrix type="matrix" values="0 0 0 0 0.504687 0 0 0 0 0.517969 0 0 0 0 0.6375 0 0 0 1 0"/>
<feBlend mode="normal" in2="BackgroundImageFix" result="effect1_dropShadow_3_2730"/>
<feBlend mode="normal" in="SourceGraphic" in2="effect1_dropShadow_3_2730" result="shape"/>
</filter>
<filter id="filter8_d_3_2730" x="113.856" y="121.76" width="39.0198" height="39.109" filterUnits="userSpaceOnUse" color-interpolation-filters="sRGB">
<feFlood flood-opacity="0" result="BackgroundImageFix"/>
<feColorMatrix in="SourceAlpha" type="matrix" values="0 0 0 0 0 0 0 0 0 0 0 0 0 0 0 0 0 0 127 0" result="hardAlpha"/>
<feOffset dy="3.43965"/>
<feGaussianBlur stdDeviation="2.57974"/>
<feColorMatrix type="matrix" values="0 0 0 0 0.300885 0 0 0 0 0.402137 0 0 0 0 0.6625 0 0 0 0.85 0"/>
<feBlend mode="normal" in2="BackgroundImageFix" result="effect1_dropShadow_3_2730"/>
<feBlend mode="normal" in="SourceGraphic" in2="effect1_dropShadow_3_2730" result="shape"/>
</filter>
<filter id="filter9_f_3_2730" x="129.576" y="126.911" width="7.69372" height="7.6936" filterUnits="userSpaceOnUse" color-interpolation-filters="sRGB">
<feFlood flood-opacity="0" result="BackgroundImageFix"/>
<feBlend mode="normal" in="SourceGraphic" in2="BackgroundImageFix" result="shape"/>
<feGaussianBlur stdDeviation="0.422668" result="effect1_foregroundBlur_3_2730"/>
</filter>
<linearGradient id="paint0_linear_3_2730" x1="133.001" y1="13" x2="133.001" y2="111.851" gradientUnits="userSpaceOnUse">
<stop stop-color="#AACCFF" stop-opacity="0"/>
<stop offset="1" stop-color="#AACCFF" stop-opacity="0.3"/>
</linearGradient>
<linearGradient id="paint1_linear_3_2730" x1="239.813" y1="200.878" x2="154.206" y2="151.453" gradientUnits="userSpaceOnUse">
<stop stop-color="#AACCFF" stop-opacity="0"/>
<stop offset="1" stop-color="#AACCFF" stop-opacity="0.3"/>
</linearGradient>
<linearGradient id="paint2_linear_3_2730" x1="132.377" y1="263.401" x2="132.377" y2="164.551" gradientUnits="userSpaceOnUse">
<stop stop-color="#AACCFF" stop-opacity="0"/>
<stop offset="1" stop-color="#AACCFF" stop-opacity="0.3"/>
</linearGradient>
<linearGradient id="paint3_linear_3_2730" x1="25.7313" y1="201.191" x2="111.339" y2="151.766" gradientUnits="userSpaceOnUse">
<stop stop-color="#AACCFF" stop-opacity="0"/>
<stop offset="1" stop-color="#AACCFF" stop-opacity="0.3"/>
</linearGradient>
<linearGradient id="paint4_linear_3_2730" x1="239.813" y1="75.6797" x2="154.206" y2="125.105" gradientUnits="userSpaceOnUse">
<stop stop-color="#AACCFF" stop-opacity="0"/>
<stop offset="1" stop-color="#AACCFF" stop-opacity="0.3"/>
</linearGradient>
<linearGradient id="paint5_linear_3_2730" x1="25.7313" y1="75.3652" x2="111.339" y2="124.791" gradientUnits="userSpaceOnUse">
<stop stop-color="#AACCFF" stop-opacity="0"/>
<stop offset="1" stop-color="#AACCFF" stop-opacity="0.3"/>
</linearGradient>
<linearGradient id="paint6_linear_3_2730" x1="101.05" y1="70.9325" x2="169.749" y2="207.414" gradientUnits="userSpaceOnUse">
<stop stop-color="#FAFAFA"/>
<stop offset="1" stop-color="#C2C4CD"/>
</linearGradient>
<linearGradient id="paint7_linear_3_2730" x1="100.44" y1="82.2298" x2="159.674" y2="191.537" gradientUnits="userSpaceOnUse">
<stop stop-color="#CDCFD6"/>
<stop offset="1" stop-color="#EFEFF1"/>
</linearGradient>
<linearGradient id="paint8_linear_3_2730" x1="106.852" y1="78.2605" x2="170.665" y2="193.064" gradientUnits="userSpaceOnUse">
<stop stop-color="#DDDFE2"/>
<stop offset="1" stop-color="white"/>
</linearGradient>
<radialGradient id="paint9_radial_3_2730" cx="0" cy="0" r="1" gradientUnits="userSpaceOnUse" gradientTransform="translate(133.416 138.224) rotate(90) scale(69.1233 59.539)">
<stop stop-color="#F5F7FF"/>
<stop offset="1" stop-color="#B3B5C5"/>
</radialGradient>
<linearGradient id="paint10_linear_3_2730" x1="133.416" y1="66.3633" x2="133.416" y2="210.078" gradientUnits="userSpaceOnUse">
<stop stop-color="white"/>
<stop offset="1" stop-color="#F2EDED" stop-opacity="0"/>
</linearGradient>
<linearGradient id="paint11_linear_3_2730" x1="59.908" y1="79.3662" x2="131.765" y2="203.827" gradientUnits="userSpaceOnUse">
<stop stop-color="white"/>
<stop offset="1" stop-color="#F2EDED" stop-opacity="0"/>
</linearGradient>
<linearGradient id="paint12_linear_3_2730" x1="201.569" y1="79.3662" x2="129.712" y2="203.827" gradientUnits="userSpaceOnUse">
<stop stop-color="white"/>
<stop offset="1" stop-color="#F2EDED" stop-opacity="0"/>
</linearGradient>
<linearGradient id="paint13_linear_3_2730" x1="133.416" y1="163.541" x2="133.057" y2="202.549" gradientUnits="userSpaceOnUse">
<stop stop-color="white" stop-opacity="0"/>
<stop offset="1" stop-color="#D0DBFF"/>
</linearGradient>
<linearGradient id="paint14_linear_3_2730" x1="204.461" y1="180.923" x2="183.308" y2="168.71" gradientUnits="userSpaceOnUse">
<stop stop-color="#585B77" stop-opacity="0.75"/>
<stop offset="1" stop-color="#525787" stop-opacity="0"/>
</linearGradient>
<linearGradient id="paint15_linear_3_2730" x1="191.611" y1="175.1" x2="210.015" y2="173.583" gradientUnits="userSpaceOnUse">
<stop stop-color="#D5D7D9"/>
<stop offset="1" stop-color="#E2E3E7"/>
</linearGradient>
<linearGradient id="paint16_linear_3_2730" x1="209.814" y1="182.308" x2="199.806" y2="197.188" gradientUnits="userSpaceOnUse">
<stop stop-color="#CCCFDD"/>
<stop offset="0.259135" stop-color="#D9DBE4"/>
<stop offset="0.878536" stop-color="#E2E3E7"/>
</linearGradient>
<linearGradient id="paint17_linear_3_2730" x1="194.568" y1="163.638" x2="185.718" y2="174.481" gradientUnits="userSpaceOnUse">
<stop stop-color="#F4F5F8"/>
<stop offset="1" stop-color="#F5F6F7"/>
</linearGradient>
<linearGradient id="paint18_linear_3_2730" x1="133.719" y1="56.8871" x2="133.719" y2="81.3133" gradientUnits="userSpaceOnUse">
<stop stop-color="#585B77" stop-opacity="0.75"/>
<stop offset="1" stop-color="#525787" stop-opacity="0"/>
</linearGradient>
<linearGradient id="paint19_linear_3_2730" x1="135.23" y1="71.3854" x2="124.66" y2="56.4944" gradientUnits="userSpaceOnUse">
<stop stop-color="#D5D7D9"/>
<stop offset="1" stop-color="#E2E3E7"/>
</linearGradient>
<linearGradient id="paint20_linear_3_2730" x1="133.996" y1="64.2246" x2="149.453" y2="67.9551" gradientUnits="userSpaceOnUse">
<stop stop-color="#DBDCE1"/>
<stop offset="1" stop-color="#F2F3F8"/>
</linearGradient>
<linearGradient id="paint21_linear_3_2730" x1="123.869" y1="74.6274" x2="137.683" y2="76.87" gradientUnits="userSpaceOnUse">
<stop stop-color="#F4F5F8"/>
<stop offset="1" stop-color="#F5F6F7"/>
</linearGradient>
<linearGradient id="paint22_linear_3_2730" x1="61.8555" y1="180.923" x2="83.0092" y2="168.71" gradientUnits="userSpaceOnUse">
<stop stop-color="#585B77" stop-opacity="0.75"/>
<stop offset="1" stop-color="#525787" stop-opacity="0"/>
</linearGradient>
<linearGradient id="paint23_linear_3_2730" x1="75.042" y1="174.296" x2="56.8609" y2="172.587" gradientUnits="userSpaceOnUse">
<stop stop-color="#D5D7D9"/>
<stop offset="1" stop-color="#E2E3E7"/>
</linearGradient>
<linearGradient id="paint24_linear_3_2730" x1="68.2229" y1="176.807" x2="79.1825" y2="188.328" gradientUnits="userSpaceOnUse">
<stop stop-color="#DBDCE1"/>
<stop offset="1" stop-color="#F2F3F8"/>
</linearGradient>
<linearGradient id="paint25_linear_3_2730" x1="72.1692" y1="162.835" x2="81.0186" y2="173.677" gradientUnits="userSpaceOnUse">
<stop stop-color="#F4F5F8"/>
<stop offset="1" stop-color="#F5F6F7"/>
</linearGradient>
<linearGradient id="paint26_linear_3_2730" x1="103.839" y1="148.819" x2="160.018" y2="148.653" gradientUnits="userSpaceOnUse">
<stop stop-color="#E7E7EA"/>
<stop offset="0.110094" stop-color="#DBDCE1"/>
<stop offset="0.792161" stop-color="#E1E2E6"/>
<stop offset="1" stop-color="#D1D3DC"/>
</linearGradient>
<linearGradient id="paint27_linear_3_2730" x1="103.839" y1="143.178" x2="109.371" y2="143.178" gradientUnits="userSpaceOnUse">
<stop stop-color="#E2E3E7"/>
<stop offset="0.60629" stop-color="#C4C6CF"/>
<stop offset="1" stop-color="#C4C6CF"/>
</linearGradient>
<linearGradient id="paint28_linear_3_2730" x1="121.048" y1="130.578" x2="151.163" y2="160.386" gradientUnits="userSpaceOnUse">
<stop stop-color="#F8F8F8"/>
<stop offset="1" stop-color="#BEC0C8"/>
</linearGradient>
<linearGradient id="paint29_linear_3_2730" x1="120.961" y1="130.578" x2="151.076" y2="160.386" gradientUnits="userSpaceOnUse">
<stop stop-color="#F8F8F8"/>
<stop offset="1" stop-color="#BEC0C8"/>
</linearGradient>
<linearGradient id="paint30_linear_3_2730" x1="134.651" y1="109.989" x2="152.699" y2="166.839" gradientUnits="userSpaceOnUse">
<stop stop-color="#C4C4C4" stop-opacity="0"/>
<stop offset="1" stop-color="white" stop-opacity="0.81"/>
</linearGradient>
<linearGradient id="paint31_linear_3_2730" x1="126.887" y1="164.074" x2="126.887" y2="172.986" gradientUnits="userSpaceOnUse">
<stop stop-color="#8A8FA8"/>
<stop offset="1" stop-color="#BBBEC8"/>
</linearGradient>
<linearGradient id="paint32_linear_3_2730" x1="132.673" y1="142.314" x2="128.578" y2="146.995" gradientUnits="userSpaceOnUse">
<stop stop-color="#65B5FF"/>
<stop offset="1" stop-color="#64E4FF"/>
</linearGradient>
<linearGradient id="paint33_linear_3_2730" x1="151.882" y1="141.564" x2="145.531" y2="122.971" gradientUnits="userSpaceOnUse">
<stop offset="0.14601" stop-color="#8EECFF"/>
<stop offset="1" stop-color="#A8EFFF"/>
</linearGradient>
<linearGradient id="paint34_linear_3_2730" x1="146.586" y1="136.817" x2="141.683" y2="156.44" gradientUnits="userSpaceOnUse">
<stop stop-color="#2E3DB0"/>
<stop offset="1" stop-color="#55C1F2"/>
</linearGradient>
<linearGradient id="paint35_linear_3_2730" x1="135.959" y1="123.352" x2="118.513" y2="127.203" gradientUnits="userSpaceOnUse">
<stop stop-color="#2354C0"/>
<stop offset="1" stop-color="#A3E9FF"/>
</linearGradient>
<linearGradient id="paint36_linear_3_2730" x1="-2.18973" y1="4.14062" x2="12.5844" y2="3.46162" gradientUnits="userSpaceOnUse">
<stop offset="0.0203454" stop-color="#2A67C4"/>
<stop offset="0.349209" stop-color="#2E3AB0"/>
<stop offset="1" stop-color="#79E8FF"/>
</linearGradient>
<linearGradient id="paint37_linear_3_2730" x1="133.423" y1="130.458" x2="133.429" y2="144.19" gradientUnits="userSpaceOnUse">
<stop stop-color="#D7F8FF"/>
<stop offset="0.176669" stop-color="#9EEDFF"/>
<stop offset="0.432173" stop-color="#66E3FF"/>
<stop offset="0.685688" stop-color="white" stop-opacity="0"/>
</linearGradient>
<linearGradient id="paint38_linear_3_2730" x1="139.276" y1="131.584" x2="133.423" y2="130.683" gradientUnits="userSpaceOnUse">
<stop stop-color="#D3F6FF"/>
<stop offset="0.603219" stop-color="#D3F6FF"/>
<stop offset="1" stop-color="white"/>
</linearGradient>
</defs>
</svg>
