<svg width="282" height="305" viewBox="0 0 282 305" fill="none" xmlns="http://www.w3.org/2000/svg">
<g filter="url(#filter0_f_3_2672)">
<circle cx="73.1132" cy="51.2136" r="4.21363" fill="#AAC9FF"/>
</g>
<g filter="url(#filter1_f_3_2672)">
<circle cx="87.1593" cy="58.7043" r="1.40454" fill="#AAC9FF"/>
</g>
<g filter="url(#filter2_f_3_2672)">
<circle cx="96.5233" cy="229.123" r="1.40454" fill="#AAC9FF"/>
</g>
<g filter="url(#filter3_f_3_2672)">
<circle cx="42.6818" cy="162.173" r="4.68182" fill="#AACCFF"/>
</g>
<g filter="url(#filter4_f_3_2672)">
<circle cx="203.269" cy="67.1318" r="3.27727" fill="#AACCFF"/>
</g>
<g filter="url(#filter5_f_3_2672)">
<circle cx="240.255" cy="126.591" r="3.74545" fill="#AACCFF"/>
</g>
<g filter="url(#filter6_f_3_2672)">
<circle cx="125.082" cy="247.382" r="3.74545" fill="#AACCFF"/>
</g>
<g filter="url(#filter7_dd_3_2672)">
<path d="M133.393 54.9202L65.039 92.1043C59.9163 94.891 56.7274 100.256 56.7274 106.087L56.7274 191.33C56.7274 197.162 59.9163 202.527 65.039 205.313L133.393 242.497C138.136 245.077 143.864 245.077 148.607 242.497L216.961 205.313C222.084 202.527 225.273 197.162 225.273 191.33L225.273 106.087C225.273 100.256 222.084 94.891 216.961 92.1043L148.607 54.9202C143.864 52.3401 138.136 52.3401 133.393 54.9202Z" fill="url(#paint0_linear_3_2672)"/>
<path d="M133.322 69.7366L77.818 99.9302C72.7146 102.706 69.5377 108.051 69.5377 113.861L69.5377 183.216C69.5377 189.026 72.7146 194.371 77.818 197.147L133.322 227.341C138.047 229.911 143.753 229.911 148.478 227.341L203.982 197.147C209.085 194.371 212.262 189.026 212.262 183.216L212.262 113.861C212.262 108.051 209.085 102.706 203.982 99.9302L148.478 69.7366C143.753 67.1662 138.047 67.1662 133.322 69.7366Z" fill="url(#paint1_linear_3_2672)"/>
<g filter="url(#filter8_f_3_2672)">
<path d="M133.322 69.7366L77.818 99.9302C72.7146 102.706 69.5377 108.051 69.5377 113.861L69.5377 183.216C69.5377 189.026 72.7146 194.371 77.818 197.147L133.322 227.341C138.047 229.911 143.753 229.911 148.478 227.341L203.982 197.147C209.085 194.371 212.262 189.026 212.262 183.216L212.262 113.861C212.262 108.051 209.085 102.706 203.982 99.9302L148.478 69.7366C143.753 67.1662 138.047 67.1662 133.322 69.7366Z" stroke="url(#paint2_linear_3_2672)" stroke-width="0.936366"/>
</g>
<g opacity="0.5">
<mask id="mask0_3_2672" style="mask-type:alpha" maskUnits="userSpaceOnUse" x="75" y="74" width="133" height="149">
<path d="M134.135 76.2705L83.4866 103.798C78.6293 106.438 75.6052 111.523 75.6052 117.051L75.6052 180.288C75.6052 185.816 78.6293 190.901 83.4866 193.541L134.135 221.069C138.626 223.51 144.049 223.51 148.541 221.069L199.189 193.541C204.047 190.901 207.071 185.816 207.071 180.288L207.071 117.051C207.071 111.523 204.047 106.438 199.189 103.798L148.541 76.2705C144.049 73.8291 138.627 73.8291 134.135 76.2705Z" fill="#A6D3DE"/>
</mask>
<g mask="url(#mask0_3_2672)">
<path d="M134.135 76.2705L83.4866 103.798C78.6293 106.438 75.6052 111.523 75.6052 117.051L75.6052 180.288C75.6052 185.816 78.6293 190.901 83.4866 193.541L134.135 221.069C138.626 223.51 144.049 223.51 148.541 221.069L199.189 193.541C204.047 190.901 207.071 185.816 207.071 180.288L207.071 117.051C207.071 111.523 204.047 106.438 199.189 103.798L148.541 76.2705C144.049 73.8291 138.627 73.8291 134.135 76.2705Z" fill="url(#paint3_radial_3_2672)"/>
<path opacity="0.5" d="M130.349 227.998L127.738 69.333H154.938L152.327 227.998H130.349Z" fill="url(#paint4_linear_3_2672)"/>
<path opacity="0.5" d="M129.999 226.591L48.4055 90.4883L71.9612 76.8884L149.032 215.602L129.999 226.591Z" fill="url(#paint5_linear_3_2672)"/>
<path opacity="0.5" d="M127.733 215.602L204.804 76.8887L228.36 90.4885L146.766 226.591L127.733 215.602Z" fill="url(#paint6_linear_3_2672)"/>
<rect x="75.605" y="139.599" width="131.465" height="85.377" fill="url(#paint7_linear_3_2672)"/>
<g filter="url(#filter9_i_3_2672)">
<path d="M134.135 76.2705L83.4866 103.798C78.6293 106.438 75.6052 111.523 75.6052 117.051L75.6052 180.288C75.6052 185.816 78.6293 190.901 83.4866 193.541L134.135 221.069C138.626 223.51 144.049 223.51 148.541 221.069L199.189 193.541C204.047 190.901 207.071 185.816 207.071 180.288L207.071 117.051C207.071 111.523 204.047 106.438 199.189 103.798L148.541 76.2705C144.049 73.8291 138.627 73.8291 134.135 76.2705Z" fill="#6052B4" fill-opacity="0.01"/>
</g>
</g>
</g>
</g>
<g filter="url(#filter10_d_3_2672)">
<path d="M109.163 118.529C109.163 117.313 110.149 116.327 111.365 116.327H169.354C170.57 116.327 171.556 117.313 171.556 118.529V187.161C171.556 188.378 170.57 189.363 169.354 189.363H115.036C111.792 189.363 109.163 186.734 109.163 183.491V118.529Z" fill="url(#paint8_linear_3_2672)"/>
<path fill-rule="evenodd" clip-rule="evenodd" d="M115.306 116.327V189.363H115.036C111.792 189.363 109.163 186.734 109.163 183.491V118.529C109.163 117.313 110.149 116.327 111.365 116.327H115.306Z" fill="url(#paint9_linear_3_2672)"/>
<path d="M115.403 116.327H169.354C170.57 116.327 171.556 117.313 171.556 118.529V175.784C171.556 177 170.57 177.986 169.354 177.986H115.403V116.327Z" fill="url(#paint10_linear_3_2672)"/>
<path d="M115.306 116.327H169.257C170.474 116.327 171.459 117.313 171.459 118.529V175.784C171.459 177 170.474 177.986 169.257 177.986H115.306V116.327Z" fill="url(#paint11_linear_3_2672)"/>
<path fill-rule="evenodd" clip-rule="evenodd" d="M169.257 117.01H115.988V177.303H169.257C170.097 177.303 170.777 176.623 170.777 175.784V118.529C170.777 117.69 170.097 117.01 169.257 117.01ZM115.306 116.327V177.986H169.257C170.474 177.986 171.459 177 171.459 175.784V118.529C171.459 117.313 170.474 116.327 169.257 116.327H115.306Z" fill="url(#paint12_linear_3_2672)"/>
<path d="M112.1 182.207C112.1 179.876 113.99 177.986 116.321 177.986H168.621V184.226C168.621 185.442 167.635 186.428 166.419 186.428H116.321C113.99 186.428 112.1 184.538 112.1 182.207Z" fill="url(#paint13_linear_3_2672)"/>
</g>
<path d="M168.548 178.101C171.278 178.101 171.392 176.622 171.62 175.712L171.62 187.316C171.347 188.681 170.368 189.25 169.913 189.364H115.307L113.942 186.633C112.235 183.903 112.121 182.765 112.235 181.855C112.508 179.125 114.852 178.215 115.989 178.101H168.548Z" fill="#616278" fill-opacity="0.15"/>
<g filter="url(#filter11_d_3_2672)">
<path d="M142.769 147.038H127.984L142.769 161.831V147.038Z" fill="url(#paint14_linear_3_2672)"/>
<path d="M142.769 147.039V132.246L157.555 147.039H142.769Z" fill="url(#paint15_linear_3_2672)"/>
<path d="M142.769 147.038V161.831L157.555 147.038H142.769Z" fill="url(#paint16_linear_3_2672)"/>
<path d="M142.769 147.223V132.431L127.984 147.223H142.769Z" fill="url(#paint17_linear_3_2672)"/>
<rect width="10.4575" height="10.4575" transform="matrix(0.706939 -0.707275 0.706939 0.707275 135.377 147.039)" fill="url(#paint18_radial_3_2672)"/>
<g filter="url(#filter12_f_3_2672)">
<rect width="10.4575" height="10.4575" transform="matrix(0.706939 -0.707275 0.706939 0.707275 135.377 147.039)" stroke="white" stroke-width="0.130975"/>
</g>
</g>
<defs>
<filter id="filter0_f_3_2672" x="57.6631" y="35.7636" width="30.9" height="30.9005" filterUnits="userSpaceOnUse" color-interpolation-filters="sRGB">
<feFlood flood-opacity="0" result="BackgroundImageFix"/>
<feBlend mode="normal" in="SourceGraphic" in2="BackgroundImageFix" result="shape"/>
<feGaussianBlur stdDeviation="5.61819" result="effect1_foregroundBlur_3_2672"/>
</filter>
<filter id="filter1_f_3_2672" x="82.9457" y="54.4907" width="8.42728" height="8.42776" filterUnits="userSpaceOnUse" color-interpolation-filters="sRGB">
<feFlood flood-opacity="0" result="BackgroundImageFix"/>
<feBlend mode="normal" in="SourceGraphic" in2="BackgroundImageFix" result="shape"/>
<feGaussianBlur stdDeviation="1.40455" result="effect1_foregroundBlur_3_2672"/>
</filter>
<filter id="filter2_f_3_2672" x="94.1824" y="226.782" width="4.68181" height="4.6823" filterUnits="userSpaceOnUse" color-interpolation-filters="sRGB">
<feFlood flood-opacity="0" result="BackgroundImageFix"/>
<feBlend mode="normal" in="SourceGraphic" in2="BackgroundImageFix" result="shape"/>
<feGaussianBlur stdDeviation="0.468183" result="effect1_foregroundBlur_3_2672"/>
</filter>
<filter id="filter3_f_3_2672" x="36.1273" y="155.618" width="13.1091" height="13.1087" filterUnits="userSpaceOnUse" color-interpolation-filters="sRGB">
<feFlood flood-opacity="0" result="BackgroundImageFix"/>
<feBlend mode="normal" in="SourceGraphic" in2="BackgroundImageFix" result="shape"/>
<feGaussianBlur stdDeviation="0.936366" result="effect1_foregroundBlur_3_2672"/>
</filter>
<filter id="filter4_f_3_2672" x="196.246" y="60.109" width="14.0455" height="14.0456" filterUnits="userSpaceOnUse" color-interpolation-filters="sRGB">
<feFlood flood-opacity="0" result="BackgroundImageFix"/>
<feBlend mode="normal" in="SourceGraphic" in2="BackgroundImageFix" result="shape"/>
<feGaussianBlur stdDeviation="1.87273" result="effect1_foregroundBlur_3_2672"/>
</filter>
<filter id="filter5_f_3_2672" x="227.146" y="113.482" width="26.2182" height="26.2185" filterUnits="userSpaceOnUse" color-interpolation-filters="sRGB">
<feFlood flood-opacity="0" result="BackgroundImageFix"/>
<feBlend mode="normal" in="SourceGraphic" in2="BackgroundImageFix" result="shape"/>
<feGaussianBlur stdDeviation="4.68183" result="effect1_foregroundBlur_3_2672"/>
</filter>
<filter id="filter6_f_3_2672" x="111.973" y="234.273" width="26.2182" height="26.2185" filterUnits="userSpaceOnUse" color-interpolation-filters="sRGB">
<feFlood flood-opacity="0" result="BackgroundImageFix"/>
<feBlend mode="normal" in="SourceGraphic" in2="BackgroundImageFix" result="shape"/>
<feGaussianBlur stdDeviation="4.68183" result="effect1_foregroundBlur_3_2672"/>
</filter>
<filter id="filter7_dd_3_2672" x="0.545483" y="0.548879" width="280.909" height="303.811" filterUnits="userSpaceOnUse" color-interpolation-filters="sRGB">
<feFlood flood-opacity="0" result="BackgroundImageFix"/>
<feColorMatrix in="SourceAlpha" type="matrix" values="0 0 0 0 0 0 0 0 0 0 0 0 0 0 0 0 0 0 127 0" result="hardAlpha"/>
<feOffset/>
<feGaussianBlur stdDeviation="9.36366"/>
<feColorMatrix type="matrix" values="0 0 0 0 0.558594 0 0 0 0 0.710156 0 0 0 0 0.9375 0 0 0 1 0"/>
<feBlend mode="normal" in2="BackgroundImageFix" result="effect1_dropShadow_3_2672"/>
<feColorMatrix in="SourceAlpha" type="matrix" values="0 0 0 0 0 0 0 0 0 0 0 0 0 0 0 0 0 0 127 0" result="hardAlpha"/>
<feOffset dy="3.74546"/>
<feGaussianBlur stdDeviation="28.091"/>
<feColorMatrix type="matrix" values="0 0 0 0 0.670833 0 0 0 0 0.8025 0 0 0 0 1 0 0 0 0.6 0"/>
<feBlend mode="normal" in2="effect1_dropShadow_3_2672" result="effect2_dropShadow_3_2672"/>
<feBlend mode="normal" in="SourceGraphic" in2="effect2_dropShadow_3_2672" result="shape"/>
</filter>
<filter id="filter8_f_3_2672" x="68.7887" y="67.0599" width="144.223" height="162.957" filterUnits="userSpaceOnUse" color-interpolation-filters="sRGB">
<feFlood flood-opacity="0" result="BackgroundImageFix"/>
<feBlend mode="normal" in="SourceGraphic" in2="BackgroundImageFix" result="shape"/>
<feGaussianBlur stdDeviation="0.140455" result="effect1_foregroundBlur_3_2672"/>
</filter>
<filter id="filter9_i_3_2672" x="75.6052" y="74.4395" width="131.465" height="148.46" filterUnits="userSpaceOnUse" color-interpolation-filters="sRGB">
<feFlood flood-opacity="0" result="BackgroundImageFix"/>
<feBlend mode="normal" in="SourceGraphic" in2="BackgroundImageFix" result="shape"/>
<feColorMatrix in="SourceAlpha" type="matrix" values="0 0 0 0 0 0 0 0 0 0 0 0 0 0 0 0 0 0 127 0" result="hardAlpha"/>
<feOffset/>
<feGaussianBlur stdDeviation="6.29625"/>
<feComposite in2="hardAlpha" operator="arithmetic" k2="-1" k3="1"/>
<feColorMatrix type="matrix" values="0 0 0 0 0.297222 0 0 0 0 0.329917 0 0 0 0 0.445833 0 0 0 1 0"/>
<feBlend mode="normal" in2="shape" result="effect1_innerShadow_3_2672"/>
</filter>
<filter id="filter10_d_3_2672" x="103.703" y="113.597" width="73.3142" height="83.9575" filterUnits="userSpaceOnUse" color-interpolation-filters="sRGB">
<feFlood flood-opacity="0" result="BackgroundImageFix"/>
<feColorMatrix in="SourceAlpha" type="matrix" values="0 0 0 0 0 0 0 0 0 0 0 0 0 0 0 0 0 0 127 0" result="hardAlpha"/>
<feOffset dy="2.73034"/>
<feGaussianBlur stdDeviation="2.73034"/>
<feColorMatrix type="matrix" values="0 0 0 0 0.504687 0 0 0 0 0.517969 0 0 0 0 0.6375 0 0 0 1 0"/>
<feBlend mode="normal" in2="BackgroundImageFix" result="effect1_dropShadow_3_2672"/>
<feBlend mode="normal" in="SourceGraphic" in2="effect1_dropShadow_3_2672" result="shape"/>
</filter>
<filter id="filter11_d_3_2672" x="124.146" y="131.31" width="37.1548" height="37.1686" filterUnits="userSpaceOnUse" color-interpolation-filters="sRGB">
<feFlood flood-opacity="0" result="BackgroundImageFix"/>
<feColorMatrix in="SourceAlpha" type="matrix" values="0 0 0 0 0 0 0 0 0 0 0 0 0 0 0 0 0 0 127 0" result="hardAlpha"/>
<feOffset dy="2.80909"/>
<feGaussianBlur stdDeviation="1.87273"/>
<feColorMatrix type="matrix" values="0 0 0 0 0.315 0 0 0 0 0.3528 0 0 0 0 0.45 0 0 0 0.42 0"/>
<feBlend mode="normal" in2="BackgroundImageFix" result="effect1_dropShadow_3_2672"/>
<feBlend mode="normal" in="SourceGraphic" in2="effect1_dropShadow_3_2672" result="shape"/>
</filter>
<filter id="filter12_f_3_2672" x="134.411" y="138.677" width="16.7172" height="16.7248" filterUnits="userSpaceOnUse" color-interpolation-filters="sRGB">
<feFlood flood-opacity="0" result="BackgroundImageFix"/>
<feBlend mode="normal" in="SourceGraphic" in2="BackgroundImageFix" result="shape"/>
<feGaussianBlur stdDeviation="0.436582" result="effect1_foregroundBlur_3_2672"/>
</filter>
<linearGradient id="paint0_linear_3_2672" x1="105.606" y1="74.3786" x2="181.451" y2="225.058" gradientUnits="userSpaceOnUse">
<stop stop-color="#FAFAFA"/>
<stop offset="1" stop-color="#C2C4CD"/>
</linearGradient>
<linearGradient id="paint1_linear_3_2672" x1="104.932" y1="86.851" x2="170.328" y2="207.529" gradientUnits="userSpaceOnUse">
<stop stop-color="#CDCFD6"/>
<stop offset="1" stop-color="#EFEFF1"/>
</linearGradient>
<linearGradient id="paint2_linear_3_2672" x1="112.011" y1="82.4688" x2="182.463" y2="209.215" gradientUnits="userSpaceOnUse">
<stop stop-color="#DDDFE2"/>
<stop offset="1" stop-color="white"/>
</linearGradient>
<radialGradient id="paint3_radial_3_2672" cx="0" cy="0" r="1" gradientUnits="userSpaceOnUse" gradientTransform="translate(141.338 148.67) rotate(90) scale(76.3141 65.7327)">
<stop stop-color="#F5F7FF"/>
<stop offset="1" stop-color="#B3B5C5"/>
</radialGradient>
<linearGradient id="paint4_linear_3_2672" x1="141.338" y1="69.333" x2="141.338" y2="227.998" gradientUnits="userSpaceOnUse">
<stop stop-color="white"/>
<stop offset="1" stop-color="#F2EDED" stop-opacity="0"/>
</linearGradient>
<linearGradient id="paint5_linear_3_2672" x1="60.1833" y1="83.6883" x2="139.516" y2="221.096" gradientUnits="userSpaceOnUse">
<stop stop-color="white"/>
<stop offset="1" stop-color="#F2EDED" stop-opacity="0"/>
</linearGradient>
<linearGradient id="paint6_linear_3_2672" x1="216.582" y1="83.6886" x2="137.25" y2="221.097" gradientUnits="userSpaceOnUse">
<stop stop-color="white"/>
<stop offset="1" stop-color="#F2EDED" stop-opacity="0"/>
</linearGradient>
<linearGradient id="paint7_linear_3_2672" x1="141.338" y1="176.62" x2="140.941" y2="219.686" gradientUnits="userSpaceOnUse">
<stop stop-color="white" stop-opacity="0"/>
<stop offset="1" stop-color="#D0DBFF"/>
</linearGradient>
<linearGradient id="paint8_linear_3_2672" x1="109.163" y1="159.452" x2="171.556" y2="159.268" gradientUnits="userSpaceOnUse">
<stop stop-color="#E7E7EA"/>
<stop offset="0.110094" stop-color="#DBDCE1"/>
<stop offset="0.792161" stop-color="#E1E2E6"/>
<stop offset="1" stop-color="#D1D3DC"/>
</linearGradient>
<linearGradient id="paint9_linear_3_2672" x1="109.163" y1="153.187" x2="115.306" y2="153.187" gradientUnits="userSpaceOnUse">
<stop stop-color="#E2E3E7"/>
<stop offset="0.60629" stop-color="#C4C6CF"/>
<stop offset="1" stop-color="#C4C6CF"/>
</linearGradient>
<linearGradient id="paint10_linear_3_2672" x1="128.276" y1="139.194" x2="161.722" y2="172.299" gradientUnits="userSpaceOnUse">
<stop stop-color="#F8F8F8"/>
<stop offset="1" stop-color="#BEC0C8"/>
</linearGradient>
<linearGradient id="paint11_linear_3_2672" x1="128.179" y1="139.194" x2="161.625" y2="172.299" gradientUnits="userSpaceOnUse">
<stop stop-color="#F8F8F8"/>
<stop offset="1" stop-color="#BEC0C8"/>
</linearGradient>
<linearGradient id="paint12_linear_3_2672" x1="143.383" y1="116.327" x2="163.428" y2="179.466" gradientUnits="userSpaceOnUse">
<stop stop-color="#C4C4C4" stop-opacity="0"/>
<stop offset="1" stop-color="white" stop-opacity="0.81"/>
</linearGradient>
<linearGradient id="paint13_linear_3_2672" x1="134.761" y1="176.395" x2="134.761" y2="186.292" gradientUnits="userSpaceOnUse">
<stop stop-color="#8A8FA8"/>
<stop offset="1" stop-color="#BBBEC8"/>
</linearGradient>
<linearGradient id="paint14_linear_3_2672" x1="145.441" y1="162.04" x2="123.516" y2="156.731" gradientUnits="userSpaceOnUse">
<stop stop-color="#F9F9F9"/>
<stop offset="1" stop-color="#D4D6DC"/>
</linearGradient>
<linearGradient id="paint15_linear_3_2672" x1="157.764" y1="149.712" x2="152.449" y2="127.778" gradientUnits="userSpaceOnUse">
<stop stop-color="#E9EAED"/>
<stop offset="1" stop-color="#C5C7CF"/>
</linearGradient>
<linearGradient id="paint16_linear_3_2672" x1="156.39" y1="145.91" x2="151.339" y2="166.128" gradientUnits="userSpaceOnUse">
<stop stop-color="#C5C7D0"/>
<stop offset="1" stop-color="#CFD0D7"/>
</linearGradient>
<linearGradient id="paint17_linear_3_2672" x1="129.148" y1="148.352" x2="134.2" y2="128.134" gradientUnits="userSpaceOnUse">
<stop stop-color="#E6E7EA"/>
<stop offset="1" stop-color="#F3F3F4"/>
</linearGradient>
<radialGradient id="paint18_radial_3_2672" cx="0" cy="0" r="1" gradientUnits="userSpaceOnUse" gradientTransform="translate(4.35401 2.4228) rotate(67.9223) scale(7.02072 8.28177)">
<stop stop-color="#D7D8DE"/>
<stop offset="1" stop-color="#F3F3F4"/>
</radialGradient>
</defs>
</svg>
