<svg width="56" height="44" viewBox="0 0 56 44" fill="none" xmlns="http://www.w3.org/2000/svg">
<g clip-path="url(#clip0_3_532)">
<path fill-rule="evenodd" clip-rule="evenodd" d="M27.877 30.5173C36.4735 30.5173 43.4423 23.689 43.4423 15.2659C43.4423 6.84271 36.4735 0.0144043 27.877 0.0144043C19.2806 0.0144043 12.3118 6.84271 12.3118 15.2659C12.3118 23.689 19.2806 30.5173 27.877 30.5173Z" fill="#555454" fill-opacity="0.52"/>
<path d="M23.0053 13.7212C23.0053 13.5716 23.0497 13.4523 23.1387 13.3634C23.2276 13.2744 23.3509 13.23 23.5086 13.23H24.6002V12.1687C24.6002 12.0151 24.6427 11.8938 24.7276 11.8048C24.8125 11.7159 24.9297 11.6714 25.0793 11.6714C25.2289 11.6714 25.3461 11.7159 25.4311 11.8048C25.5159 11.8938 25.5584 12.0151 25.5584 12.1687V13.23H26.5832C26.7531 13.23 26.8855 13.2744 26.9805 13.3634C27.0755 13.4523 27.123 13.5716 27.123 13.7212C27.123 13.8789 27.0755 14.0032 26.9805 14.0941C26.8855 14.1851 26.7531 14.2306 26.5832 14.2306H25.5584V15.2919C25.5584 15.4455 25.5159 15.5678 25.4311 15.6587C25.3461 15.7497 25.2289 15.7952 25.0793 15.7952C24.9297 15.7952 24.8125 15.7497 24.7276 15.6587C24.6427 15.5678 24.6002 15.4455 24.6002 15.2919V14.2306H23.5086C23.3509 14.2306 23.2276 14.1851 23.1387 14.0941C23.0497 14.0032 23.0053 13.8789 23.0053 13.7212ZM28.9665 14.5702C28.9665 14.3236 29.0515 14.1154 29.2213 13.9456C29.3911 13.7758 29.5972 13.6909 29.8398 13.6909C30.0865 13.6909 30.2936 13.7758 30.4614 13.9456C30.6292 14.1154 30.7131 14.3236 30.7131 14.5702C30.7131 14.8168 30.6292 15.024 30.4614 15.1918C30.2936 15.3596 30.0865 15.4435 29.8398 15.4435C29.5972 15.4435 29.3911 15.3596 29.2213 15.1918C29.0515 15.024 28.9665 14.8168 28.9665 14.5702ZM30.7556 12.7751C30.7556 12.5285 30.8394 12.3203 31.0072 12.1505C31.175 11.9807 31.3802 11.8958 31.6228 11.8958C31.8694 11.8958 32.0766 11.9807 32.2443 12.1505C32.4121 12.3203 32.496 12.5285 32.496 12.7751C32.496 13.0218 32.4121 13.228 32.2443 13.3937C32.0766 13.5595 31.8694 13.6423 31.6228 13.6423C31.3802 13.6423 31.175 13.5595 31.0072 13.3937C30.8394 13.228 30.7556 13.0218 30.7556 12.7751ZM21.471 20.4345C21.8874 20.4345 22.2462 20.3576 22.5474 20.204C22.8486 20.0504 23.1266 19.8159 23.3813 19.5006L24.4789 18.1724C24.5598 18.0754 24.6447 18.0046 24.7336 17.9602C24.8226 17.9157 24.9115 17.8935 25.0005 17.8935H30.8283C30.9173 17.8935 31.0062 17.9157 31.0952 17.9602C31.1841 18.0046 31.269 18.0754 31.3499 18.1724L32.4475 19.5006C32.7022 19.8159 32.9802 20.0504 33.2814 20.204C33.5826 20.3576 33.9414 20.4345 34.3578 20.4345C34.8187 20.4345 35.223 20.3384 35.5707 20.1464C35.9183 19.9543 36.1882 19.6824 36.3803 19.3307C36.5723 18.979 36.6683 18.5666 36.6683 18.0936C36.6683 17.7904 36.635 17.4649 36.5682 17.1172C36.5015 16.7695 36.4096 16.3996 36.2923 16.0075C36.171 15.591 36.0214 15.1382 35.8435 14.649C35.6656 14.1598 35.4746 13.6656 35.2705 13.1663C35.0663 12.667 34.8611 12.199 34.655 11.7624C34.4811 11.3985 34.3173 11.0953 34.1638 10.8527C34.0101 10.6102 33.815 10.4121 33.5785 10.2584C33.342 10.1048 33.0095 9.97947 32.5809 9.88244C32.0109 9.75306 31.3337 9.64795 30.5493 9.56709C29.765 9.48623 28.8877 9.4458 27.9174 9.4458C26.9471 9.4458 26.0688 9.48623 25.2824 9.56709C24.4961 9.64795 23.8179 9.75306 23.2478 9.88244C22.8193 9.97947 22.4868 10.1048 22.2503 10.2584C22.0138 10.4121 21.8187 10.6102 21.665 10.8527C21.5114 11.0953 21.3477 11.3985 21.1738 11.7624C20.9676 12.199 20.7625 12.667 20.5583 13.1663C20.3541 13.6656 20.1631 14.1598 19.9852 14.649C19.8073 15.1382 19.6577 15.591 19.5365 16.0075C19.4192 16.3996 19.3272 16.7695 19.2605 17.1172C19.1938 17.4649 19.1605 17.7904 19.1605 18.0936C19.1605 18.5666 19.2565 18.979 19.4485 19.3307C19.6406 19.6824 19.9104 19.9543 20.2581 20.1464C20.6058 20.3384 21.0101 20.4345 21.471 20.4345Z" fill="#007AFF"/>
<path d="M2.75622 36.3112C2.42298 36.3112 2.15195 36.0402 2.15195 35.7114C2.15195 35.3782 2.42298 35.1071 2.75622 35.1071C3.08502 35.1071 3.3605 35.3782 3.3605 35.7114C3.3605 36.0402 3.08502 36.3112 2.75622 36.3112ZM2.27191 41.9985V37.1732H3.23165V41.9985H2.27191ZM4.62812 41.9985V37.1732H5.59229V37.9063H5.66339C5.89888 37.3909 6.36097 37.0799 7.063 37.0799C8.1427 37.0799 8.73809 37.7242 8.73809 38.875V41.9985H7.77835V39.1016C7.77835 38.3018 7.44511 37.9063 6.73864 37.9063C6.03217 37.9063 5.59229 38.3906 5.59229 39.1682V41.9985H4.62812ZM11.2454 41.9985L9.49918 37.1732H10.5211L11.7252 41.021H11.8008L13.0004 37.1732H14.0135L12.2717 41.9985H11.2454ZM15.4766 36.3112C15.1434 36.3112 14.8723 36.0402 14.8723 35.7114C14.8723 35.3782 15.1434 35.1071 15.4766 35.1071C15.8054 35.1071 16.0809 35.3782 16.0809 35.7114C16.0809 36.0402 15.8054 36.3112 15.4766 36.3112ZM14.9923 41.9985V37.1732H15.952V41.9985H14.9923ZM19.1702 42.0296C18.1083 42.0296 17.6729 41.6564 17.6729 40.7278V37.933H16.9175V37.1732H17.6729V35.9558H18.6548V37.1732H19.6901V37.933H18.6548V40.4967C18.6548 41.0166 18.8503 41.2299 19.3257 41.2299C19.4724 41.2299 19.5568 41.2254 19.6901 41.2121V41.9808C19.5346 42.0074 19.3568 42.0296 19.1702 42.0296ZM22.7794 42.0918C21.3665 42.0918 20.5134 41.1277 20.5134 39.5992V39.5948C20.5134 38.0885 21.3842 37.0799 22.7305 37.0799C24.0768 37.0799 24.9033 38.053 24.9033 39.5015V39.8391H21.482C21.4998 40.7633 22.0063 41.301 22.8016 41.301C23.4192 41.301 23.788 40.9944 23.9035 40.7455L23.9213 40.71L24.8499 40.7056L24.8411 40.7455C24.6811 41.3809 24.0146 42.0918 22.7794 42.0918ZM22.735 37.8708C22.0774 37.8708 21.5797 38.3196 21.4953 39.1504H23.948C23.8724 38.2885 23.3881 37.8708 22.735 37.8708ZM28.5226 41.9985V37.1732H29.4868V37.9152H29.5579C29.7712 37.3865 30.2422 37.0799 30.8731 37.0799C31.5307 37.0799 31.9972 37.422 32.2105 37.9419H32.286C32.5304 37.422 33.0858 37.0799 33.7567 37.0799C34.7298 37.0799 35.2985 37.6664 35.2985 38.6706V41.9985H34.3388V38.9016C34.3388 38.2351 34.0367 37.9063 33.4057 37.9063C32.7926 37.9063 32.3882 38.364 32.3882 38.946V41.9985H31.4285V38.8039C31.4285 38.2529 31.0686 37.9063 30.4999 37.9063C29.9178 37.9063 29.4868 38.404 29.4868 39.0349V41.9985H28.5226ZM37.9613 42.0785C37.0416 42.0785 36.3618 41.5187 36.3618 40.6434V40.6345C36.3618 39.7725 37.0105 39.2704 38.1613 39.1993L39.4676 39.1238V38.6972C39.4676 38.1685 39.1343 37.8752 38.4812 37.8752C37.948 37.8752 37.597 38.0707 37.4815 38.4129L37.477 38.4306H36.5484L36.5528 38.3995C36.6683 37.6086 37.4281 37.0799 38.5256 37.0799C39.7386 37.0799 40.4229 37.6842 40.4229 38.6972V41.9985H39.4676V41.3143H39.392C39.1077 41.803 38.6011 42.0785 37.9613 42.0785ZM37.3215 40.6034C37.3215 41.0477 37.6992 41.3098 38.219 41.3098C38.9388 41.3098 39.4676 40.8389 39.4676 40.2168V39.8036L38.2901 39.8791C37.6236 39.9191 37.3215 40.159 37.3215 40.5945V40.6034ZM43.5966 42.0296C42.5347 42.0296 42.0993 41.6564 42.0993 40.7278V37.933H41.3439V37.1732H42.0993V35.9558H43.0812V37.1732H44.1165V37.933H43.0812V40.4967C43.0812 41.0166 43.2767 41.2299 43.7521 41.2299C43.8988 41.2299 43.9832 41.2254 44.1165 41.2121V41.9808C43.961 42.0074 43.7832 42.0296 43.5966 42.0296ZM47.2102 42.0918C45.8017 42.0918 44.9398 41.1321 44.9398 39.5725V39.5637C44.9398 38.0352 45.7973 37.0799 47.2058 37.0799C48.4188 37.0799 49.143 37.7642 49.2763 38.7017V38.7239L48.3522 38.7283L48.3477 38.715C48.2411 38.2396 47.8501 37.8841 47.2102 37.8841C46.406 37.8841 45.9217 38.5239 45.9217 39.5637V39.5725C45.9217 40.6389 46.4149 41.2876 47.2102 41.2876C47.8145 41.2876 48.1878 41.0121 48.3433 40.4923L48.3522 40.4701H49.2763L49.2675 40.5101C49.0942 41.4476 48.4055 42.0918 47.2102 42.0918ZM50.4062 41.9985V35.2804H51.3704V37.9063H51.4415C51.677 37.3909 52.1391 37.0799 52.8411 37.0799C53.9208 37.0799 54.5162 37.7242 54.5162 38.875V41.9985H53.5565V39.1016C53.5565 38.3018 53.2232 37.9063 52.5167 37.9063C51.8103 37.9063 51.3704 38.3906 51.3704 39.1682V41.9985H50.4062Z" fill="#007AFF"/>
</g>
<defs>
<clipPath id="clip0_3_532">
<rect width="54.9736" height="43.9789" fill="white" transform="translate(0.878357 0.0144043)"/>
</clipPath>
</defs>
</svg>
