<svg width="57" height="57" viewBox="0 0 57 57" fill="none" xmlns="http://www.w3.org/2000/svg">
<path d="M24.293 18.8129V20.1062H34.4095V18.8129C34.4095 17.7208 33.7773 17.1029 32.6564 17.1029H26.0605C24.9397 17.1029 24.293 17.7208 24.293 18.8129ZM29.3513 28.5846C23.4883 28.5846 18.0995 27.7511 12.7251 25.3944V24.4891C12.7251 21.5433 14.2052 20.1062 17.1654 20.1062H22.0656V18.971C22.0656 16.2694 23.632 15.0049 26.0893 15.0049H32.6133C35.2143 15.0049 36.6369 16.2694 36.6369 18.971V20.1062H41.5515C44.5261 20.1062 45.9918 21.5433 45.9918 24.4891V25.3944C40.6174 27.7511 35.2286 28.5846 29.3513 28.5846ZM17.1654 42.8541C14.2052 42.8541 12.7251 41.4171 12.7251 38.4712V27.7655C17.0936 29.4181 21.304 30.2803 25.5288 30.5677V31.7316C25.5288 32.7376 26.118 33.298 27.1239 33.298H31.593C32.5989 33.298 33.1881 32.7376 33.1881 31.7316V30.5677C37.4129 30.2803 41.6233 29.4181 45.9918 27.7655V38.4712C45.9918 41.4171 44.5261 42.8541 41.5515 42.8541H17.1654Z" fill="white" fill-opacity="0.81"/>
</svg>
