<svg width="57" height="56" viewBox="0 0 57 56" fill="none" xmlns="http://www.w3.org/2000/svg">
<path d="M15.6677 41.1297C12.6787 41.1297 11.1555 39.6352 11.1555 36.675V20.8104C11.1555 17.8502 12.6643 16.3557 15.2366 16.3557H41.3183C44.3073 16.3557 45.8305 17.8502 45.8305 20.8104V36.675C45.8305 39.6352 44.3217 41.1297 41.7494 41.1297H15.6677ZM27.1063 29.7198C27.5518 30.1222 28.0116 30.309 28.4858 30.309C28.96 30.309 29.4199 30.1222 29.8653 29.7198L42.1518 18.6405C41.9218 18.583 41.6776 18.5543 41.3902 18.5543H15.5815C15.3084 18.5543 15.0498 18.583 14.8199 18.6405L27.1063 29.7198ZM43.6319 20.8104C43.6319 20.5948 43.6175 20.3937 43.5744 20.2068L34.7799 28.1248L43.6175 36.9624C43.6319 36.8762 43.6319 36.7756 43.6319 36.675V20.8104ZM13.3541 36.6606C13.3541 36.7612 13.3541 36.8618 13.3685 36.9624L22.2061 28.1391L13.3972 20.2212C13.3685 20.3937 13.3541 20.5948 13.3541 20.796V36.6606ZM15.5815 38.9311H41.3902C41.7781 38.9311 42.123 38.8736 42.4104 38.7586L33.1992 29.5474L31.1155 31.4299C30.2964 32.1771 29.4055 32.522 28.4858 32.522C27.5661 32.522 26.6752 32.1771 25.8561 31.4299L23.7724 29.5474L14.5756 38.7586C14.863 38.8736 15.2078 38.9311 15.5815 38.9311Z" fill="white" fill-opacity="0.81"/>
</svg>
