<svg width="57" height="56" viewBox="0 0 57 56" fill="none" xmlns="http://www.w3.org/2000/svg">
<path d="M11.3421 26.4147C11.3421 26.0842 11.4858 25.7393 11.802 25.4807L26.7756 12.9068C27.8534 12.0015 29.1754 12.0015 30.2388 12.9068L37.5676 19.0572V16.3413C37.5676 15.709 37.9843 15.3067 38.6022 15.3067H40.1398C40.7721 15.3067 41.1745 15.709 41.1745 16.3413V22.0893L45.1981 25.4807C45.4999 25.7393 45.6436 26.0267 45.6436 26.4578C45.6436 27.1476 45.0975 27.5643 44.4221 27.5643C44.0197 27.5643 43.6892 27.3488 43.4018 27.1045L29.0174 15.0336C28.7012 14.7462 28.3132 14.7462 27.9971 15.0336L13.6126 27.1045C13.3108 27.3488 12.9803 27.5643 12.578 27.5643C11.802 27.5643 11.3421 27.0039 11.3421 26.4147ZM15.8256 39.2329V27.8517L27.6378 17.9508C28.1695 17.5053 28.8162 17.4909 29.3622 17.9508L41.1745 27.8517V39.2329C41.1745 41.2303 39.9817 42.4086 37.9556 42.4086H19.0589C17.0327 42.4086 15.8256 41.2303 15.8256 39.2329ZM32.1931 40.0951V30.5964C32.1931 29.9354 31.762 29.5043 31.101 29.5043H25.8847C25.2237 29.5043 24.7782 29.9354 24.7782 30.5964V40.0951H32.1931Z" fill="#1DA1F2"/>
</svg>
