<svg width="57" height="57" viewBox="0 0 57 57" fill="none" xmlns="http://www.w3.org/2000/svg">
<path d="M28.5001 43.7881C20.4959 43.7881 13.8426 37.1348 13.8426 29.1307C13.8426 21.1121 20.4816 14.4732 28.4857 14.4732C36.5042 14.4732 43.1576 21.1121 43.1576 29.1307C43.1576 37.1348 36.5186 43.7881 28.5001 43.7881ZM28.5001 34.0165C32.8255 34.0165 36.1593 35.5685 37.6107 37.2929C39.5507 35.1374 40.7147 32.2777 40.7147 29.1307C40.7147 22.348 35.2684 16.9161 28.4857 16.9161C21.703 16.9161 16.2999 22.348 16.2999 29.1307C16.2999 32.2777 17.4639 35.123 19.3894 37.2929C20.8552 35.5685 24.1747 34.0165 28.5001 34.0165ZM28.5001 31.5736C25.741 31.5448 23.5855 29.2456 23.5711 26.156C23.5568 23.2533 25.741 20.8535 28.5001 20.8535C31.2591 20.8535 33.429 23.2533 33.429 26.156C33.429 29.2456 31.2735 31.6023 28.5001 31.5736Z" fill="white" fill-opacity="0.81"/>
</svg>
