<svg width="27" height="27" viewBox="0 0 27 27" fill="none" xmlns="http://www.w3.org/2000/svg">
<g id="message">
<rect id="Rectangle 93" x="0.274227" y="0.39502" width="26.1222" height="26.1222" rx="5.81627" fill="url(#paint0_linear_3_787)"/>
<path id="Ellipse 34" d="M22.8761 12.8949C22.8761 17.2624 18.6045 20.803 13.3353 20.803C12.5373 20.803 11.7621 20.7218 11.0212 20.5688C10.7973 20.5225 10.5639 20.5164 10.3619 20.6233C9.70014 20.9732 8.61111 21.8592 7.19303 21.9219C7.12902 21.9247 7.09321 21.8512 7.1326 21.8007C7.97069 20.7251 8.51687 19.7311 8.1568 19.5378C5.53167 18.129 3.7946 15.6801 3.7946 12.8949C3.7946 8.52739 8.06613 4.98682 13.3353 4.98682C18.6045 4.98682 22.8761 8.52739 22.8761 12.8949Z" fill="white"/>
</g>
<defs>
<linearGradient id="paint0_linear_3_787" x1="13.3353" y1="0.39502" x2="13.3353" y2="26.5172" gradientUnits="userSpaceOnUse">
<stop stop-color="#5CF777"/>
<stop offset="1" stop-color="#0EBC29"/>
</linearGradient>
</defs>
</svg>
