<svg width="15" height="14" viewBox="0 0 15 14" fill="none" xmlns="http://www.w3.org/2000/svg">
<path d="M7.74526 13.7898C8.67629 13.7898 9.55273 13.6116 10.3746 13.2552C11.1965 12.8989 11.9215 12.4066 12.5495 11.7785C13.1776 11.1504 13.6699 10.4254 14.0262 9.60355C14.3826 8.7817 14.5608 7.90526 14.5608 6.97423C14.5608 6.04322 14.3826 5.16677 14.0262 4.3449C13.6699 3.52303 13.1776 2.79804 12.5495 2.16994C11.9215 1.54184 11.1953 1.04961 10.3712 0.693243C9.54714 0.336875 8.66959 0.158691 7.73857 0.158691C6.80756 0.158691 5.93112 0.336875 5.10925 0.693243C4.28737 1.04961 3.5635 1.54184 2.93763 2.16994C2.31176 2.79804 1.82064 3.52303 1.46427 4.3449C1.1079 5.16677 0.929718 6.04322 0.929718 6.97423C0.929718 7.90526 1.1079 8.7817 1.46427 9.60355C1.82064 10.4254 2.31287 11.1504 2.94097 11.7785C3.56907 12.4066 4.29405 12.8989 5.11592 13.2552C5.9378 13.6116 6.81424 13.7898 7.74526 13.7898Z" fill="#0584FE"/>
<path d="M4.48433 6.98042C4.48433 6.80669 4.54001 6.66526 4.65138 6.55613C4.76274 6.44699 4.90529 6.39242 5.07902 6.39242H7.17045V4.30099C7.17045 4.12726 7.22279 3.98471 7.32748 3.87335C7.43216 3.76198 7.56914 3.7063 7.73841 3.7063C7.91213 3.7063 8.05357 3.76198 8.16272 3.87335C8.27183 3.98471 8.32639 4.12726 8.32639 4.30099V6.39242H10.4246C10.5983 6.39242 10.7397 6.44699 10.8489 6.55613C10.958 6.66526 11.0125 6.80669 11.0125 6.98042C11.0125 7.1497 10.9569 7.28668 10.8455 7.39137C10.7341 7.49606 10.5938 7.5484 10.4246 7.5484H8.32639V9.64651C8.32639 9.82021 8.27183 9.96164 8.16272 10.0708C8.05357 10.18 7.91213 10.2345 7.73841 10.2345C7.56914 10.2345 7.43216 10.18 7.32748 10.0708C7.22279 9.96164 7.17045 9.82021 7.17045 9.64651V7.5484H5.07902C4.90529 7.5484 4.76274 7.49606 4.65138 7.39137C4.54001 7.28668 4.48433 7.1497 4.48433 6.98042Z" fill="#2C2C2E"/>
</svg>
