<svg width="23" height="23" viewBox="0 0 23 23" fill="none" xmlns="http://www.w3.org/2000/svg">
<path d="M11.8194 22.8087C13.3104 22.8087 14.714 22.5235 16.0302 21.953C17.3465 21.3826 18.5075 20.5946 19.5134 19.5893C20.5193 18.5838 21.3076 17.4233 21.8783 16.1078C22.4491 14.7922 22.7344 13.3892 22.7344 11.899C22.7344 10.4087 22.4491 9.00576 21.8783 7.69018C21.3076 6.37459 20.5193 5.2141 19.5134 4.2087C18.5075 3.20329 17.3447 2.41537 16.0248 1.84492C14.7051 1.27448 13.2997 0.989258 11.8087 0.989258C10.3177 0.989258 8.91405 1.27448 7.59783 1.84492C6.2816 2.41537 5.12232 3.20329 4.12 4.2087C3.11767 5.2141 2.33114 6.37459 1.76042 7.69018C1.1897 9.00576 0.904343 10.4087 0.904343 11.899C0.904343 13.3892 1.1897 14.7922 1.76042 16.1078C2.33114 17.4233 3.11945 18.5838 4.12534 19.5893C5.13124 20.5946 6.2923 21.3826 7.60852 21.953C8.92475 22.5235 10.3284 22.8087 11.8194 22.8087Z" fill="#0584FE"/>
<path d="M8.28798 16.6798L6.75774 17.2468C6.63646 17.2895 6.52588 17.2646 6.426 17.1719C6.32612 17.0792 6.30829 16.9651 6.37249 16.8297L6.99316 15.3643L14.2057 8.16603L15.5112 9.47092L8.28798 16.6798ZM16.1746 8.81847L14.8691 7.50289L15.6824 6.7007C15.8607 6.52957 16.0462 6.43687 16.2388 6.42261C16.4314 6.40835 16.6134 6.48322 16.7846 6.64722L17.0307 6.90393C17.2019 7.06793 17.2822 7.24798 17.2715 7.44406C17.2608 7.64016 17.1663 7.8309 16.9879 8.01629L16.1746 8.81847Z" fill="#2C2C2E"/>
</svg>
