<svg width="16" height="16" viewBox="0 0 16 16" fill="none" xmlns="http://www.w3.org/2000/svg">
<path d="M0.290312 8.22541C0.290312 8.0495 0.353137 7.89872 0.478786 7.77307C0.604435 7.64743 0.752072 7.5846 0.921698 7.5846H7.2921V1.22363C7.2921 1.054 7.35178 0.906363 7.47115 0.780714C7.59679 0.655065 7.74757 0.592241 7.92348 0.592241C8.09939 0.592241 8.25017 0.655065 8.37582 0.780714C8.50147 0.906363 8.56429 1.054 8.56429 1.22363V7.5846H14.9158C15.0917 7.5846 15.2425 7.64743 15.3682 7.77307C15.4938 7.89872 15.5567 8.0495 15.5567 8.22541C15.5567 8.40132 15.4938 8.5521 15.3682 8.67775C15.2425 8.79711 15.0917 8.8568 14.9158 8.8568H8.56429V15.2272C8.56429 15.3968 8.50147 15.5445 8.37582 15.6701C8.25017 15.7958 8.09939 15.8586 7.92348 15.8586C7.74757 15.8586 7.59679 15.7958 7.47115 15.6701C7.35178 15.5445 7.2921 15.3968 7.2921 15.2272V8.8568H0.921698C0.752072 8.8568 0.604435 8.79711 0.478786 8.67775C0.353137 8.5521 0.290312 8.40132 0.290312 8.22541Z" fill="#FF9600"/>
</svg>
