<svg width="33" height="49" viewBox="0 0 33 49" fill="none" xmlns="http://www.w3.org/2000/svg">
<g clip-path="url(#clip0_3_656)">
<path fill-rule="evenodd" clip-rule="evenodd" d="M16.5509 33.5765C25.6352 33.5765 32.9995 26.1879 32.9995 17.0735C32.9995 7.95919 25.6352 0.570557 16.5509 0.570557C7.46663 0.570557 0.102356 7.95919 0.102356 17.0735C0.102356 26.1879 7.46663 33.5765 16.5509 33.5765Z" fill="#555454" fill-opacity="0.52"/>
<path fill-rule="evenodd" clip-rule="evenodd" d="M18.4009 23.4679C18.4009 24.4933 17.5725 25.3245 16.5505 25.3245C15.5694 25.3245 14.7666 24.5584 14.7039 23.59L14.7 23.4679H18.4009ZM16.5438 9.44043C19.2664 9.44043 20.9945 11.3383 21.4735 14.387L22.1352 19.2021C22.6011 20.9839 23.5413 20.3755 23.5413 21.3526C23.5413 21.9743 22.9273 22.2657 21.6993 22.2268L21.5196 22.219H11.5817L11.4021 22.2268C10.174 22.2657 9.56003 21.9743 9.56003 21.3526C9.56003 20.4104 10.4343 20.9425 10.9145 19.384L10.9662 19.2021C10.9662 19.2021 11.4796 15.5735 11.6278 14.387C12.0946 11.4165 13.7471 9.53851 16.3501 9.44416L16.5438 9.44043Z" fill="#007AFF"/>
<path d="M6.3385 44.2812V37.7925H7.49866L9.56715 42.9682H9.6391L11.7076 37.7925H12.8677V44.2812H11.9504V39.5192H11.883L9.97635 44.2812H9.2299L7.32778 39.5192H7.25584V44.2812H6.3385ZM16.0033 44.3757C14.9016 44.3757 14.3305 43.7147 14.3305 42.559V39.3978H15.3063V42.3297C15.3063 43.1391 15.6031 43.5393 16.318 43.5393C17.1005 43.5393 17.5187 43.0491 17.5187 42.2622V39.3978H18.49V44.2812H17.5187V43.5438H17.4422C17.2084 44.0699 16.7138 44.3757 16.0033 44.3757ZM21.7334 44.3127C20.6587 44.3127 20.218 43.935 20.218 42.9952V40.1668H19.4536V39.3978H20.218V38.1657H21.2118V39.3978H22.2595V40.1668H21.2118V42.7614C21.2118 43.2875 21.4097 43.5033 21.8908 43.5033C22.0392 43.5033 22.1246 43.4988 22.2595 43.4853V44.2633C22.1021 44.2902 21.9223 44.3127 21.7334 44.3127ZM25.3861 44.3757C23.9561 44.3757 23.0927 43.3999 23.0927 41.853V41.8485C23.0927 40.3241 23.9741 39.3034 25.3366 39.3034C26.6991 39.3034 27.5355 40.2882 27.5355 41.7541V42.0958H24.073C24.091 43.0312 24.6036 43.5753 25.4086 43.5753C26.0336 43.5753 26.4068 43.265 26.5237 43.0132L26.5417 42.9772L27.4815 42.9727L27.4725 43.0132C27.3107 43.6562 26.6362 44.3757 25.3861 44.3757ZM25.3411 40.1038C24.6756 40.1038 24.172 40.558 24.0865 41.3989H26.5687C26.4923 40.5265 26.0021 40.1038 25.3411 40.1038Z" fill="#007AFF"/>
</g>
<defs>
<clipPath id="clip0_3_656">
<rect width="32.8972" height="47.8586" fill="white" transform="translate(0.102386 0.56958)"/>
</clipPath>
</defs>
</svg>
