<svg width="7" height="11" viewBox="0 0 7 11" fill="none" xmlns="http://www.w3.org/2000/svg">
<path d="M6.68026 5.44882C6.68026 5.56876 6.65627 5.6827 6.6083 5.79064C6.56432 5.89459 6.49236 5.99453 6.39241 6.09048L1.78081 10.6061C1.62489 10.7581 1.43499 10.834 1.21111 10.834C1.06718 10.834 0.933252 10.798 0.809316 10.7261C0.685381 10.6541 0.585433 10.5582 0.509472 10.4382C0.43751 10.3183 0.401528 10.1824 0.401528 10.0304C0.401528 9.81055 0.485485 9.61465 0.653397 9.44274L4.76126 5.44882L0.653397 1.4549C0.485485 1.28699 0.401528 1.09109 0.401528 0.867204C0.401528 0.719281 0.43751 0.585351 0.509472 0.465413C0.585433 0.341478 0.685381 0.243529 0.809316 0.171566C0.933252 0.0996037 1.06718 0.0636224 1.21111 0.0636224C1.43499 0.0636224 1.62489 0.139583 1.78081 0.291504L6.39241 4.80715C6.48836 4.9031 6.56032 5.00305 6.6083 5.107C6.65627 5.21094 6.68026 5.32488 6.68026 5.44882Z" fill="#C7C7CC"/>
</svg>
