<svg width="14" height="14" viewBox="0 0 14 14" fill="none" xmlns="http://www.w3.org/2000/svg">
<path d="M7.12894 13.7903C8.05997 13.7903 8.93641 13.6121 9.75826 13.2557C10.5801 12.8993 11.3051 12.4071 11.9332 11.779C12.5613 11.1509 13.0536 10.4259 13.4099 9.60404C13.7663 8.78219 13.9445 7.90575 13.9445 6.97472C13.9445 6.0437 13.7663 5.16726 13.4099 4.34539C13.0536 3.52352 12.5613 2.79853 11.9332 2.17043C11.3051 1.54233 10.579 1.0501 9.7549 0.693732C8.93082 0.337364 8.05327 0.15918 7.12225 0.15918C6.19124 0.15918 5.3148 0.337364 4.49293 0.693732C3.67105 1.0501 2.94718 1.54233 2.32131 2.17043C1.69544 2.79853 1.20432 3.52352 0.847952 4.34539C0.491584 5.16726 0.3134 6.0437 0.3134 6.97472C0.3134 7.90575 0.491584 8.78219 0.847952 9.60404C1.20432 10.4259 1.69655 11.1509 2.32465 11.779C2.95275 12.4071 3.67774 12.8993 4.49961 13.2557C5.32148 13.6121 6.19793 13.7903 7.12894 13.7903Z" fill="#FF3B30"/>
<path d="M4.88397 9.78156C4.73252 9.78156 4.60333 9.72698 4.49642 9.61782C4.38951 9.50871 4.33606 9.37843 4.33606 9.22699C4.33606 9.0755 4.38951 8.9463 4.49642 8.83938L6.35399 6.98184L4.49642 5.13095C4.38951 5.01959 4.33606 4.89041 4.33606 4.74341C4.33606 4.58749 4.38951 4.4572 4.49642 4.35252C4.60333 4.24783 4.73252 4.19549 4.88397 4.19549C5.03097 4.19549 5.16016 4.24672 5.27152 4.34918L7.13577 6.20674L9.01336 4.34249C9.12028 4.23558 9.24725 4.18213 9.39426 4.18213C9.54571 4.18213 9.67489 4.23558 9.78181 4.34249C9.88873 4.4494 9.94219 4.57859 9.94219 4.73004C9.94219 4.8815 9.88873 5.01291 9.78181 5.12427L7.91757 6.98184L9.7751 8.83274C9.88203 8.93072 9.93549 9.06214 9.93549 9.22699C9.93549 9.37843 9.88203 9.50871 9.7751 9.61782C9.66823 9.72698 9.53683 9.78156 9.38092 9.78156C9.22054 9.78156 9.08912 9.7281 8.98667 9.62117L7.13577 7.76364L5.29157 9.62117C5.1802 9.7281 5.04434 9.78156 4.88397 9.78156Z" fill="#2C2C2E"/>
</svg>
