<svg width="38" height="47" viewBox="0 0 38 47" fill="none" xmlns="http://www.w3.org/2000/svg">
<g clip-path="url(#clip0_3_678)">
<path fill-rule="evenodd" clip-rule="evenodd" d="M20.4994 33.7264C29.5837 33.7264 36.948 26.3378 36.948 17.2234C36.948 8.10909 29.5837 0.720459 20.4994 0.720459C11.4151 0.720459 4.05084 8.10909 4.05084 17.2234C4.05084 26.3378 11.4151 33.7264 20.4994 33.7264Z" fill="#555454" fill-opacity="0.52"/>
<path d="M4.95274 44.4316C3.32492 44.4316 2.32216 43.4648 2.32216 42.0393V37.7854H3.32942V41.9629C3.32942 42.9027 3.91849 43.5412 4.95274 43.5412C5.98698 43.5412 6.57156 42.9027 6.57156 41.9629V37.7854H7.57882V42.0393C7.57882 43.4648 6.58505 44.4316 4.95274 44.4316ZM9.08204 44.2742V39.3907H10.0578V40.1327H10.1298C10.3681 39.6111 10.8358 39.2963 11.5462 39.2963C12.6389 39.2963 13.2415 39.9483 13.2415 41.113V44.2742H12.2702V41.3423C12.2702 40.5329 11.933 40.1327 11.218 40.1327C10.503 40.1327 10.0578 40.6228 10.0578 41.4098V44.2742H9.08204ZM14.5963 44.2742V39.3907H15.5721V40.1417H15.6441C15.8599 39.6066 16.3366 39.2963 16.9751 39.2963C17.6406 39.2963 18.1128 39.6425 18.3286 40.1687H18.4051C18.6524 39.6425 19.2145 39.2963 19.8935 39.2963C20.8783 39.2963 21.4538 39.8899 21.4538 40.9061V44.2742H20.4825V41.14C20.4825 40.4654 20.1768 40.1327 19.5382 40.1327C18.9177 40.1327 18.5085 40.5959 18.5085 41.1849V44.2742H17.5372V41.041C17.5372 40.4834 17.173 40.1327 16.5974 40.1327C16.0083 40.1327 15.5721 40.6363 15.5721 41.2749V44.2742H14.5963ZM24.4365 44.3686C23.3348 44.3686 22.7637 43.7076 22.7637 42.5519V39.3907H23.7395V42.3226C23.7395 43.132 24.0363 43.5322 24.7513 43.5322C25.5337 43.5322 25.9519 43.0421 25.9519 42.2551V39.3907H26.9232V44.2742H25.9519V43.5367H25.8754C25.6416 44.0628 25.147 44.3686 24.4365 44.3686ZM30.1666 44.3056C29.0919 44.3056 28.6512 43.9279 28.6512 42.9881V40.1597H27.8868V39.3907H28.6512V38.1586H29.645V39.3907H30.6927V40.1597H29.645V42.7543C29.645 43.2804 29.8429 43.4962 30.324 43.4962C30.4724 43.4962 30.5578 43.4917 30.6927 43.4783V44.2562C30.5354 44.2832 30.3555 44.3056 30.1666 44.3056ZM33.8193 44.3686C32.3893 44.3686 31.526 43.3928 31.526 41.8459V41.8414C31.526 40.3171 32.4073 39.2963 33.7698 39.2963C35.1323 39.2963 35.9687 40.2811 35.9687 41.747V42.0888H32.5062C32.5242 43.0241 33.0368 43.5682 33.8418 43.5682C34.4668 43.5682 34.84 43.2579 34.9569 43.0061L34.9749 42.9701L35.9147 42.9656L35.9058 43.0061C35.7439 43.6491 35.0694 44.3686 33.8193 44.3686ZM33.7743 40.0967C33.1088 40.0967 32.6052 40.5509 32.5197 41.3918H35.0019C34.9255 40.5194 34.4353 40.0967 33.7743 40.0967Z" fill="#007AFF"/>
<g clip-path="url(#clip1_3_678)">
<path d="M20.2422 25.2332C20.6484 25.2332 21.0104 25.1448 21.3282 24.9679C21.6461 24.7911 21.903 24.5593 22.0989 24.2726C22.2948 23.9858 22.4095 23.6752 22.443 23.3407H18.0414C18.0749 23.6752 18.1884 23.9858 18.3819 24.2726C18.5755 24.5593 18.8324 24.7911 19.1526 24.9679C19.4728 25.1448 19.836 25.2332 20.2422 25.2332ZM14.5574 22.3585H23.21L15.7331 14.8744C15.6518 15.2137 15.5909 15.5734 15.5503 15.9533C15.5097 16.3333 15.487 16.7335 15.4822 17.1541C15.4631 17.4313 15.4332 17.718 15.3926 18.0143C15.352 18.3106 15.2874 18.5902 15.199 18.853C15.1106 19.1159 14.9875 19.3286 14.8298 19.4911C14.6196 19.7061 14.4105 19.9212 14.2026 20.1363C13.9947 20.3513 13.8214 20.5711 13.6828 20.7958C13.5442 21.0204 13.4749 21.2522 13.4749 21.4911C13.4749 21.754 13.5705 21.9643 13.7617 22.122C13.9529 22.2797 14.2181 22.3585 14.5574 22.3585ZM20.2422 10.1431C19.7117 10.1431 19.2673 10.3056 18.9088 10.6305C18.5504 10.9555 18.3043 11.3522 18.1704 11.8205C17.9841 11.8827 17.8084 11.9591 17.6435 12.0499C17.4787 12.1407 17.3245 12.2435 17.1812 12.3582L26.8231 22.0145C26.9425 21.8759 27.0023 21.7014 27.0023 21.4911C27.0023 21.2522 26.933 21.0204 26.7944 20.7958C26.6558 20.5711 26.4826 20.3513 26.2747 20.1363C26.0668 19.9212 25.8601 19.7061 25.6546 19.4911C25.4969 19.3286 25.3738 19.1159 25.2854 18.853C25.197 18.5902 25.1313 18.3106 25.0882 18.0143C25.0452 17.718 25.0166 17.4313 25.0022 17.1541C24.9831 16.2365 24.8828 15.4192 24.7012 14.7024C24.5196 13.9855 24.2352 13.3833 23.8481 12.8959C23.4609 12.4084 22.9496 12.0499 22.314 11.8205C22.1754 11.3522 21.9269 10.9555 21.5684 10.6305C21.21 10.3056 20.7679 10.1431 20.2422 10.1431ZM13.6327 11.5983L26.5149 24.4661C26.62 24.5713 26.7502 24.6239 26.9055 24.6239C27.0609 24.6239 27.1911 24.5713 27.2962 24.4661C27.4014 24.3562 27.454 24.2248 27.454 24.0719C27.454 23.9189 27.4014 23.7899 27.2962 23.6848L14.4212 10.8169C14.3161 10.7118 14.1858 10.6592 14.0305 10.6592C13.8752 10.6592 13.7426 10.7118 13.6327 10.8169C13.5275 10.9221 13.4749 11.0523 13.4749 11.2076C13.4749 11.3629 13.5275 11.4932 13.6327 11.5983Z" fill="#007AFF"/>
</g>
</g>
<defs>
<clipPath id="clip0_3_678">
<rect width="36.1255" height="45.5496" fill="white" transform="translate(0.909546 0.718994)"/>
</clipPath>
<clipPath id="clip1_3_678">
<rect width="13.979" height="15.0901" fill="white" transform="translate(13.4749 10.1431)"/>
</clipPath>
</defs>
</svg>
