<svg width="20" height="20" viewBox="0 0 20 20" fill="none" xmlns="http://www.w3.org/2000/svg">
<circle cx="10" cy="10" r="10" fill="#0A84FF"/>
<path d="M7.27091 15.4791C6.69453 15.4791 6.25529 15.3298 5.95321 15.0312C5.6546 14.736 5.50529 14.302 5.50529 13.7291V7.77596C5.50529 7.20652 5.6546 6.77249 5.95321 6.47388C6.25529 6.17527 6.69453 6.02596 7.27091 6.02596H12.9949L11.8386 7.18742H7.36987C7.14071 7.18742 6.96536 7.24645 6.84383 7.3645C6.7223 7.48256 6.66154 7.66138 6.66154 7.90096V13.6145C6.66154 13.8541 6.7223 14.0329 6.84383 14.151C6.96536 14.2655 7.14071 14.3228 7.36987 14.3228H13.2084C13.3786 14.3228 13.5192 14.2655 13.6303 14.151C13.7414 14.0329 13.797 13.8541 13.797 13.6145V9.18221L14.9584 8.02596V13.7291C14.9584 14.302 14.8126 14.736 14.5209 15.0312C14.2327 15.3298 13.8265 15.4791 13.3022 15.4791H7.27091ZM9.29175 11.927C9.22578 11.9513 9.16328 11.9357 9.10425 11.8801C9.04522 11.8246 9.03133 11.7621 9.06258 11.6926L9.53133 10.6249L14.2032 5.95304L15.0574 6.802L10.3855 11.4739L9.29175 11.927ZM15.4636 6.40096L14.6095 5.54159L14.9584 5.19263C15.0661 5.08846 15.1893 5.03117 15.3282 5.02075C15.4706 5.00686 15.5886 5.04506 15.6824 5.13534L15.8334 5.29159C15.9411 5.39575 15.9931 5.51728 15.9897 5.65617C15.9862 5.79506 15.9289 5.92179 15.8178 6.03638L15.4636 6.40096Z" fill="white"/>
</svg>
