<svg width="10" height="11" viewBox="0 0 10 11" fill="none" xmlns="http://www.w3.org/2000/svg">
<path d="M5.04764 3.07691C5.23363 3.04585 5.38763 2.89597 5.38763 2.70741C5.38763 2.51884 5.23401 2.36375 5.04689 2.38703C3.81083 2.54085 2.83112 3.52056 2.6773 4.75662C2.65402 4.94374 2.80912 5.09736 2.99768 5.09736C3.18624 5.09736 3.33612 4.94335 3.36718 4.75737C3.51067 3.89839 4.18866 3.2204 5.04764 3.07691Z" fill="#72767A"/>
<path fill-rule="evenodd" clip-rule="evenodd" d="M9.14329 4.75594C9.14329 6.90846 7.48332 8.67328 5.37368 8.84011C5.75762 8.93242 6.1064 9.18986 6.2942 9.61243L6.41191 9.87727H3.68053L3.79824 9.61243C3.98605 9.18986 4.33482 8.93242 4.71877 8.84011C2.60912 8.67328 0.949158 6.90846 0.949158 4.75594C0.949158 2.49319 2.78348 0.658875 5.04622 0.658875C7.30897 0.658875 9.14329 2.49319 9.14329 4.75594ZM5.04622 8.17016C6.93184 8.17016 8.46044 6.64156 8.46044 4.75594C8.46044 2.87032 6.93184 1.34172 5.04622 1.34172C3.1606 1.34172 1.632 2.87032 1.632 4.75594C1.632 6.64156 3.1606 8.17016 5.04622 8.17016Z" fill="#72767A"/>
</svg>
