<svg width="12" height="12" viewBox="0 0 12 12" fill="none" xmlns="http://www.w3.org/2000/svg">
<g id="Calendar Icon">
<path id="Union" fill-rule="evenodd" clip-rule="evenodd" d="M8.95168 0.79364H1.84546C0.973312 0.79364 0.266296 1.49391 0.266296 2.35776V10.1784C0.266296 11.0422 0.973312 11.7425 1.84546 11.7425H8.95168C9.82383 11.7425 10.5308 11.0422 10.5308 10.1784V2.35776C10.5308 1.49391 9.82383 0.79364 8.95168 0.79364ZM1.05588 10.1784V3.13982H9.74127V10.1784C9.74127 10.6103 9.38775 10.9604 8.95168 10.9604H1.84546C1.40938 10.9604 1.05588 10.6103 1.05588 10.1784ZM3.42462 4.70395C3.42462 5.13586 3.07112 5.48601 2.63504 5.48601C2.19896 5.48601 1.84546 5.13586 1.84546 4.70395C1.84546 4.27203 2.19896 3.92188 2.63504 3.92188C3.07112 3.92188 3.42462 4.27203 3.42462 4.70395ZM2.63504 7.83219C3.07112 7.83219 3.42462 7.48204 3.42462 7.05013C3.42462 6.61821 3.07112 6.26807 2.63504 6.26807C2.19896 6.26807 1.84546 6.61821 1.84546 7.05013C1.84546 7.48204 2.19896 7.83219 2.63504 7.83219ZM3.42462 9.39631C3.42462 9.82823 3.07112 10.1784 2.63504 10.1784C2.19896 10.1784 1.84546 9.82823 1.84546 9.39631C1.84546 8.9644 2.19896 8.61425 2.63504 8.61425C3.07112 8.61425 3.42462 8.9644 3.42462 9.39631ZM5.00378 5.48601C5.43986 5.48601 5.79336 5.13586 5.79336 4.70395C5.79336 4.27203 5.43986 3.92188 5.00378 3.92188C4.5677 3.92188 4.2142 4.27203 4.2142 4.70395C4.2142 5.13586 4.5677 5.48601 5.00378 5.48601ZM5.79336 7.05013C5.79336 7.48204 5.43986 7.83219 5.00378 7.83219C4.5677 7.83219 4.2142 7.48204 4.2142 7.05013C4.2142 6.61821 4.5677 6.26807 5.00378 6.26807C5.43986 6.26807 5.79336 6.61821 5.79336 7.05013ZM5.00378 10.1784C5.43986 10.1784 5.79336 9.82823 5.79336 9.39631C5.79336 8.9644 5.43986 8.61425 5.00378 8.61425C4.5677 8.61425 4.2142 8.9644 4.2142 9.39631C4.2142 9.82823 4.5677 10.1784 5.00378 10.1784ZM8.1621 4.70395C8.1621 5.13586 7.8086 5.48601 7.37252 5.48601C6.93644 5.48601 6.58294 5.13586 6.58294 4.70395C6.58294 4.27203 6.93644 3.92188 7.37252 3.92188C7.8086 3.92188 8.1621 4.27203 8.1621 4.70395ZM7.37252 7.83219C7.8086 7.83219 8.1621 7.48204 8.1621 7.05013C8.1621 6.61821 7.8086 6.26807 7.37252 6.26807C6.93644 6.26807 6.58294 6.61821 6.58294 7.05013C6.58294 7.48204 6.93644 7.83219 7.37252 7.83219Z" fill="#72767A"/>
</g>
</svg>
