<svg width="11" height="12" viewBox="0 0 11 12" fill="none" xmlns="http://www.w3.org/2000/svg">
<g id="Location Icon">
<path id="Vector 3 (Stroke)" fill-rule="evenodd" clip-rule="evenodd" d="M5.47443 1.60467C3.46453 1.60467 1.83518 3.23866 1.83518 5.25428V5.68814C1.83518 6.84575 2.32511 7.94896 3.18311 8.72336L5.47443 10.7914L7.76575 8.72336C8.62375 7.94896 9.11368 6.84575 9.11368 5.68814V5.25428C9.11368 3.23866 7.48433 1.60467 5.47443 1.60467ZM9.9224 5.25428V5.68814C9.9224 7.07566 9.33516 8.39799 8.30675 9.32619L5.74493 11.6384C5.59115 11.7772 5.35771 11.7772 5.20393 11.6384L2.64211 9.32619C2.51356 9.21016 2.3919 9.08798 2.27742 8.96028C1.47606 8.06639 1.02646 6.90222 1.02646 5.68814V5.25428C1.02646 2.79074 3.01788 0.79364 5.47443 0.79364C7.93098 0.79364 9.9224 2.79074 9.9224 5.25428ZM5.47443 4.03774C4.80446 4.03774 4.26135 4.58241 4.26135 5.25428C4.26135 5.92616 4.80446 6.47082 5.47443 6.47082C6.1444 6.47082 6.68751 5.92616 6.68751 5.25428C6.68751 4.58241 6.1444 4.03774 5.47443 4.03774ZM3.45263 5.25428C3.45263 4.13449 4.35782 3.22672 5.47443 3.22672C6.59104 3.22672 7.49624 4.13449 7.49624 5.25428C7.49624 6.37408 6.59104 7.28185 5.47443 7.28185C4.35782 7.28185 3.45263 6.37408 3.45263 5.25428Z" fill="#72767A"/>
</g>
</svg>
