<svg width="12" height="10" viewBox="0 0 12 10" fill="none" xmlns="http://www.w3.org/2000/svg">
<g id="Group">
<path id="Vector" d="M6.92232 9.55853C7.53057 9.55853 8.10317 9.44209 8.64013 9.20921C9.17707 8.9763 9.65072 8.65461 10.0611 8.24415C10.4714 7.83365 10.793 7.35986 11.0258 6.82276C11.2587 6.28563 11.3751 5.71285 11.3751 5.10441C11.3751 4.49597 11.2579 3.92319 11.0237 3.38607C10.7894 2.84895 10.4671 2.37515 10.0567 1.96468C9.64637 1.5542 9.17272 1.23251 8.63575 0.999613C8.09882 0.766717 7.52621 0.650269 6.91794 0.650269C6.35043 0.650269 5.81348 0.752161 5.30709 0.955945C4.80071 1.15973 4.34744 1.44211 3.94727 1.8031C3.5471 2.16409 3.22115 2.58476 2.96941 3.06511C2.71767 3.54546 2.56124 4.0622 2.50012 4.61532C2.60489 4.59494 2.72785 4.58112 2.869 4.57384C3.01015 4.56656 3.13893 4.5702 3.25534 4.58475C3.31646 4.13352 3.45179 3.71358 3.66133 3.32493C3.87087 2.93629 4.14008 2.59786 4.46894 2.30965C4.7978 2.02144 5.17032 1.79655 5.58648 1.63498C6.00266 1.47341 6.44648 1.39262 6.91794 1.39262C7.43309 1.39262 7.91475 1.48797 8.36294 1.67865C8.81112 1.86933 9.20545 2.13498 9.54593 2.47559C9.88645 2.8162 10.1528 3.21067 10.3449 3.65899C10.5369 4.10732 10.633 4.58913 10.633 5.10441C10.633 5.58475 10.5486 6.03744 10.3798 6.46248C10.211 6.88752 9.97669 7.26306 9.67691 7.5891C9.53431 7.42025 9.33059 7.25941 9.06574 7.10657C8.80093 6.95373 8.48663 6.82929 8.12284 6.73324C7.75905 6.63716 7.35742 6.58912 6.91794 6.58912C6.7084 6.58912 6.5076 6.60149 6.31553 6.62623C6.12346 6.65097 5.94157 6.68372 5.76985 6.72447C5.82224 6.9341 5.84844 7.15389 5.84844 7.38385C5.84844 7.72447 5.7895 8.04908 5.67164 8.35768C5.55378 8.66625 5.39006 8.94427 5.18051 9.19172C5.44827 9.30817 5.72911 9.39842 6.02304 9.46248C6.31698 9.52651 6.61673 9.55853 6.92232 9.55853ZM6.91794 5.84679C7.19733 5.84968 7.4498 5.77907 7.67537 5.63497C7.90091 5.49086 8.08061 5.29436 8.21448 5.04546C8.34838 4.79655 8.41533 4.51489 8.41533 4.20048C8.41533 3.90645 8.34838 3.63716 8.21448 3.39262C8.08061 3.14808 7.90091 2.95303 7.67537 2.80747C7.4498 2.66191 7.19733 2.58913 6.91794 2.58913C6.63855 2.58913 6.38536 2.66191 6.15836 2.80747C5.93136 2.95303 5.75093 3.14808 5.61706 3.39262C5.48319 3.63716 5.4177 3.90645 5.42059 4.20048C5.42059 4.51198 5.48754 4.79145 5.62144 5.0389C5.75531 5.28636 5.93501 5.48214 6.16055 5.62625C6.38609 5.77035 6.63855 5.84386 6.91794 5.84679Z" fill="white"/>
<path id="Vector_2" d="M3.03271 9.6066C3.33247 9.6066 3.61623 9.54837 3.88397 9.4319C4.15172 9.31546 4.38818 9.15534 4.59336 8.95156C4.79853 8.74777 4.95933 8.51197 5.07574 8.24415C5.19216 7.9763 5.25036 7.691 5.25036 7.38824C5.25036 7.08256 5.19288 6.79581 5.07792 6.52799C4.96297 6.26017 4.80363 6.02437 4.59991 5.82059C4.39619 5.6168 4.16045 5.4574 3.89271 5.34239C3.62496 5.22741 3.33829 5.16992 3.03271 5.16992C2.73004 5.16992 2.44483 5.22741 2.17709 5.34239C1.90934 5.4574 1.6736 5.61751 1.46988 5.82273C1.26616 6.02798 1.10609 6.2638 0.989681 6.53018C0.873269 6.79654 0.815063 7.08256 0.815063 7.38824C0.815063 7.69392 0.873269 7.98067 0.989681 8.24849C1.10609 8.51634 1.26616 8.75215 1.46988 8.95594C1.6736 9.15973 1.90934 9.31911 2.17709 9.43409C2.44483 9.5491 2.73004 9.6066 3.03271 9.6066Z" fill="#FF3B30"/>
<path id="Vector_3" d="M2.40409 8.41884C2.34879 8.47706 2.28331 8.50326 2.20764 8.49745C2.13198 8.49164 2.06795 8.46107 2.01556 8.40574C1.96027 8.35333 1.92971 8.28928 1.92389 8.21359C1.91807 8.1379 1.94426 8.07095 2.00247 8.01273L2.63982 7.37517L2.05485 6.78129C2.00247 6.72889 1.97628 6.66557 1.97628 6.59134C1.97628 6.51711 2.00247 6.45525 2.05485 6.40577C2.10724 6.35625 2.16908 6.3315 2.24039 6.3315C2.31169 6.3315 2.37353 6.35625 2.42592 6.40577L3.01962 6.99526L3.66134 6.35336C3.71663 6.29803 3.78211 6.27328 3.85778 6.27909C3.93345 6.28493 3.99748 6.31406 4.04986 6.36646C4.10516 6.42176 4.13572 6.48726 4.14154 6.56295C4.14736 6.63864 4.12117 6.70414 4.06296 6.75947L3.4256 7.40137L4.01494 7.99091C4.06441 8.04332 4.08915 8.10663 4.08915 8.18086C4.08915 8.25509 4.06441 8.31695 4.01494 8.36643C3.96255 8.41592 3.89998 8.44139 3.82722 8.44285C3.75447 8.44431 3.6919 8.41884 3.63951 8.36643L3.04581 7.77694L2.40409 8.41884Z" fill="white"/>
</g>
</svg>
