<svg width="154" height="154" viewBox="0 0 154 154" fill="none" xmlns="http://www.w3.org/2000/svg">
<g id="Vector">
<path d="M5.31035 0H0V5.31035H5.31035V0Z" fill="white"/>
<path d="M10.6207 0H5.31035V5.31035H10.6207V0Z" fill="white"/>
<path d="M15.931 0H10.6207V5.31035H15.931V0Z" fill="white"/>
<path d="M21.2414 0H15.931V5.31035H21.2414V0Z" fill="white"/>
<path d="M26.5517 0H21.2414V5.31035H26.5517V0Z" fill="white"/>
<path d="M31.8621 0H26.5517V5.31035H31.8621V0Z" fill="white"/>
<path d="M37.1724 0H31.8621V5.31035H37.1724V0Z" fill="white"/>
<path d="M47.7931 0H42.4828V5.31035H47.7931V0Z" fill="white"/>
<path d="M58.4138 0H53.1035V5.31035H58.4138V0Z" fill="white"/>
<path d="M84.9655 0H79.6552V5.31035H84.9655V0Z" fill="white"/>
<path d="M90.2759 0H84.9655V5.31035H90.2759V0Z" fill="white"/>
<path d="M100.897 0H95.5862V5.31035H100.897V0Z" fill="white"/>
<path d="M111.517 0H106.207V5.31035H111.517V0Z" fill="white"/>
<path d="M122.138 0H116.828V5.31035H122.138V0Z" fill="white"/>
<path d="M127.448 0H122.138V5.31035H127.448V0Z" fill="white"/>
<path d="M132.759 0H127.448V5.31035H132.759V0Z" fill="white"/>
<path d="M138.069 0H132.759V5.31035H138.069V0Z" fill="white"/>
<path d="M143.379 0H138.069V5.31035H143.379V0Z" fill="white"/>
<path d="M148.69 0H143.379V5.31035H148.69V0Z" fill="white"/>
<path d="M154 0H148.69V5.31035H154V0Z" fill="white"/>
<path d="M5.31035 5.31035H0V10.6207H5.31035V5.31035Z" fill="white"/>
<path d="M37.1724 5.31035H31.8621V10.6207H37.1724V5.31035Z" fill="white"/>
<path d="M53.1035 5.31035H47.7931V10.6207H53.1035V5.31035Z" fill="white"/>
<path d="M58.4138 5.31035H53.1035V10.6207H58.4138V5.31035Z" fill="white"/>
<path d="M63.7241 5.31035H58.4138V10.6207H63.7241V5.31035Z" fill="white"/>
<path d="M69.0345 5.31035H63.7241V10.6207H69.0345V5.31035Z" fill="white"/>
<path d="M79.6552 5.31035H74.3448V10.6207H79.6552V5.31035Z" fill="white"/>
<path d="M84.9655 5.31035H79.6552V10.6207H84.9655V5.31035Z" fill="white"/>
<path d="M122.138 5.31035H116.828V10.6207H122.138V5.31035Z" fill="white"/>
<path d="M154 5.31035H148.69V10.6207H154V5.31035Z" fill="white"/>
<path d="M5.31035 10.6207H0V15.931H5.31035V10.6207Z" fill="white"/>
<path d="M15.931 10.6207H10.6207V15.931H15.931V10.6207Z" fill="white"/>
<path d="M21.2414 10.6207H15.931V15.931H21.2414V10.6207Z" fill="white"/>
<path d="M26.5517 10.6207H21.2414V15.931H26.5517V10.6207Z" fill="white"/>
<path d="M37.1724 10.6207H31.8621V15.931H37.1724V10.6207Z" fill="white"/>
<path d="M58.4138 10.6207H53.1035V15.931H58.4138V10.6207Z" fill="white"/>
<path d="M63.7241 10.6207H58.4138V15.931H63.7241V10.6207Z" fill="white"/>
<path d="M69.0345 10.6207H63.7241V15.931H69.0345V10.6207Z" fill="white"/>
<path d="M74.3448 10.6207H69.0345V15.931H74.3448V10.6207Z" fill="white"/>
<path d="M84.9655 10.6207H79.6552V15.931H84.9655V10.6207Z" fill="white"/>
<path d="M90.2759 10.6207H84.9655V15.931H90.2759V10.6207Z" fill="white"/>
<path d="M106.207 10.6207H100.897V15.931H106.207V10.6207Z" fill="white"/>
<path d="M111.517 10.6207H106.207V15.931H111.517V10.6207Z" fill="white"/>
<path d="M122.138 10.6207H116.828V15.931H122.138V10.6207Z" fill="white"/>
<path d="M132.759 10.6207H127.448V15.931H132.759V10.6207Z" fill="white"/>
<path d="M138.069 10.6207H132.759V15.931H138.069V10.6207Z" fill="white"/>
<path d="M143.379 10.6207H138.069V15.931H143.379V10.6207Z" fill="white"/>
<path d="M154 10.6207H148.69V15.931H154V10.6207Z" fill="white"/>
<path d="M5.31035 15.931H0V21.2414H5.31035V15.931Z" fill="white"/>
<path d="M15.931 15.931H10.6207V21.2414H15.931V15.931Z" fill="white"/>
<path d="M21.2414 15.931H15.931V21.2414H21.2414V15.931Z" fill="white"/>
<path d="M26.5517 15.931H21.2414V21.2414H26.5517V15.931Z" fill="white"/>
<path d="M37.1724 15.931H31.8621V21.2414H37.1724V15.931Z" fill="white"/>
<path d="M47.7931 15.931H42.4828V21.2414H47.7931V15.931Z" fill="white"/>
<path d="M53.1035 15.931H47.7931V21.2414H53.1035V15.931Z" fill="white"/>
<path d="M58.4138 15.931H53.1035V21.2414H58.4138V15.931Z" fill="white"/>
<path d="M63.7241 15.931H58.4138V21.2414H63.7241V15.931Z" fill="white"/>
<path d="M74.3448 15.931H69.0345V21.2414H74.3448V15.931Z" fill="white"/>
<path d="M90.2759 15.931H84.9655V21.2414H90.2759V15.931Z" fill="white"/>
<path d="M106.207 15.931H100.897V21.2414H106.207V15.931Z" fill="white"/>
<path d="M122.138 15.931H116.828V21.2414H122.138V15.931Z" fill="white"/>
<path d="M132.759 15.931H127.448V21.2414H132.759V15.931Z" fill="white"/>
<path d="M138.069 15.931H132.759V21.2414H138.069V15.931Z" fill="white"/>
<path d="M143.379 15.931H138.069V21.2414H143.379V15.931Z" fill="white"/>
<path d="M154 15.931H148.69V21.2414H154V15.931Z" fill="white"/>
<path d="M5.31035 21.2414H0V26.5517H5.31035V21.2414Z" fill="white"/>
<path d="M15.931 21.2414H10.6207V26.5517H15.931V21.2414Z" fill="white"/>
<path d="M21.2414 21.2414H15.931V26.5517H21.2414V21.2414Z" fill="white"/>
<path d="M26.5517 21.2414H21.2414V26.5517H26.5517V21.2414Z" fill="white"/>
<path d="M37.1724 21.2414H31.8621V26.5517H37.1724V21.2414Z" fill="white"/>
<path d="M74.3448 21.2414H69.0345V26.5517H74.3448V21.2414Z" fill="white"/>
<path d="M79.6552 21.2414H74.3448V26.5517H79.6552V21.2414Z" fill="white"/>
<path d="M84.9655 21.2414H79.6552V26.5517H84.9655V21.2414Z" fill="white"/>
<path d="M95.5862 21.2414H90.2759V26.5517H95.5862V21.2414Z" fill="white"/>
<path d="M122.138 21.2414H116.828V26.5517H122.138V21.2414Z" fill="white"/>
<path d="M132.759 21.2414H127.448V26.5517H132.759V21.2414Z" fill="white"/>
<path d="M138.069 21.2414H132.759V26.5517H138.069V21.2414Z" fill="white"/>
<path d="M143.379 21.2414H138.069V26.5517H143.379V21.2414Z" fill="white"/>
<path d="M154 21.2414H148.69V26.5517H154V21.2414Z" fill="white"/>
<path d="M5.31035 26.5517H0V31.8621H5.31035V26.5517Z" fill="white"/>
<path d="M37.1724 26.5517H31.8621V31.8621H37.1724V26.5517Z" fill="white"/>
<path d="M47.7931 26.5517H42.4828V31.8621H47.7931V26.5517Z" fill="white"/>
<path d="M53.1035 26.5517H47.7931V31.8621H53.1035V26.5517Z" fill="white"/>
<path d="M58.4138 26.5517H53.1035V31.8621H58.4138V26.5517Z" fill="white"/>
<path d="M63.7241 26.5517H58.4138V31.8621H63.7241V26.5517Z" fill="white"/>
<path d="M69.0345 26.5517H63.7241V31.8621H69.0345V26.5517Z" fill="white"/>
<path d="M74.3448 26.5517H69.0345V31.8621H74.3448V26.5517Z" fill="white"/>
<path d="M84.9655 26.5517H79.6552V31.8621H84.9655V26.5517Z" fill="white"/>
<path d="M90.2759 26.5517H84.9655V31.8621H90.2759V26.5517Z" fill="white"/>
<path d="M122.138 26.5517H116.828V31.8621H122.138V26.5517Z" fill="white"/>
<path d="M154 26.5517H148.69V31.8621H154V26.5517Z" fill="white"/>
<path d="M5.31035 31.8621H0V37.1724H5.31035V31.8621Z" fill="white"/>
<path d="M10.6207 31.8621H5.31035V37.1724H10.6207V31.8621Z" fill="white"/>
<path d="M15.931 31.8621H10.6207V37.1724H15.931V31.8621Z" fill="white"/>
<path d="M21.2414 31.8621H15.931V37.1724H21.2414V31.8621Z" fill="white"/>
<path d="M26.5517 31.8621H21.2414V37.1724H26.5517V31.8621Z" fill="white"/>
<path d="M31.8621 31.8621H26.5517V37.1724H31.8621V31.8621Z" fill="white"/>
<path d="M37.1724 31.8621H31.8621V37.1724H37.1724V31.8621Z" fill="white"/>
<path d="M47.7931 31.8621H42.4828V37.1724H47.7931V31.8621Z" fill="white"/>
<path d="M58.4138 31.8621H53.1035V37.1724H58.4138V31.8621Z" fill="white"/>
<path d="M69.0345 31.8621H63.7241V37.1724H69.0345V31.8621Z" fill="white"/>
<path d="M79.6552 31.8621H74.3448V37.1724H79.6552V31.8621Z" fill="white"/>
<path d="M90.2759 31.8621H84.9655V37.1724H90.2759V31.8621Z" fill="white"/>
<path d="M100.897 31.8621H95.5862V37.1724H100.897V31.8621Z" fill="white"/>
<path d="M111.517 31.8621H106.207V37.1724H111.517V31.8621Z" fill="white"/>
<path d="M122.138 31.8621H116.828V37.1724H122.138V31.8621Z" fill="white"/>
<path d="M127.448 31.8621H122.138V37.1724H127.448V31.8621Z" fill="white"/>
<path d="M132.759 31.8621H127.448V37.1724H132.759V31.8621Z" fill="white"/>
<path d="M138.069 31.8621H132.759V37.1724H138.069V31.8621Z" fill="white"/>
<path d="M143.379 31.8621H138.069V37.1724H143.379V31.8621Z" fill="white"/>
<path d="M148.69 31.8621H143.379V37.1724H148.69V31.8621Z" fill="white"/>
<path d="M154 31.8621H148.69V37.1724H154V31.8621Z" fill="white"/>
<path d="M53.1035 37.1724H47.7931V42.4828H53.1035V37.1724Z" fill="white"/>
<path d="M79.6552 37.1724H74.3448V42.4828H79.6552V37.1724Z" fill="white"/>
<path d="M95.5862 37.1724H90.2759V42.4828H95.5862V37.1724Z" fill="white"/>
<path d="M100.897 37.1724H95.5862V42.4828H100.897V37.1724Z" fill="white"/>
<path d="M106.207 37.1724H100.897V42.4828H106.207V37.1724Z" fill="white"/>
<path d="M111.517 37.1724H106.207V42.4828H111.517V37.1724Z" fill="white"/>
<path d="M31.8621 42.4828H26.5517V47.7931H31.8621V42.4828Z" fill="white"/>
<path d="M37.1724 42.4828H31.8621V47.7931H37.1724V42.4828Z" fill="white"/>
<path d="M47.7931 42.4828H42.4828V47.7931H47.7931V42.4828Z" fill="white"/>
<path d="M53.1035 42.4828H47.7931V47.7931H53.1035V42.4828Z" fill="white"/>
<path d="M63.7241 42.4828H58.4138V47.7931H63.7241V42.4828Z" fill="white"/>
<path d="M69.0345 42.4828H63.7241V47.7931H69.0345V42.4828Z" fill="white"/>
<path d="M79.6552 42.4828H74.3448V47.7931H79.6552V42.4828Z" fill="white"/>
<path d="M84.9655 42.4828H79.6552V47.7931H84.9655V42.4828Z" fill="white"/>
<path d="M90.2759 42.4828H84.9655V47.7931H90.2759V42.4828Z" fill="white"/>
<path d="M95.5862 42.4828H90.2759V47.7931H95.5862V42.4828Z" fill="white"/>
<path d="M116.828 42.4828H111.517V47.7931H116.828V42.4828Z" fill="white"/>
<path d="M127.448 42.4828H122.138V47.7931H127.448V42.4828Z" fill="white"/>
<path d="M138.069 42.4828H132.759V47.7931H138.069V42.4828Z" fill="white"/>
<path d="M154 42.4828H148.69V47.7931H154V42.4828Z" fill="white"/>
<path d="M5.31035 47.7931H0V53.1035H5.31035V47.7931Z" fill="white"/>
<path d="M21.2414 47.7931H15.931V53.1035H21.2414V47.7931Z" fill="white"/>
<path d="M42.4828 47.7931H37.1724V53.1035H42.4828V47.7931Z" fill="white"/>
<path d="M47.7931 47.7931H42.4828V53.1035H47.7931V47.7931Z" fill="white"/>
<path d="M53.1035 47.7931H47.7931V53.1035H53.1035V47.7931Z" fill="white"/>
<path d="M84.9655 47.7931H79.6552V53.1035H84.9655V47.7931Z" fill="white"/>
<path d="M95.5862 47.7931H90.2759V53.1035H95.5862V47.7931Z" fill="white"/>
<path d="M106.207 47.7931H100.897V53.1035H106.207V47.7931Z" fill="white"/>
<path d="M116.828 47.7931H111.517V53.1035H116.828V47.7931Z" fill="white"/>
<path d="M5.31035 53.1035H0V58.4138H5.31035V53.1035Z" fill="white"/>
<path d="M21.2414 53.1035H15.931V58.4138H21.2414V53.1035Z" fill="white"/>
<path d="M26.5517 53.1035H21.2414V58.4138H26.5517V53.1035Z" fill="white"/>
<path d="M37.1724 53.1035H31.8621V58.4138H37.1724V53.1035Z" fill="white"/>
<path d="M42.4828 53.1035H37.1724V58.4138H42.4828V53.1035Z" fill="white"/>
<path d="M47.7931 53.1035H42.4828V58.4138H47.7931V53.1035Z" fill="white"/>
<path d="M58.4138 53.1035H53.1035V58.4138H58.4138V53.1035Z" fill="white"/>
<path d="M69.0345 53.1035H63.7241V58.4138H69.0345V53.1035Z" fill="white"/>
<path d="M84.9655 53.1035H79.6552V58.4138H84.9655V53.1035Z" fill="white"/>
<path d="M100.897 53.1035H95.5862V58.4138H100.897V53.1035Z" fill="white"/>
<path d="M111.517 53.1035H106.207V58.4138H111.517V53.1035Z" fill="white"/>
<path d="M122.138 53.1035H116.828V58.4138H122.138V53.1035Z" fill="white"/>
<path d="M132.759 53.1035H127.448V58.4138H132.759V53.1035Z" fill="white"/>
<path d="M143.379 53.1035H138.069V58.4138H143.379V53.1035Z" fill="white"/>
<path d="M154 53.1035H148.69V58.4138H154V53.1035Z" fill="white"/>
<path d="M31.8621 58.4138H26.5517V63.7241H31.8621V58.4138Z" fill="white"/>
<path d="M58.4138 58.4138H53.1035V63.7241H58.4138V58.4138Z" fill="white"/>
<path d="M74.3448 58.4138H69.0345V63.7241H74.3448V58.4138Z" fill="white"/>
<path d="M79.6552 58.4138H74.3448V63.7241H79.6552V58.4138Z" fill="white"/>
<path d="M90.2759 58.4138H84.9655V63.7241H90.2759V58.4138Z" fill="white"/>
<path d="M100.897 58.4138H95.5862V63.7241H100.897V58.4138Z" fill="white"/>
<path d="M106.207 58.4138H100.897V63.7241H106.207V58.4138Z" fill="white"/>
<path d="M111.517 58.4138H106.207V63.7241H111.517V58.4138Z" fill="white"/>
<path d="M116.828 58.4138H111.517V63.7241H116.828V58.4138Z" fill="white"/>
<path d="M127.448 58.4138H122.138V63.7241H127.448V58.4138Z" fill="white"/>
<path d="M132.759 58.4138H127.448V63.7241H132.759V58.4138Z" fill="white"/>
<path d="M15.931 63.7241H10.6207V69.0345H15.931V63.7241Z" fill="white"/>
<path d="M37.1724 63.7241H31.8621V69.0345H37.1724V63.7241Z" fill="white"/>
<path d="M47.7931 63.7241H42.4828V69.0345H47.7931V63.7241Z" fill="white"/>
<path d="M53.1035 63.7241H47.7931V69.0345H53.1035V63.7241Z" fill="white"/>
<path d="M58.4138 63.7241H53.1035V69.0345H58.4138V63.7241Z" fill="white"/>
<path d="M63.7241 63.7241H58.4138V69.0345H63.7241V63.7241Z" fill="white"/>
<path d="M69.0345 63.7241H63.7241V69.0345H69.0345V63.7241Z" fill="white"/>
<path d="M79.6552 63.7241H74.3448V69.0345H79.6552V63.7241Z" fill="white"/>
<path d="M84.9655 63.7241H79.6552V69.0345H84.9655V63.7241Z" fill="white"/>
<path d="M100.897 63.7241H95.5862V69.0345H100.897V63.7241Z" fill="white"/>
<path d="M106.207 63.7241H100.897V69.0345H106.207V63.7241Z" fill="white"/>
<path d="M122.138 63.7241H116.828V69.0345H122.138V63.7241Z" fill="white"/>
<path d="M132.759 63.7241H127.448V69.0345H132.759V63.7241Z" fill="white"/>
<path d="M143.379 63.7241H138.069V69.0345H143.379V63.7241Z" fill="white"/>
<path d="M154 63.7241H148.69V69.0345H154V63.7241Z" fill="white"/>
<path d="M5.31035 69.0345H0V74.3448H5.31035V69.0345Z" fill="white"/>
<path d="M10.6207 69.0345H5.31035V74.3448H10.6207V69.0345Z" fill="white"/>
<path d="M15.931 69.0345H10.6207V74.3448H15.931V69.0345Z" fill="white"/>
<path d="M21.2414 69.0345H15.931V74.3448H21.2414V69.0345Z" fill="white"/>
<path d="M26.5517 69.0345H21.2414V74.3448H26.5517V69.0345Z" fill="white"/>
<path d="M31.8621 69.0345H26.5517V74.3448H31.8621V69.0345Z" fill="white"/>
<path d="M84.9655 69.0345H79.6552V74.3448H84.9655V69.0345Z" fill="white"/>
<path d="M90.2759 69.0345H84.9655V74.3448H90.2759V69.0345Z" fill="white"/>
<path d="M100.897 69.0345H95.5862V74.3448H100.897V69.0345Z" fill="white"/>
<path d="M106.207 69.0345H100.897V74.3448H106.207V69.0345Z" fill="white"/>
<path d="M116.828 69.0345H111.517V74.3448H116.828V69.0345Z" fill="white"/>
<path d="M122.138 69.0345H116.828V74.3448H122.138V69.0345Z" fill="white"/>
<path d="M127.448 69.0345H122.138V74.3448H127.448V69.0345Z" fill="white"/>
<path d="M148.69 69.0345H143.379V74.3448H148.69V69.0345Z" fill="white"/>
<path d="M154 69.0345H148.69V74.3448H154V69.0345Z" fill="white"/>
<path d="M10.6207 74.3448H5.31035V79.6552H10.6207V74.3448Z" fill="white"/>
<path d="M21.2414 74.3448H15.931V79.6552H21.2414V74.3448Z" fill="white"/>
<path d="M26.5517 74.3448H21.2414V79.6552H26.5517V74.3448Z" fill="white"/>
<path d="M31.8621 74.3448H26.5517V79.6552H31.8621V74.3448Z" fill="white"/>
<path d="M37.1724 74.3448H31.8621V79.6552H37.1724V74.3448Z" fill="white"/>
<path d="M42.4828 74.3448H37.1724V79.6552H42.4828V74.3448Z" fill="white"/>
<path d="M53.1035 74.3448H47.7931V79.6552H53.1035V74.3448Z" fill="white"/>
<path d="M63.7241 74.3448H58.4138V79.6552H63.7241V74.3448Z" fill="white"/>
<path d="M84.9655 74.3448H79.6552V79.6552H84.9655V74.3448Z" fill="white"/>
<path d="M90.2759 74.3448H84.9655V79.6552H90.2759V74.3448Z" fill="white"/>
<path d="M111.517 74.3448H106.207V79.6552H111.517V74.3448Z" fill="white"/>
<path d="M122.138 74.3448H116.828V79.6552H122.138V74.3448Z" fill="white"/>
<path d="M132.759 74.3448H127.448V79.6552H132.759V74.3448Z" fill="white"/>
<path d="M138.069 74.3448H132.759V79.6552H138.069V74.3448Z" fill="white"/>
<path d="M154 74.3448H148.69V79.6552H154V74.3448Z" fill="white"/>
<path d="M10.6207 79.6552H5.31035V84.9655H10.6207V79.6552Z" fill="white"/>
<path d="M21.2414 79.6552H15.931V84.9655H21.2414V79.6552Z" fill="white"/>
<path d="M47.7931 79.6552H42.4828V84.9655H47.7931V79.6552Z" fill="white"/>
<path d="M53.1035 79.6552H47.7931V84.9655H53.1035V79.6552Z" fill="white"/>
<path d="M63.7241 79.6552H58.4138V84.9655H63.7241V79.6552Z" fill="white"/>
<path d="M74.3448 79.6552H69.0345V84.9655H74.3448V79.6552Z" fill="white"/>
<path d="M79.6552 79.6552H74.3448V84.9655H79.6552V79.6552Z" fill="white"/>
<path d="M90.2759 79.6552H84.9655V84.9655H90.2759V79.6552Z" fill="white"/>
<path d="M95.5862 79.6552H90.2759V84.9655H95.5862V79.6552Z" fill="white"/>
<path d="M106.207 79.6552H100.897V84.9655H106.207V79.6552Z" fill="white"/>
<path d="M116.828 79.6552H111.517V84.9655H116.828V79.6552Z" fill="white"/>
<path d="M122.138 79.6552H116.828V84.9655H122.138V79.6552Z" fill="white"/>
<path d="M132.759 79.6552H127.448V84.9655H132.759V79.6552Z" fill="white"/>
<path d="M138.069 79.6552H132.759V84.9655H138.069V79.6552Z" fill="white"/>
<path d="M148.69 79.6552H143.379V84.9655H148.69V79.6552Z" fill="white"/>
<path d="M5.31035 84.9655H0V90.2759H5.31035V84.9655Z" fill="white"/>
<path d="M15.931 84.9655H10.6207V90.2759H15.931V84.9655Z" fill="white"/>
<path d="M26.5517 84.9655H21.2414V90.2759H26.5517V84.9655Z" fill="white"/>
<path d="M37.1724 84.9655H31.8621V90.2759H37.1724V84.9655Z" fill="white"/>
<path d="M58.4138 84.9655H53.1035V90.2759H58.4138V84.9655Z" fill="white"/>
<path d="M69.0345 84.9655H63.7241V90.2759H69.0345V84.9655Z" fill="white"/>
<path d="M79.6552 84.9655H74.3448V90.2759H79.6552V84.9655Z" fill="white"/>
<path d="M84.9655 84.9655H79.6552V90.2759H84.9655V84.9655Z" fill="white"/>
<path d="M90.2759 84.9655H84.9655V90.2759H90.2759V84.9655Z" fill="white"/>
<path d="M106.207 84.9655H100.897V90.2759H106.207V84.9655Z" fill="white"/>
<path d="M111.517 84.9655H106.207V90.2759H111.517V84.9655Z" fill="white"/>
<path d="M116.828 84.9655H111.517V90.2759H116.828V84.9655Z" fill="white"/>
<path d="M127.448 84.9655H122.138V90.2759H127.448V84.9655Z" fill="white"/>
<path d="M138.069 84.9655H132.759V90.2759H138.069V84.9655Z" fill="white"/>
<path d="M10.6207 90.2759H5.31035V95.5862H10.6207V90.2759Z" fill="white"/>
<path d="M15.931 90.2759H10.6207V95.5862H15.931V90.2759Z" fill="white"/>
<path d="M42.4828 90.2759H37.1724V95.5862H42.4828V90.2759Z" fill="white"/>
<path d="M58.4138 90.2759H53.1035V95.5862H58.4138V90.2759Z" fill="white"/>
<path d="M69.0345 90.2759H63.7241V95.5862H69.0345V90.2759Z" fill="white"/>
<path d="M74.3448 90.2759H69.0345V95.5862H74.3448V90.2759Z" fill="white"/>
<path d="M84.9655 90.2759H79.6552V95.5862H84.9655V90.2759Z" fill="white"/>
<path d="M90.2759 90.2759H84.9655V95.5862H90.2759V90.2759Z" fill="white"/>
<path d="M100.897 90.2759H95.5862V95.5862H100.897V90.2759Z" fill="white"/>
<path d="M106.207 90.2759H100.897V95.5862H106.207V90.2759Z" fill="white"/>
<path d="M122.138 90.2759H116.828V95.5862H122.138V90.2759Z" fill="white"/>
<path d="M5.31035 95.5862H0V100.897H5.31035V95.5862Z" fill="white"/>
<path d="M10.6207 95.5862H5.31035V100.897H10.6207V95.5862Z" fill="white"/>
<path d="M15.931 95.5862H10.6207V100.897H15.931V95.5862Z" fill="white"/>
<path d="M21.2414 95.5862H15.931V100.897H21.2414V95.5862Z" fill="white"/>
<path d="M26.5517 95.5862H21.2414V100.897H26.5517V95.5862Z" fill="white"/>
<path d="M37.1724 95.5862H31.8621V100.897H37.1724V95.5862Z" fill="white"/>
<path d="M42.4828 95.5862H37.1724V100.897H42.4828V95.5862Z" fill="white"/>
<path d="M47.7931 95.5862H42.4828V100.897H47.7931V95.5862Z" fill="white"/>
<path d="M74.3448 95.5862H69.0345V100.897H74.3448V95.5862Z" fill="white"/>
<path d="M84.9655 95.5862H79.6552V100.897H84.9655V95.5862Z" fill="white"/>
<path d="M95.5862 95.5862H90.2759V100.897H95.5862V95.5862Z" fill="white"/>
<path d="M100.897 95.5862H95.5862V100.897H100.897V95.5862Z" fill="white"/>
<path d="M106.207 95.5862H100.897V100.897H106.207V95.5862Z" fill="white"/>
<path d="M111.517 95.5862H106.207V100.897H111.517V95.5862Z" fill="white"/>
<path d="M127.448 95.5862H122.138V100.897H127.448V95.5862Z" fill="white"/>
<path d="M132.759 95.5862H127.448V100.897H132.759V95.5862Z" fill="white"/>
<path d="M5.31035 100.897H0V106.207H5.31035V100.897Z" fill="white"/>
<path d="M31.8621 100.897H26.5517V106.207H31.8621V100.897Z" fill="white"/>
<path d="M47.7931 100.897H42.4828V106.207H47.7931V100.897Z" fill="white"/>
<path d="M58.4138 100.897H53.1035V106.207H58.4138V100.897Z" fill="white"/>
<path d="M63.7241 100.897H58.4138V106.207H63.7241V100.897Z" fill="white"/>
<path d="M74.3448 100.897H69.0345V106.207H74.3448V100.897Z" fill="white"/>
<path d="M106.207 100.897H100.897V106.207H106.207V100.897Z" fill="white"/>
<path d="M138.069 100.897H132.759V106.207H138.069V100.897Z" fill="white"/>
<path d="M143.379 100.897H138.069V106.207H143.379V100.897Z" fill="white"/>
<path d="M148.69 100.897H143.379V106.207H148.69V100.897Z" fill="white"/>
<path d="M15.931 106.207H10.6207V111.517H15.931V106.207Z" fill="white"/>
<path d="M37.1724 106.207H31.8621V111.517H37.1724V106.207Z" fill="white"/>
<path d="M53.1035 106.207H47.7931V111.517H53.1035V106.207Z" fill="white"/>
<path d="M58.4138 106.207H53.1035V111.517H58.4138V106.207Z" fill="white"/>
<path d="M74.3448 106.207H69.0345V111.517H74.3448V106.207Z" fill="white"/>
<path d="M84.9655 106.207H79.6552V111.517H84.9655V106.207Z" fill="white"/>
<path d="M90.2759 106.207H84.9655V111.517H90.2759V106.207Z" fill="white"/>
<path d="M95.5862 106.207H90.2759V111.517H95.5862V106.207Z" fill="white"/>
<path d="M111.517 106.207H106.207V111.517H111.517V106.207Z" fill="white"/>
<path d="M116.828 106.207H111.517V111.517H116.828V106.207Z" fill="white"/>
<path d="M122.138 106.207H116.828V111.517H122.138V106.207Z" fill="white"/>
<path d="M127.448 106.207H122.138V111.517H127.448V106.207Z" fill="white"/>
<path d="M132.759 106.207H127.448V111.517H132.759V106.207Z" fill="white"/>
<path d="M148.69 106.207H143.379V111.517H148.69V106.207Z" fill="white"/>
<path d="M154 106.207H148.69V111.517H154V106.207Z" fill="white"/>
<path d="M47.7931 111.517H42.4828V116.828H47.7931V111.517Z" fill="white"/>
<path d="M69.0345 111.517H63.7241V116.828H69.0345V111.517Z" fill="white"/>
<path d="M79.6552 111.517H74.3448V116.828H79.6552V111.517Z" fill="white"/>
<path d="M84.9655 111.517H79.6552V116.828H84.9655V111.517Z" fill="white"/>
<path d="M90.2759 111.517H84.9655V116.828H90.2759V111.517Z" fill="white"/>
<path d="M95.5862 111.517H90.2759V116.828H95.5862V111.517Z" fill="white"/>
<path d="M100.897 111.517H95.5862V116.828H100.897V111.517Z" fill="white"/>
<path d="M111.517 111.517H106.207V116.828H111.517V111.517Z" fill="white"/>
<path d="M132.759 111.517H127.448V116.828H132.759V111.517Z" fill="white"/>
<path d="M143.379 111.517H138.069V116.828H143.379V111.517Z" fill="white"/>
<path d="M148.69 111.517H143.379V116.828H148.69V111.517Z" fill="white"/>
<path d="M5.31035 116.828H0V122.138H5.31035V116.828Z" fill="white"/>
<path d="M10.6207 116.828H5.31035V122.138H10.6207V116.828Z" fill="white"/>
<path d="M15.931 116.828H10.6207V122.138H15.931V116.828Z" fill="white"/>
<path d="M21.2414 116.828H15.931V122.138H21.2414V116.828Z" fill="white"/>
<path d="M26.5517 116.828H21.2414V122.138H26.5517V116.828Z" fill="white"/>
<path d="M31.8621 116.828H26.5517V122.138H31.8621V116.828Z" fill="white"/>
<path d="M37.1724 116.828H31.8621V122.138H37.1724V116.828Z" fill="white"/>
<path d="M53.1035 116.828H47.7931V122.138H53.1035V116.828Z" fill="white"/>
<path d="M63.7241 116.828H58.4138V122.138H63.7241V116.828Z" fill="white"/>
<path d="M69.0345 116.828H63.7241V122.138H69.0345V116.828Z" fill="white"/>
<path d="M79.6552 116.828H74.3448V122.138H79.6552V116.828Z" fill="white"/>
<path d="M95.5862 116.828H90.2759V122.138H95.5862V116.828Z" fill="white"/>
<path d="M111.517 116.828H106.207V122.138H111.517V116.828Z" fill="white"/>
<path d="M122.138 116.828H116.828V122.138H122.138V116.828Z" fill="white"/>
<path d="M132.759 116.828H127.448V122.138H132.759V116.828Z" fill="white"/>
<path d="M138.069 116.828H132.759V122.138H138.069V116.828Z" fill="white"/>
<path d="M154 116.828H148.69V122.138H154V116.828Z" fill="white"/>
<path d="M5.31035 122.138H0V127.448H5.31035V122.138Z" fill="white"/>
<path d="M37.1724 122.138H31.8621V127.448H37.1724V122.138Z" fill="white"/>
<path d="M47.7931 122.138H42.4828V127.448H47.7931V122.138Z" fill="white"/>
<path d="M58.4138 122.138H53.1035V127.448H58.4138V122.138Z" fill="white"/>
<path d="M63.7241 122.138H58.4138V127.448H63.7241V122.138Z" fill="white"/>
<path d="M74.3448 122.138H69.0345V127.448H74.3448V122.138Z" fill="white"/>
<path d="M95.5862 122.138H90.2759V127.448H95.5862V122.138Z" fill="white"/>
<path d="M100.897 122.138H95.5862V127.448H100.897V122.138Z" fill="white"/>
<path d="M106.207 122.138H100.897V127.448H106.207V122.138Z" fill="white"/>
<path d="M111.517 122.138H106.207V127.448H111.517V122.138Z" fill="white"/>
<path d="M132.759 122.138H127.448V127.448H132.759V122.138Z" fill="white"/>
<path d="M138.069 122.138H132.759V127.448H138.069V122.138Z" fill="white"/>
<path d="M148.69 122.138H143.379V127.448H148.69V122.138Z" fill="white"/>
<path d="M5.31035 127.448H0V132.759H5.31035V127.448Z" fill="white"/>
<path d="M15.931 127.448H10.6207V132.759H15.931V127.448Z" fill="white"/>
<path d="M21.2414 127.448H15.931V132.759H21.2414V127.448Z" fill="white"/>
<path d="M26.5517 127.448H21.2414V132.759H26.5517V127.448Z" fill="white"/>
<path d="M37.1724 127.448H31.8621V132.759H37.1724V127.448Z" fill="white"/>
<path d="M58.4138 127.448H53.1035V132.759H58.4138V127.448Z" fill="white"/>
<path d="M63.7241 127.448H58.4138V132.759H63.7241V127.448Z" fill="white"/>
<path d="M79.6552 127.448H74.3448V132.759H79.6552V127.448Z" fill="white"/>
<path d="M84.9655 127.448H79.6552V132.759H84.9655V127.448Z" fill="white"/>
<path d="M100.897 127.448H95.5862V132.759H100.897V127.448Z" fill="white"/>
<path d="M106.207 127.448H100.897V132.759H106.207V127.448Z" fill="white"/>
<path d="M111.517 127.448H106.207V132.759H111.517V127.448Z" fill="white"/>
<path d="M116.828 127.448H111.517V132.759H116.828V127.448Z" fill="white"/>
<path d="M122.138 127.448H116.828V132.759H122.138V127.448Z" fill="white"/>
<path d="M127.448 127.448H122.138V132.759H127.448V127.448Z" fill="white"/>
<path d="M132.759 127.448H127.448V132.759H132.759V127.448Z" fill="white"/>
<path d="M138.069 127.448H132.759V132.759H138.069V127.448Z" fill="white"/>
<path d="M143.379 127.448H138.069V132.759H143.379V127.448Z" fill="white"/>
<path d="M148.69 127.448H143.379V132.759H148.69V127.448Z" fill="white"/>
<path d="M154 127.448H148.69V132.759H154V127.448Z" fill="white"/>
<path d="M5.31035 132.759H0V138.069H5.31035V132.759Z" fill="white"/>
<path d="M15.931 132.759H10.6207V138.069H15.931V132.759Z" fill="white"/>
<path d="M21.2414 132.759H15.931V138.069H21.2414V132.759Z" fill="white"/>
<path d="M26.5517 132.759H21.2414V138.069H26.5517V132.759Z" fill="white"/>
<path d="M37.1724 132.759H31.8621V138.069H37.1724V132.759Z" fill="white"/>
<path d="M53.1035 132.759H47.7931V138.069H53.1035V132.759Z" fill="white"/>
<path d="M58.4138 132.759H53.1035V138.069H58.4138V132.759Z" fill="white"/>
<path d="M63.7241 132.759H58.4138V138.069H63.7241V132.759Z" fill="white"/>
<path d="M69.0345 132.759H63.7241V138.069H69.0345V132.759Z" fill="white"/>
<path d="M84.9655 132.759H79.6552V138.069H84.9655V132.759Z" fill="white"/>
<path d="M90.2759 132.759H84.9655V138.069H90.2759V132.759Z" fill="white"/>
<path d="M100.897 132.759H95.5862V138.069H100.897V132.759Z" fill="white"/>
<path d="M132.759 132.759H127.448V138.069H132.759V132.759Z" fill="white"/>
<path d="M138.069 132.759H132.759V138.069H138.069V132.759Z" fill="white"/>
<path d="M5.31035 138.069H0V143.379H5.31035V138.069Z" fill="white"/>
<path d="M15.931 138.069H10.6207V143.379H15.931V138.069Z" fill="white"/>
<path d="M21.2414 138.069H15.931V143.379H21.2414V138.069Z" fill="white"/>
<path d="M26.5517 138.069H21.2414V143.379H26.5517V138.069Z" fill="white"/>
<path d="M37.1724 138.069H31.8621V143.379H37.1724V138.069Z" fill="white"/>
<path d="M58.4138 138.069H53.1035V143.379H58.4138V138.069Z" fill="white"/>
<path d="M63.7241 138.069H58.4138V143.379H63.7241V138.069Z" fill="white"/>
<path d="M74.3448 138.069H69.0345V143.379H74.3448V138.069Z" fill="white"/>
<path d="M79.6552 138.069H74.3448V143.379H79.6552V138.069Z" fill="white"/>
<path d="M111.517 138.069H106.207V143.379H111.517V138.069Z" fill="white"/>
<path d="M116.828 138.069H111.517V143.379H116.828V138.069Z" fill="white"/>
<path d="M127.448 138.069H122.138V143.379H127.448V138.069Z" fill="white"/>
<path d="M5.31035 143.379H0V148.69H5.31035V143.379Z" fill="white"/>
<path d="M37.1724 143.379H31.8621V148.69H37.1724V143.379Z" fill="white"/>
<path d="M58.4138 143.379H53.1035V148.69H58.4138V143.379Z" fill="white"/>
<path d="M63.7241 143.379H58.4138V148.69H63.7241V143.379Z" fill="white"/>
<path d="M69.0345 143.379H63.7241V148.69H69.0345V143.379Z" fill="white"/>
<path d="M79.6552 143.379H74.3448V148.69H79.6552V143.379Z" fill="white"/>
<path d="M84.9655 143.379H79.6552V148.69H84.9655V143.379Z" fill="white"/>
<path d="M90.2759 143.379H84.9655V148.69H90.2759V143.379Z" fill="white"/>
<path d="M100.897 143.379H95.5862V148.69H100.897V143.379Z" fill="white"/>
<path d="M106.207 143.379H100.897V148.69H106.207V143.379Z" fill="white"/>
<path d="M116.828 143.379H111.517V148.69H116.828V143.379Z" fill="white"/>
<path d="M122.138 143.379H116.828V148.69H122.138V143.379Z" fill="white"/>
<path d="M127.448 143.379H122.138V148.69H127.448V143.379Z" fill="white"/>
<path d="M132.759 143.379H127.448V148.69H132.759V143.379Z" fill="white"/>
<path d="M148.69 143.379H143.379V148.69H148.69V143.379Z" fill="white"/>
<path d="M154 143.379H148.69V148.69H154V143.379Z" fill="white"/>
<path d="M5.31035 148.69H0V154H5.31035V148.69Z" fill="white"/>
<path d="M10.6207 148.69H5.31035V154H10.6207V148.69Z" fill="white"/>
<path d="M15.931 148.69H10.6207V154H15.931V148.69Z" fill="white"/>
<path d="M21.2414 148.69H15.931V154H21.2414V148.69Z" fill="white"/>
<path d="M26.5517 148.69H21.2414V154H26.5517V148.69Z" fill="white"/>
<path d="M31.8621 148.69H26.5517V154H31.8621V148.69Z" fill="white"/>
<path d="M37.1724 148.69H31.8621V154H37.1724V148.69Z" fill="white"/>
<path d="M53.1035 148.69H47.7931V154H53.1035V148.69Z" fill="white"/>
<path d="M69.0345 148.69H63.7241V154H69.0345V148.69Z" fill="white"/>
<path d="M79.6552 148.69H74.3448V154H79.6552V148.69Z" fill="white"/>
<path d="M95.5862 148.69H90.2759V154H95.5862V148.69Z" fill="white"/>
<path d="M100.897 148.69H95.5862V154H100.897V148.69Z" fill="white"/>
<path d="M106.207 148.69H100.897V154H106.207V148.69Z" fill="white"/>
<path d="M116.828 148.69H111.517V154H116.828V148.69Z" fill="white"/>
<path d="M138.069 148.69H132.759V154H138.069V148.69Z" fill="white"/>
<path d="M143.379 148.69H138.069V154H143.379V148.69Z" fill="white"/>
</g>
</svg>
